<svg width="27" height="27" viewBox="0 0 27 27" fill="none" xmlns="http://www.w3.org/2000/svg">
<circle cx="13.5" cy="13.5" r="13.5" fill="#D5E3AE"/>
<path d="M16.7668 13.3894H17.6301C17.8252 13.3894 17.984 13.2306 17.984 13.0355V12.1723C17.984 11.9771 17.8252 11.8183 17.6301 11.8183H16.7668C16.5716 11.8183 16.4128 11.9771 16.4128 12.1723V13.0355C16.4128 13.2306 16.5716 13.3894 16.7668 13.3894ZM16.7754 12.1809H17.6214V13.0268H16.7754V12.1809ZM16.7668 15.6855H17.6301C17.8252 15.6855 17.984 15.5268 17.984 15.3316V14.4684C17.984 14.2733 17.8252 14.1145 17.6301 14.1145H16.7668C16.5716 14.1145 16.4128 14.2733 16.4128 14.4684V15.3316C16.4128 15.5268 16.5716 15.6855 16.7668 15.6855ZM16.7754 14.477H17.6214V15.323H16.7754V14.477ZM14.3032 13.3894H15.1665C15.3617 13.3894 15.5205 13.2306 15.5205 13.0355V12.1723C15.5205 11.9771 15.3617 11.8183 15.1665 11.8183H14.3032C14.108 11.8183 13.9492 11.9771 13.9492 12.1723V13.0355C13.9492 13.2306 14.108 13.3894 14.3032 13.3894ZM14.3118 12.1809H15.1579V13.0268H14.3118V12.1809ZM10.2393 16.303H9.37603C9.18086 16.303 9.02207 16.4618 9.02207 16.6569V17.5201C9.02207 17.7153 9.18086 17.874 9.37603 17.874H10.2393C10.4345 17.874 10.5933 17.7153 10.5933 17.5201V16.6569C10.5933 16.4618 10.4345 16.303 10.2393 16.303ZM10.2307 17.5115H9.38466V16.6655H10.2307V17.5115ZM10.2393 11.8183H9.37603C9.18086 11.8183 9.02207 11.9771 9.02207 12.1723V13.0355C9.02207 13.2306 9.18086 13.3894 9.37603 13.3894H10.2393C10.4345 13.3894 10.5933 13.2306 10.5933 13.0355V12.1723C10.5933 11.9771 10.4345 11.8183 10.2393 11.8183ZM10.2307 13.0268H9.38466V12.1809H10.2307V13.0268ZM14.3032 15.6317H15.1665C15.3617 15.6317 15.5205 15.4729 15.5205 15.2778V14.4146C15.5205 14.2194 15.3617 14.0607 15.1665 14.0607H14.3032C14.108 14.0607 13.9492 14.2194 13.9492 14.4146V15.2778C13.9492 15.4729 14.108 15.6317 14.3032 15.6317ZM14.3118 14.4232H15.1579V15.2692H14.3118V14.4232ZM18.1641 8.14017H17.389V7.86301C17.389 7.55905 17.1417 7.31177 16.8377 7.31177H16.7544C16.4504 7.31177 16.2031 7.55905 16.2031 7.86301V8.14017H10.803V7.86301C10.803 7.55905 10.5557 7.31177 10.2517 7.31177H10.1684C9.86442 7.31177 9.61711 7.55905 9.61711 7.86301V8.14017H8.84201C8.34151 8.14017 7.93433 8.54731 7.93433 9.04775V18.7804C7.93433 19.2802 8.34096 19.6868 8.8408 19.6868H18.1654C18.6652 19.6868 19.0718 19.2802 19.0718 18.7804V9.04775C19.0718 8.54731 18.6646 8.14017 18.1641 8.14017ZM16.5657 7.86301C16.5657 7.75896 16.6504 7.67432 16.7544 7.67432H16.8377C16.9418 7.67432 17.0264 7.75896 17.0264 7.86301V8.14017H16.5657V7.86301ZM9.97972 7.86301C9.97972 7.75896 10.0644 7.67432 10.1684 7.67432H10.2517C10.3557 7.67432 10.4404 7.75896 10.4404 7.86301V8.14017H9.97974V7.86301H9.97972ZM18.7092 18.7804C18.7092 19.0803 18.4652 19.3242 18.1653 19.3242H8.84078C8.54087 19.3242 8.29689 19.0803 8.29689 18.7804V18.7793C8.44879 18.8937 8.63761 18.9617 8.84201 18.9617H16.1925C16.435 18.9617 16.6629 18.8673 16.8343 18.6958L18.7092 16.8212V18.7804ZM16.6493 18.3681C16.6636 18.3094 16.6713 18.2482 16.6713 18.1853V16.9752C16.6713 16.7471 16.857 16.5614 17.0852 16.5614H18.2953C18.3583 16.5614 18.4195 16.5537 18.4781 16.5395L16.6493 18.3681ZM18.7092 10.7307H10.9843C10.8841 10.7307 10.803 10.8119 10.803 10.912C10.803 11.0121 10.8841 11.0932 10.9843 11.0932H18.7092V15.7851C18.7092 16.0133 18.5235 16.1989 18.2953 16.1989H17.0852C16.657 16.1989 16.3087 16.5472 16.3087 16.9753V18.1853C16.3087 18.4135 16.123 18.5991 15.8948 18.5991H8.84201C8.54145 18.5991 8.29692 18.3546 8.29692 18.0541V11.0932H10.2591C10.3592 11.0932 10.4404 11.0121 10.4404 10.912C10.4404 10.8119 10.3592 10.7307 10.2591 10.7307H8.29689V9.04775C8.29689 8.74722 8.54142 8.50272 8.84198 8.50272H9.61711V9.03571C9.61711 9.33967 9.86442 9.58696 10.1684 9.58696C10.2685 9.58696 10.3497 9.50579 10.3497 9.40568C10.3497 9.30557 10.2685 9.22441 10.1684 9.22441C10.0643 9.22441 9.9797 9.13976 9.9797 9.03571V8.50272H16.2031V9.03571C16.2031 9.33967 16.4504 9.58696 16.7544 9.58696C16.8546 9.58696 16.9357 9.50579 16.9357 9.40568C16.9357 9.30557 16.8546 9.22441 16.7544 9.22441C16.6504 9.22441 16.5657 9.13976 16.5657 9.03571V8.50272H18.1641C18.4647 8.50272 18.7092 8.74722 18.7092 9.04775V10.7307ZM10.2393 14.0607H9.37603C9.18086 14.0607 9.02207 14.2194 9.02207 14.4146V15.2778C9.02207 15.4729 9.18086 15.6317 9.37603 15.6317H10.2393C10.4345 15.6317 10.5933 15.4729 10.5933 15.2778V14.4146C10.5933 14.2194 10.4345 14.0607 10.2393 14.0607ZM10.2307 15.2692H9.38466V14.4232H10.2307V15.2692ZM11.8396 13.3894H12.7029C12.8981 13.3894 13.0569 13.2306 13.0569 13.0355V12.1723C13.0569 11.9771 12.8981 11.8183 12.7029 11.8183H11.8396C11.6444 11.8183 11.4857 11.9771 11.4857 12.1723V13.0355C11.4857 13.2306 11.6444 13.3894 11.8396 13.3894ZM11.8482 12.1809H12.6943V13.0268H11.8482V12.1809ZM14.3116 17.5115C14.3071 17.4154 14.2277 17.3388 14.1305 17.3388C14.0304 17.3388 13.9492 17.42 13.9492 17.5201C13.9492 17.7153 14.108 17.874 14.3032 17.874H15.1665C15.3616 17.874 15.5204 17.7153 15.5204 17.5201V16.6569C15.5204 16.4618 15.3616 16.303 15.1665 16.303H14.3032C14.108 16.303 13.9492 16.4618 13.9492 16.6569V16.9058C13.9492 17.006 14.0304 17.0871 14.1305 17.0871C14.2306 17.0871 14.3118 17.006 14.3118 16.9058V16.6655H15.1578V17.5115H14.3116ZM11.8396 15.6317H12.7029C12.8981 15.6317 13.0569 15.4729 13.0569 15.2778V14.4146C13.0569 14.2194 12.8981 14.0607 12.7029 14.0607H11.8396C11.6444 14.0607 11.4857 14.2194 11.4857 14.4146V15.2778C11.4857 15.4729 11.6444 15.6317 11.8396 15.6317ZM11.8482 14.4232H12.6943V15.2692H11.8482V14.4232ZM11.8396 17.874H12.7029C12.8981 17.874 13.0569 17.7153 13.0569 17.5201V16.6569C13.0569 16.4618 12.8981 16.303 12.7029 16.303H11.8396C11.6444 16.303 11.4857 16.4618 11.4857 16.6569V17.5201C11.4857 17.7153 11.6444 17.874 11.8396 17.874ZM11.8482 16.6655H12.6943V17.5115H11.8482V16.6655Z" fill="#1B2421"/>
</svg>
