<svg width="27" height="27" viewBox="0 0 27 27" fill="none" xmlns="http://www.w3.org/2000/svg">
<circle cx="13.5" cy="13.5" r="13.5" fill="#D5E3AE"/>
<path d="M11.0895 16.1806H10.6688C10.5526 16.1806 10.4584 16.2729 10.4584 16.3868C10.4584 16.5007 10.5526 16.5931 10.6688 16.5931H11.0895C11.2057 16.5931 11.2999 16.5007 11.2999 16.3868C11.2999 16.2729 11.2057 16.1806 11.0895 16.1806Z" fill="#1B2421"/>
<path d="M16.9798 16.1806H11.9308C11.8146 16.1806 11.7204 16.2729 11.7204 16.3868C11.7204 16.5007 11.8146 16.5931 11.9308 16.5931H16.9798C17.096 16.5931 17.1902 16.5007 17.1902 16.3868C17.1902 16.2729 17.096 16.1806 16.9798 16.1806Z" fill="#1B2421"/>
<path d="M11.0895 14.943H10.6688C10.5526 14.943 10.4584 15.0354 10.4584 15.1493C10.4584 15.2632 10.5526 15.3555 10.6688 15.3555H11.0895C11.2057 15.3555 11.2999 15.2632 11.2999 15.1493C11.2999 15.0354 11.2057 14.943 11.0895 14.943Z" fill="#1B2421"/>
<path d="M16.9798 14.943H11.9308C11.8146 14.943 11.7204 15.0354 11.7204 15.1493C11.7204 15.2632 11.8146 15.3555 11.9308 15.3555H16.9798C17.096 15.3555 17.1902 15.2632 17.1902 15.1493C17.1902 15.0354 17.096 14.943 16.9798 14.943Z" fill="#1B2421"/>
<path d="M11.0895 13.7056H10.6688C10.5526 13.7056 10.4584 13.798 10.4584 13.9119C10.4584 14.0258 10.5526 14.1181 10.6688 14.1181H11.0895C11.2057 14.1181 11.2999 14.0258 11.2999 13.9119C11.2999 13.798 11.2057 13.7056 11.0895 13.7056Z" fill="#1B2421"/>
<path d="M16.9798 13.7056H11.9308C11.8146 13.7056 11.7204 13.798 11.7204 13.9119C11.7204 14.0258 11.8146 14.1181 11.9308 14.1181H16.9798C17.096 14.1181 17.1902 14.0258 17.1902 13.9119C17.1902 13.798 17.096 13.7056 16.9798 13.7056Z" fill="#1B2421"/>
<path d="M11.0895 12.4679H10.6688C10.5526 12.4679 10.4584 12.5603 10.4584 12.6742C10.4584 12.7881 10.5526 12.8804 10.6688 12.8804H11.0895C11.2057 12.8804 11.2999 12.7881 11.2999 12.6742C11.2999 12.5603 11.2057 12.4679 11.0895 12.4679Z" fill="#1B2421"/>
<path d="M16.9798 12.4679H11.9308C11.8146 12.4679 11.7204 12.5603 11.7204 12.6742C11.7204 12.7881 11.8146 12.8804 11.9308 12.8804H16.9798C17.096 12.8804 17.1902 12.7881 17.1902 12.6742C17.1902 12.5603 17.096 12.4679 16.9798 12.4679Z" fill="#1B2421"/>
<path d="M11.0895 11.2305H10.6688C10.5526 11.2305 10.4584 11.3229 10.4584 11.4368C10.4584 11.5507 10.5526 11.643 10.6688 11.643H11.0895C11.2057 11.643 11.2999 11.5507 11.2999 11.4368C11.2999 11.3229 11.2057 11.2305 11.0895 11.2305Z" fill="#1B2421"/>
<path d="M16.9798 11.2305H11.9308C11.8146 11.2305 11.7204 11.3229 11.7204 11.4368C11.7204 11.5507 11.8146 11.643 11.9308 11.643H16.9798C17.096 11.643 17.1902 11.5507 17.1902 11.4368C17.1902 11.3229 17.096 11.2305 16.9798 11.2305Z" fill="#1B2421"/>
<path d="M18.4503 10.3925C18.4493 10.3745 18.4457 10.3566 18.4396 10.3395C18.4373 10.3329 18.4356 10.3265 18.4327 10.3201C18.4224 10.2977 18.4082 10.2772 18.3906 10.2597L15.4453 7.3722C15.4275 7.35495 15.4066 7.34098 15.3837 7.33095C15.3772 7.32806 15.3707 7.32641 15.3641 7.32414C15.3465 7.31821 15.3282 7.3146 15.3097 7.31342C15.3061 7.31404 15.3021 7.31177 15.2975 7.31177H9.40695C9.29077 7.31177 9.19658 7.40412 9.19658 7.51802V8.13677H8.1447C8.02852 8.13677 7.93433 8.22912 7.93433 8.34302V19.4805C7.93433 19.5944 8.02852 19.6868 8.1447 19.6868H16.9805C17.0966 19.6868 17.1908 19.5944 17.1908 19.4805V18.4493H18.2427C18.3589 18.4493 18.4531 18.3569 18.4531 18.243V10.4055C18.4531 10.401 18.4508 10.3971 18.4503 10.3925ZM15.5078 8.01591L17.7349 10.1993H15.5078V8.01591ZM16.7701 19.2743H8.35508V8.54927H9.19658V18.243C9.19658 18.3569 9.29077 18.4493 9.40695 18.4493H16.7701V19.2743ZM18.0323 18.0368H9.61733V7.72427H15.0871V10.4055C15.0871 10.5194 15.1813 10.6118 15.2975 10.6118H18.0323V18.0368Z" fill="#1B2421"/>
<path d="M11.931 9.16809H10.6688C10.5526 9.16809 10.4584 9.26044 10.4584 9.37434V10.6118C10.4584 10.7257 10.5526 10.8181 10.6688 10.8181H11.931C12.0472 10.8181 12.1414 10.7257 12.1414 10.6118V9.37434C12.1414 9.26044 12.0472 9.16809 11.931 9.16809ZM11.7207 10.4056H10.8792V9.58059H11.7207V10.4056Z" fill="#1B2421"/>
</svg>
