<svg width="27" height="27" viewBox="0 0 27 27" fill="none" xmlns="http://www.w3.org/2000/svg">
<circle cx="13.5" cy="13.5" r="13.5" fill="#D5E3AE"/>
<path d="M19.1228 8.90057L16.9693 8.00414C16.733 7.90583 16.4621 7.90585 16.2259 8.00416L15.1919 8.43448C15.0995 8.47297 15.0558 8.57898 15.0943 8.67133C15.1328 8.76367 15.2389 8.80738 15.3313 8.76889L16.3653 8.33856C16.5128 8.27712 16.6822 8.2771 16.8299 8.33853L18.9833 9.23492C19.1928 9.32222 19.3281 9.51852 19.3281 9.73497V17.4807C19.3281 17.782 19.0692 18.027 18.751 18.027H18.4571C18.3569 18.027 18.2758 18.1081 18.2758 18.2081C18.2758 18.3082 18.3569 18.3892 18.4571 18.3892H18.751C19.2691 18.3892 19.6907 17.9817 19.6907 17.4807V9.73497C19.6907 9.37187 19.4678 9.04436 19.1228 8.90057Z" fill="#1B2421"/>
<path d="M18.5986 18.0263L14.6209 18.0263C14.7463 17.8839 14.815 17.7032 14.815 17.512C14.815 17.3211 14.7459 17.1462 14.6314 17.0106C14.7036 16.9738 14.7704 16.9257 14.8294 16.8668C14.9766 16.7196 15.0577 16.524 15.0577 16.3159C15.0577 16.1175 14.9829 15.9363 14.8603 15.7986C14.921 15.7642 14.9776 15.7216 15.0282 15.6709C15.1755 15.5238 15.2566 15.3282 15.2566 15.12C15.2566 14.9222 15.1823 14.7414 15.0603 14.6039C15.1221 14.5692 15.1796 14.5261 15.2312 14.4747C15.3783 14.3273 15.4593 14.1317 15.4593 13.9239C15.4593 13.4942 15.1096 13.1446 14.6796 13.1446H13.8668V9.73429C13.8668 9.51782 14.0022 9.32152 14.2115 9.23427L15.4442 8.73898C15.5367 8.70054 15.3614 8.70777 15.3229 8.6154C15.2844 8.52306 15.4153 8.32954 15.3229 8.36805L14.072 8.8999C13.7271 9.04366 13.5042 9.37119 13.5042 9.73429V13.1446H12.7468C12.9991 12.3483 12.9776 11.5172 12.6833 10.5526C12.6385 10.4066 12.5496 10.2814 12.426 10.1908C12.3031 10.1007 12.1574 10.0531 12.0047 10.0531C11.808 10.0531 11.6252 10.1316 11.4897 10.2741C11.3543 10.4166 11.2854 10.6031 11.2956 10.7993C11.3523 11.8883 10.8495 12.2631 10.1536 12.782C9.92454 12.9528 9.67414 13.1396 9.42805 13.3687V13.1313C9.42805 13.0313 9.34691 12.9502 9.24677 12.9502H7.49695C7.39681 12.9502 7.31567 13.0313 7.31567 13.1313V18.2681C7.31567 18.3681 7.39681 18.4492 7.49695 18.4492H9.24682C9.34696 18.4492 9.42809 18.3681 9.42809 18.2681V17.8124C9.77239 17.8451 10.0238 17.9137 10.2682 18.1008C10.4285 18.2236 10.6263 18.2912 10.8249 18.2912H14.0218C14.1524 18.3548 14.2972 18.3886 14.444 18.3886H18.5986C18.6987 18.3886 18.5986 18.2359 18.5986 18.1359C18.5986 18.0358 18.6987 18.0263 18.5986 18.0263ZM10.4887 17.8133C10.1469 17.5516 9.7816 17.4788 9.42809 17.4483V15.3335C9.42809 15.2334 9.34696 15.1524 9.24682 15.1524C9.14669 15.1524 9.06555 15.2334 9.06555 15.3335V18.087H7.67822V13.3125H9.06555V15.4149C9.06555 15.515 9.25944 16.0229 9.25944 15.3335C9.35957 15.3335 9.42809 15.771 9.42809 15.6709V13.8833C9.73133 13.5489 10.056 13.3068 10.3705 13.0723C11.0668 12.5532 11.7245 12.0628 11.6577 10.7805C11.6527 10.6845 11.6865 10.5932 11.7527 10.5235C11.819 10.4537 11.9085 10.4153 12.0048 10.4153C12.0798 10.4153 12.1513 10.4387 12.2115 10.4829C12.2717 10.527 12.3149 10.5877 12.3366 10.6585C12.6364 11.641 12.6317 12.4676 12.3218 13.2599C12.3 13.3156 12.3072 13.3785 12.341 13.4279C12.3747 13.4774 12.4308 13.5069 12.4906 13.5069H14.6797C14.9097 13.5069 15.0968 13.694 15.0968 13.924C15.0968 14.0352 15.0534 14.1399 14.9748 14.2186C14.8958 14.2974 14.791 14.3408 14.6797 14.3408H13.935C13.8349 14.3408 13.7537 14.4219 13.7537 14.5219C13.7537 14.622 13.8349 14.703 13.935 14.703H14.4769C14.7069 14.703 14.894 14.8901 14.894 15.1201C14.894 15.2315 14.8507 15.3362 14.7719 15.4149C14.6931 15.4936 14.5884 15.5369 14.4769 15.5369H13.935C13.8349 15.5369 13.7537 15.618 13.7537 15.718C13.7537 15.8181 13.8349 15.8992 13.935 15.8992H14.2779C14.508 15.8992 14.6951 16.0861 14.6951 16.316C14.6951 16.4273 14.6517 16.5321 14.573 16.6108C14.4941 16.6896 14.3893 16.733 14.2779 16.733H13.7361C13.6359 16.733 13.5548 16.8141 13.5548 16.9141C13.5548 17.0142 13.6359 17.0953 13.7361 17.0953H14.0353C14.2653 17.0953 14.4525 17.2822 14.4525 17.5121C14.4525 17.6234 14.409 17.7283 14.3305 17.8069C14.2569 17.8803 14.1406 17.9271 14.0535 17.9287C14.0475 17.9288 10.8249 17.9291 10.8249 17.9291C10.7056 17.929 10.5862 17.8879 10.4887 17.8133Z" fill="#1B2421"/>
<path d="M17.2514 9.81542C17.2514 9.43483 16.9415 9.12519 16.5606 9.12519C16.1797 9.12519 15.8698 9.43483 15.8698 9.81542C15.8698 10.196 16.1797 10.5056 16.5606 10.5056C16.9415 10.5056 17.2514 10.196 17.2514 9.81542ZM16.2323 9.81542C16.2323 9.63456 16.3796 9.48742 16.5606 9.48742C16.7416 9.48742 16.8889 9.63456 16.8889 9.81542C16.8889 9.99627 16.7416 10.1434 16.5606 10.1434C16.3796 10.1434 16.2323 9.99629 16.2323 9.81542Z" fill="#1B2421"/>
<path d="M16.6742 15.9955H16.3491C16.1779 15.9955 16.0385 15.8563 16.0385 15.6852C16.0385 15.5851 15.9574 15.504 15.8573 15.504C15.7571 15.504 15.676 15.5851 15.676 15.6852C15.676 16.0497 15.9679 16.3472 16.3304 16.3572V16.758C16.3304 16.8581 16.4115 16.9392 16.5116 16.9392C16.6118 16.9392 16.6929 16.8581 16.6929 16.758V16.3572C17.0554 16.3472 17.3473 16.0497 17.3473 15.6852V15.4344C17.3473 15.2018 17.1985 14.9972 16.9771 14.9253L16.1582 14.6596C16.0866 14.6363 16.0385 14.5702 16.0385 14.495V14.136C16.0385 13.997 16.1517 13.8839 16.2908 13.8839H16.7326C16.8716 13.8839 16.9848 13.997 16.9848 14.136C16.9848 14.236 17.0659 14.3171 17.1661 14.3171C17.2662 14.3171 17.3473 14.236 17.3473 14.136C17.3473 13.7973 17.0716 13.5217 16.7326 13.5217H16.6929V13.1214C16.6929 13.0213 16.6118 12.9402 16.5116 12.9402C16.4115 12.9402 16.3304 13.0213 16.3304 13.1214V13.5217H16.2907C15.9518 13.5217 15.676 13.7972 15.676 14.136V14.495C15.676 14.7276 15.8247 14.9322 16.0462 15.0041L16.865 15.2698C16.9366 15.2931 16.9847 15.3592 16.9847 15.4344V15.6852C16.9848 15.8563 16.8454 15.9955 16.6742 15.9955Z" fill="#1B2421"/>
</svg>
