<svg width="27" height="27" viewBox="0 0 27 27" fill="none" xmlns="http://www.w3.org/2000/svg">
<circle cx="13.5" cy="13.5" r="13.5" fill="#D5E3AE"/>
<path d="M9.37786 10.4092C9.37786 10.2867 9.34158 10.1669 9.2736 10.065C9.20562 9.96315 9.109 9.88375 8.99596 9.83686C8.88291 9.78997 8.75852 9.7777 8.63851 9.80161C8.5185 9.82551 8.40827 9.88451 8.32175 9.97115C8.23523 10.0578 8.17631 10.1682 8.15244 10.2883C8.12857 10.4085 8.14082 10.5331 8.18764 10.6463C8.23447 10.7594 8.31376 10.8562 8.4155 10.9243C8.51724 10.9923 8.63685 11.0287 8.75921 11.0287C8.92323 11.0285 9.08048 10.9632 9.19646 10.847C9.31244 10.7309 9.37768 10.5734 9.37786 10.4092ZM8.55299 10.4092C8.55299 10.3683 8.56508 10.3284 8.58774 10.2945C8.6104 10.2605 8.64261 10.234 8.68029 10.2184C8.71797 10.2028 8.75943 10.1987 8.79944 10.2067C8.83944 10.2146 8.87618 10.2343 8.90503 10.2632C8.93387 10.2921 8.95351 10.3288 8.96146 10.3689C8.96942 10.409 8.96534 10.4505 8.94973 10.4882C8.93412 10.5259 8.90769 10.5582 8.87378 10.5809C8.83986 10.6036 8.79999 10.6157 8.75921 10.6157C8.70453 10.6156 8.65212 10.5938 8.61346 10.5551C8.5748 10.5164 8.55305 10.4639 8.55299 10.4092Z" fill="#1B2421"/>
<path d="M12.8836 12.8871H8.75921C8.70451 12.8871 8.65206 12.9089 8.61339 12.9476C8.57471 12.9863 8.55299 13.0388 8.55299 13.0936C8.55299 13.1484 8.57471 13.2009 8.61339 13.2396C8.65206 13.2784 8.70451 13.3001 8.75921 13.3001H12.8836C12.9383 13.3001 12.9907 13.2784 13.0294 13.2396C13.0681 13.2009 13.0898 13.1484 13.0898 13.0936C13.0898 13.0388 13.0681 12.9863 13.0294 12.9476C12.9907 12.9089 12.9383 12.8871 12.8836 12.8871Z" fill="#1B2421"/>
<path d="M12.8836 13.7131H8.75921C8.70451 13.7131 8.65206 13.7349 8.61339 13.7736C8.57471 13.8123 8.55299 13.8648 8.55299 13.9196C8.55299 13.9744 8.57471 14.0269 8.61339 14.0656C8.65206 14.1043 8.70451 14.1261 8.75921 14.1261H12.8836C12.9383 14.1261 12.9907 14.1043 13.0294 14.0656C13.0681 14.0269 13.0898 13.9744 13.0898 13.9196C13.0898 13.8648 13.0681 13.8123 13.0294 13.7736C12.9907 13.7349 12.9383 13.7131 12.8836 13.7131Z" fill="#1B2421"/>
<path d="M12.8836 14.5391H8.75921C8.70451 14.5391 8.65206 14.5608 8.61339 14.5996C8.57471 14.6383 8.55299 14.6908 8.55299 14.7456C8.55299 14.8003 8.57471 14.8529 8.61339 14.8916C8.65206 14.9303 8.70451 14.9521 8.75921 14.9521H12.8836C12.9383 14.9521 12.9907 14.9303 13.0294 14.8916C13.0681 14.8529 13.0898 14.8003 13.0898 14.7456C13.0898 14.6908 13.0681 14.6383 13.0294 14.5996C12.9907 14.5608 12.9383 14.5391 12.8836 14.5391Z" fill="#1B2421"/>
<path d="M12.8836 15.3651H8.75921C8.70451 15.3651 8.65206 15.3868 8.61339 15.4255C8.57471 15.4643 8.55299 15.5168 8.55299 15.5716C8.55299 15.6263 8.57471 15.6788 8.61339 15.7176C8.65206 15.7563 8.70451 15.778 8.75921 15.778H12.8836C12.9383 15.778 12.9907 15.7563 13.0294 15.7176C13.0681 15.6788 13.0898 15.6263 13.0898 15.5716C13.0898 15.5168 13.0681 15.4643 13.0294 15.4255C12.9907 15.3868 12.9383 15.3651 12.8836 15.3651Z" fill="#1B2421"/>
<path d="M12.8836 16.191H8.75921C8.70451 16.191 8.65206 16.2128 8.61339 16.2515C8.57471 16.2902 8.55299 16.3428 8.55299 16.3975C8.55299 16.4523 8.57471 16.5048 8.61339 16.5435C8.65206 16.5823 8.70451 16.604 8.75921 16.604H12.8836C12.9383 16.604 12.9907 16.5823 13.0294 16.5435C13.0681 16.5048 13.0898 16.4523 13.0898 16.3975C13.0898 16.3428 13.0681 16.2902 13.0294 16.2515C12.9907 16.2128 12.9383 16.191 12.8836 16.191Z" fill="#1B2421"/>
<path d="M14.9458 16.191H14.1209C14.0662 16.191 14.0138 16.2128 13.9751 16.2515C13.9364 16.2902 13.9147 16.3428 13.9147 16.3975C13.9147 16.4523 13.9364 16.5048 13.9751 16.5435C14.0138 16.5823 14.0662 16.604 14.1209 16.604H14.9458C15.0005 16.604 15.0529 16.5823 15.0916 16.5435C15.1303 16.5048 15.152 16.4523 15.152 16.3975C15.152 16.3428 15.1303 16.2902 15.0916 16.2515C15.0529 16.2128 15.0005 16.191 14.9458 16.191Z" fill="#1B2421"/>
<path d="M12.8836 17.017H8.75921C8.70451 17.017 8.65206 17.0388 8.61339 17.0775C8.57471 17.1162 8.55299 17.1687 8.55299 17.2235C8.55299 17.2783 8.57471 17.3308 8.61339 17.3695C8.65206 17.4082 8.70451 17.43 8.75921 17.43H12.8836C12.9383 17.43 12.9907 17.4082 13.0294 17.3695C13.0681 17.3308 13.0898 17.2783 13.0898 17.2235C13.0898 17.1687 13.0681 17.1162 13.0294 17.0775C12.9907 17.0388 12.9383 17.017 12.8836 17.017Z" fill="#1B2421"/>
<path d="M14.9458 17.017H14.1209C14.0662 17.017 14.0138 17.0388 13.9751 17.0775C13.9364 17.1162 13.9147 17.1687 13.9147 17.2235C13.9147 17.2783 13.9364 17.3308 13.9751 17.3695C14.0138 17.4082 14.0662 17.43 14.1209 17.43H14.9458C15.0005 17.43 15.0529 17.4082 15.0916 17.3695C15.1303 17.3308 15.152 17.2783 15.152 17.2235C15.152 17.1687 15.1303 17.1162 15.0916 17.0775C15.0529 17.0388 15.0005 17.017 14.9458 17.017Z" fill="#1B2421"/>
<path d="M16.3898 11.0293C15.982 11.0293 15.5833 11.1504 15.2441 11.3773C14.905 11.6042 14.6407 11.9267 14.4846 12.304C14.3285 12.6814 14.2877 13.0966 14.3673 13.4971C14.4468 13.8977 14.6432 14.2656 14.9316 14.5544C15.22 14.8432 15.5875 15.0399 15.9875 15.1195C16.3875 15.1992 16.8022 15.1583 17.179 15.002C17.5558 14.8457 17.8779 14.5811 18.1045 14.2415C18.3311 13.9019 18.452 13.5027 18.452 13.0943C18.4514 12.5468 18.2339 12.0219 17.8473 11.6348C17.4607 11.2477 16.9366 11.0299 16.3898 11.0293ZM14.7401 13.0943C14.7405 12.7282 14.8622 12.3726 15.086 12.0832C15.3098 11.7937 15.6232 11.5868 15.977 11.4947V14.6938C15.6232 14.6018 15.3098 14.3948 15.086 14.1054C14.8622 13.8159 14.7405 13.4603 14.7401 13.0943ZM16.3898 14.7462H16.3895V11.4423H16.3898C16.8274 11.4423 17.247 11.6163 17.5564 11.9262C17.8658 12.236 18.0396 12.6561 18.0396 13.0943C18.0396 13.5324 17.8658 13.9526 17.5564 14.2624C17.247 14.5722 16.8274 14.7462 16.3898 14.7462Z" fill="#1B2421"/>
<path d="M19.6285 18.7968L18.6751 16.8131C18.6684 16.7867 18.6564 16.7619 18.6401 16.7402L18.2998 16.0321C18.288 16.0076 18.2715 15.9857 18.2512 15.9676C18.231 15.9495 18.2073 15.9356 18.1817 15.9266C18.156 15.9177 18.1288 15.9139 18.1017 15.9156C18.0746 15.9172 18.0481 15.9241 18.0236 15.9361L17.8383 16.0264L17.6714 15.6836C18.255 15.3942 18.7238 14.9157 19.0015 14.3259C19.2792 13.736 19.3495 13.0695 19.2011 12.4345C19.0527 11.7995 18.6942 11.2335 18.1839 10.8283C17.6736 10.4232 17.0415 10.2027 16.3903 10.2027H16.3893V7.51826C16.3893 7.4635 16.3676 7.41097 16.3289 7.37225C16.2902 7.33352 16.2378 7.31177 16.1831 7.31177H7.52189C7.4672 7.31177 7.41475 7.33352 7.37607 7.37225C7.3374 7.41097 7.31567 7.4635 7.31567 7.51826V18.4838C7.31567 18.5115 7.32125 18.539 7.33207 18.5645C7.34289 18.59 7.35873 18.6131 7.37865 18.6324L7.9973 19.2305C8.03575 19.2677 8.08711 19.2885 8.14055 19.2885C8.19399 19.2885 8.24535 19.2677 8.28379 19.2305L8.75921 18.7708L9.23462 19.2305C9.27306 19.2677 9.32442 19.2885 9.37786 19.2885C9.43131 19.2885 9.48266 19.2677 9.52111 19.2305L9.99652 18.7708L10.4719 19.2305C10.5104 19.2677 10.5617 19.2885 10.6152 19.2885C10.6686 19.2885 10.72 19.2677 10.7584 19.2305L11.2338 18.7708L11.7092 19.2305C11.7477 19.2677 11.799 19.2885 11.8525 19.2885C11.9059 19.2885 11.9573 19.2677 11.9957 19.2305L12.4711 18.7708L12.9466 19.2305C12.985 19.2677 13.0364 19.2885 13.0898 19.2885C13.1432 19.2885 13.1946 19.2677 13.233 19.2305L13.7085 18.7708L14.1839 19.2305C14.2223 19.2677 14.2737 19.2885 14.3271 19.2885C14.3806 19.2885 14.4319 19.2677 14.4704 19.2305L14.9458 18.7708L15.4212 19.2305C15.4596 19.2677 15.511 19.2885 15.5644 19.2885C15.6179 19.2885 15.6692 19.2677 15.7077 19.2305L16.3263 18.6324C16.3462 18.6131 16.3621 18.59 16.3729 18.5645C16.3837 18.539 16.3893 18.5115 16.3893 18.4838V15.9845H16.3903C16.6956 15.9848 16.999 15.9363 17.289 15.8409L17.4674 16.2074L17.2821 16.2978C17.2331 16.3217 17.1955 16.3641 17.1777 16.4157C17.1598 16.4672 17.163 16.5238 17.1867 16.573L18.5159 19.3386C18.5878 19.4863 18.7153 19.5994 18.8704 19.6529C19.0255 19.7065 19.1956 19.6961 19.3431 19.6242C19.4904 19.5523 19.6032 19.4248 19.6568 19.2697C19.7103 19.1145 19.7001 18.9445 19.6285 18.7968ZM15.9769 18.3962L15.5644 18.7949L15.089 18.3353C15.0506 18.2981 14.9992 18.2773 14.9458 18.2773C14.8923 18.2773 14.841 18.2981 14.8025 18.3353L14.3271 18.7949L13.8517 18.3353C13.8133 18.2981 13.7619 18.2773 13.7085 18.2773C13.655 18.2773 13.6037 18.2981 13.5652 18.3353L13.0898 18.7949L12.6144 18.3353C12.5759 18.2981 12.5246 18.2773 12.4711 18.2773C12.4177 18.2773 12.3663 18.2981 12.3279 18.3353L11.8525 18.7949L11.3771 18.3353C11.3386 18.2981 11.2873 18.2773 11.2338 18.2773C11.1804 18.2773 11.129 18.2981 11.0906 18.3353L10.6152 18.7949L10.1398 18.3353C10.1013 18.2981 10.05 18.2773 9.99652 18.2773C9.94308 18.2773 9.89172 18.2981 9.85327 18.3353L9.37786 18.7949L8.90245 18.3353C8.864 18.2981 8.81265 18.2773 8.75921 18.2773C8.70576 18.2773 8.65441 18.2981 8.61596 18.3353L8.14055 18.7949L7.72811 18.3962V7.72476H15.9769V10.2325C15.8353 10.2529 15.6955 10.284 15.5586 10.3254C15.5452 10.2261 15.5079 10.1315 15.45 10.0498C15.392 9.96812 15.3152 9.90172 15.226 9.85629C15.1368 9.81087 15.0379 9.7878 14.9378 9.78904C14.8378 9.79029 14.7395 9.81582 14.6515 9.86345C14.5634 9.91108 14.4882 9.97939 14.4324 10.0625C14.3765 10.1456 14.3416 10.2411 14.3306 10.3407C14.3196 10.4403 14.333 10.5411 14.3695 10.6344C14.406 10.7277 14.4645 10.8107 14.5401 10.8764C14.21 11.152 13.9457 11.4979 13.7663 11.889C13.587 12.28 13.4972 12.7063 13.5036 13.1365C13.5099 13.5668 13.6122 13.9902 13.803 14.3758C13.9938 14.7614 14.2683 15.0994 14.6063 15.3651H14.1209C14.0662 15.3651 14.0138 15.3868 13.9751 15.4255C13.9364 15.4643 13.9147 15.5168 13.9147 15.5716C13.9147 15.6263 13.9364 15.6788 13.9751 15.7176C14.0138 15.7563 14.0662 15.778 14.1209 15.778H14.9458C14.9794 15.7781 15.0126 15.7698 15.0424 15.754C15.0721 15.7382 15.0976 15.7154 15.1164 15.6874C15.3874 15.8215 15.6778 15.9117 15.9769 15.9548V18.3962ZM14.9105 10.6124C14.8685 10.605 14.8298 10.5847 14.7999 10.5543C14.7699 10.5239 14.7501 10.4849 14.7432 10.4428C14.7364 10.4007 14.7427 10.3574 14.7615 10.319C14.7802 10.2807 14.8104 10.2491 14.8478 10.2287C14.8853 10.2082 14.9282 10.2 14.9705 10.205C15.0129 10.21 15.0526 10.2281 15.0843 10.2568C15.1159 10.2854 15.1379 10.3232 15.1471 10.3649C15.1563 10.4066 15.1524 10.4501 15.1359 10.4895L15.1369 10.49C15.0595 10.5275 14.984 10.5683 14.9105 10.6124ZM16.3903 15.5716C15.9008 15.5716 15.4224 15.4262 15.0154 15.1539C14.6085 14.8817 14.2913 14.4947 14.104 14.0419C13.9167 13.5891 13.8677 13.0909 13.9632 12.6102C14.0587 12.1295 14.2943 11.688 14.6404 11.3415C14.9865 10.9949 15.4275 10.7589 15.9075 10.6633C16.3875 10.5677 16.8851 10.6168 17.3373 10.8043C17.7894 10.9919 18.1759 11.3095 18.4478 11.7169C18.7197 12.1244 18.8649 12.6035 18.8649 13.0936C18.8641 13.7506 18.6032 14.3804 18.1393 14.845C17.6753 15.3095 17.0463 15.5708 16.3903 15.5716ZM17.6472 16.5792L17.8333 16.4884H17.8337L18.018 16.3985L18.1969 16.7706L17.8261 16.9515L17.6472 16.5792ZM19.267 19.1346C19.2537 19.1731 19.2293 19.2068 19.197 19.2315C19.1646 19.2562 19.1256 19.2708 19.085 19.2734C19.0444 19.2759 19.0039 19.2664 18.9687 19.246C18.9335 19.2256 18.9051 19.1952 18.8871 19.1586L18.005 17.3234L18.3757 17.1425L19.2573 18.9768C19.2693 19.0012 19.2763 19.0276 19.2779 19.0547C19.2796 19.0818 19.2759 19.1089 19.267 19.1346Z" fill="#1B2421"/>
</svg>
