<svg width="147" height="77" viewBox="0 0 147 77" fill="none" xmlns="http://www.w3.org/2000/svg">
<g clip-path="url(#clip0_5_461)">
<g clip-path="url(#clip1_5_461)">
<g clip-path="url(#clip2_5_461)">
<path d="M76.5378 37.4434L65.2394 57.347L71.0263 60.6881L85.894 34.9364L60.2035 20.297L56.8625 26.0839L76.5378 37.4434Z" fill="#1B2421"/>
<path d="M49.3794 44.7182L38.0813 64.6217L43.8682 67.9627L58.5073 42.2724L33.0454 27.5717L29.7044 33.3586L49.3794 44.7182Z" fill="#1B2421"/>
<path d="M21.7685 52.1191L10.4699 72.0228L16.2568 75.3638L31.1244 49.6122L5.43409 34.9728L2.09302 40.7597L21.7685 52.1191Z" fill="#1B2421"/>
<path d="M131.303 22.7676L120.005 42.6712L125.792 46.0123L140.66 20.2607L114.969 5.62121L111.628 11.4081L131.303 22.7676Z" fill="#1B2421"/>
<path d="M104.145 30.0463L92.8465 49.9499L98.6334 53.291L113.273 27.6005L87.8107 12.8999L84.4696 18.6868L104.145 30.0463Z" fill="#1B2421"/>
</g>
</g>
</g>
<defs>
<clipPath id="clip0_5_461">
<rect width="140" height="42" fill="white" transform="translate(146.102 40.5703) rotate(165)"/>
</clipPath>
<clipPath id="clip1_5_461">
<rect width="140" height="42" fill="white" transform="translate(146.102 40.5703) rotate(165)"/>
</clipPath>
<clipPath id="clip2_5_461">
<rect width="140" height="42" fill="white" transform="translate(146.102 40.5703) rotate(165)"/>
</clipPath>
</defs>
</svg>
