<svg width="72" height="8" viewBox="0 0 72 8" fill="none" xmlns="http://www.w3.org/2000/svg">
<rect width="72" height="8" fill="#F5F5F5"/>
<g clip-path="url(#clip0_0_1)">
<rect width="1440" height="8925" transform="translate(-358 -605)" fill="#FDFDFD"/>
<rect width="1440" height="799" transform="translate(-358 -605)" fill="#EEEEDC"/>
<path d="M109.52 7.12C48.8133 7.12 -1.64666 -12.9867 -41.86 -53.2C-81.6867 -93.8 -101.6 -144.067 -101.6 -204C-101.6 -263.933 -81.6867 -314.007 -41.86 -354.22C-1.64666 -394.82 48.8133 -415.12 109.52 -415.12C145.867 -415.12 179.507 -406.613 210.44 -389.6C241.373 -372.973 265.733 -350.16 283.52 -321.16L203.48 -274.76C194.587 -290.613 181.827 -302.793 165.2 -311.3C148.573 -320.193 130.013 -324.64 109.52 -324.64C73.56 -324.64 44.7533 -313.62 23.1 -291.58C1.83334 -269.54 -8.79999 -240.347 -8.79999 -204C-8.79999 -167.653 1.83334 -138.46 23.1 -116.42C44.7533 -94.38 73.56 -83.36 109.52 -83.36C130.013 -83.36 148.573 -87.8067 165.2 -96.7C182.213 -105.593 194.973 -117.773 203.48 -133.24L283.52 -86.84C266.12 -57.84 241.953 -34.8333 211.02 -17.82C180.087 -1.19333 146.253 7.12 109.52 7.12ZM469.111 7.12C427.738 7.12 393.131 -1.77333 365.291 -19.56C337.838 -37.7333 318.311 -62.2867 306.711 -93.22L386.751 -139.62C402.991 -102.113 431.411 -83.36 472.011 -83.36C508.744 -83.36 527.111 -94.38 527.111 -116.42C527.111 -128.407 521.118 -137.687 509.131 -144.26C497.531 -151.22 475.491 -159.147 443.011 -168.04C425.998 -172.68 411.111 -177.9 398.351 -183.7C385.591 -189.5 373.024 -197.04 360.651 -206.32C348.664 -215.987 339.384 -227.973 332.811 -242.28C326.624 -256.587 323.531 -273.02 323.531 -291.58C323.531 -329.087 336.871 -359.053 363.551 -381.48C390.618 -403.907 422.711 -415.12 459.831 -415.12C493.084 -415.12 522.471 -407.193 547.991 -391.34C573.511 -375.873 593.618 -353.253 608.311 -323.48L530.011 -277.66C522.664 -293.127 513.578 -304.727 502.751 -312.46C491.924 -320.58 477.618 -324.64 459.831 -324.64C445.911 -324.64 435.084 -321.547 427.351 -315.36C420.004 -309.56 416.331 -302.407 416.331 -293.9C416.331 -283.847 420.971 -275.147 430.251 -267.8C439.918 -260.453 459.638 -252.333 489.411 -243.44C505.651 -238.413 518.218 -234.353 527.111 -231.26C536.004 -228.167 547.218 -222.947 560.751 -215.6C574.671 -208.64 585.111 -201.1 592.071 -192.98C599.418 -185.247 605.798 -174.807 611.211 -161.66C617.011 -148.9 619.911 -134.207 619.911 -117.58C619.911 -78.9133 605.991 -48.3667 578.151 -25.94C550.311 -3.9 513.964 7.12 469.111 7.12Z" fill="#D5E3AE"/>
<rect x="-259" y="-34" width="392" height="76" rx="38" fill="#EE3811"/>
<circle cx="73" cy="4" r="22" fill="#C43414"/>
<path d="M71.3536 4.35356C71.5488 4.1583 71.5488 3.84172 71.3536 3.64645L68.1716 0.464472C67.9763 0.26921 67.6597 0.26921 67.4645 0.464472C67.2692 0.659734 67.2692 0.976317 67.4645 1.17158L70.2929 4.00001L67.4645 6.82843C67.2692 7.0237 67.2692 7.34028 67.4645 7.53554C67.6597 7.7308 67.9763 7.7308 68.1716 7.53554L71.3536 4.35356ZM-4.37114e-08 4.5L71 4.50001L71 3.50001L4.37114e-08 3.5L-4.37114e-08 4.5Z" fill="#EEEEDC"/>
<path d="M71.3536 4.35356C71.5488 4.15829 71.5488 3.84171 71.3536 3.64645L68.1716 0.464468C67.9763 0.269205 67.6597 0.269205 67.4645 0.464468C67.2692 0.65973 67.2692 0.976312 67.4645 1.17157L70.2929 4L67.4645 6.82843C67.2692 7.02369 67.2692 7.34027 67.4645 7.53554C67.6597 7.7308 67.9763 7.7308 68.1716 7.53554L71.3536 4.35356ZM51 4.5L71 4.5L71 3.5L51 3.5L51 4.5Z" fill="#EEEEDC"/>
</g>
<defs>
<clipPath id="clip0_0_1">
<rect width="1440" height="8925" fill="white" transform="translate(-358 -605)"/>
</clipPath>
</defs>
</svg>
