<svg width="82" height="139" viewBox="0 0 82 139" fill="none" xmlns="http://www.w3.org/2000/svg">
<g clip-path="url(#clip0_5_471)">
<path d="M26.4374 72.3359L3.87065 68.5217L2.70901 75.1021L31.9916 80.2715L36.9674 51.1244L30.387 49.9627L26.4374 72.3359Z" fill="#1B2421"/>
<path d="M10.3151 49.303L-12.2514 45.4891L-13.4131 52.0695L15.7338 57.0449L20.8453 28.0918L14.2649 26.9301L10.3151 49.303Z" fill="#1B2421"/>
<path d="M-6.07416 25.8869L-28.641 22.0726L-29.8027 28.653L-0.520097 33.8223L4.45575 4.67526L-2.12465 3.5136L-6.07416 25.8869Z" fill="#1B2421"/>
<path d="M58.9492 118.789L36.3824 114.975L35.2207 121.555L64.5033 126.725L69.4791 97.5775L62.8987 96.4159L58.9492 118.789Z" fill="#1B2421"/>
<path d="M42.8268 95.7561L20.2601 91.9419L19.0984 98.5223L48.2455 103.498L53.3568 74.5446L46.7764 73.3829L42.8268 95.7561Z" fill="#1B2421"/>
</g>
<defs>
<clipPath id="clip0_5_471">
<rect width="140" height="42" fill="white" transform="translate(47.2773 138.781) rotate(-124.988)"/>
</clipPath>
</defs>
</svg>
