<svg width="44" height="44" viewBox="0 0 44 44" fill="none" xmlns="http://www.w3.org/2000/svg">
<rect width="44" height="44" fill="#F5F5F5"/>
<g clip-path="url(#clip0_0_1)">
<rect width="1440" height="8925" transform="translate(-409 -587)" fill="#FDFDFD"/>
<rect width="1440" height="799" transform="translate(-409 -587)" fill="#EEEEDC"/>
<path d="M58.52 25.12C-2.18666 25.12 -52.6467 5.01333 -92.86 -35.2C-132.687 -75.8 -152.6 -126.067 -152.6 -186C-152.6 -245.933 -132.687 -296.007 -92.86 -336.22C-52.6467 -376.82 -2.18666 -397.12 58.52 -397.12C94.8667 -397.12 128.507 -388.613 159.44 -371.6C190.373 -354.973 214.733 -332.16 232.52 -303.16L152.48 -256.76C143.587 -272.613 130.827 -284.793 114.2 -293.3C97.5733 -302.193 79.0133 -306.64 58.52 -306.64C22.56 -306.64 -6.24665 -295.62 -27.9 -273.58C-49.1667 -251.54 -59.8 -222.347 -59.8 -186C-59.8 -149.653 -49.1667 -120.46 -27.9 -98.42C-6.24665 -76.38 22.56 -65.36 58.52 -65.36C79.0133 -65.36 97.5733 -69.8067 114.2 -78.7C131.213 -87.5933 143.973 -99.7733 152.48 -115.24L232.52 -68.84C215.12 -39.84 190.953 -16.8333 160.02 0.179999C129.087 16.8067 95.2533 25.12 58.52 25.12ZM418.111 25.12C376.738 25.12 342.131 16.2267 314.291 -1.56C286.838 -19.7333 267.311 -44.2867 255.711 -75.22L335.751 -121.62C351.991 -84.1133 380.411 -65.36 421.011 -65.36C457.744 -65.36 476.111 -76.38 476.111 -98.42C476.111 -110.407 470.118 -119.687 458.131 -126.26C446.531 -133.22 424.491 -141.147 392.011 -150.04C374.998 -154.68 360.111 -159.9 347.351 -165.7C334.591 -171.5 322.024 -179.04 309.651 -188.32C297.664 -197.987 288.384 -209.973 281.811 -224.28C275.624 -238.587 272.531 -255.02 272.531 -273.58C272.531 -311.087 285.871 -341.053 312.551 -363.48C339.618 -385.907 371.711 -397.12 408.831 -397.12C442.084 -397.12 471.471 -389.193 496.991 -373.34C522.511 -357.873 542.618 -335.253 557.311 -305.48L479.011 -259.66C471.664 -275.127 462.578 -286.727 451.751 -294.46C440.924 -302.58 426.618 -306.64 408.831 -306.64C394.911 -306.64 384.084 -303.547 376.351 -297.36C369.004 -291.56 365.331 -284.407 365.331 -275.9C365.331 -265.847 369.971 -257.147 379.251 -249.8C388.918 -242.453 408.638 -234.333 438.411 -225.44C454.651 -220.413 467.218 -216.353 476.111 -213.26C485.004 -210.167 496.218 -204.947 509.751 -197.6C523.671 -190.64 534.111 -183.1 541.071 -174.98C548.418 -167.247 554.798 -156.807 560.211 -143.66C566.011 -130.9 568.911 -116.207 568.911 -99.58C568.911 -60.9133 554.991 -30.3667 527.151 -7.94C499.311 14.1 462.964 25.12 418.111 25.12Z" fill="#D5E3AE"/>
<rect x="-310" y="-16" width="392" height="76" rx="38" fill="#EE3811"/>
<circle cx="22" cy="22" r="22" fill="#C43414"/>
<path d="M20.3536 22.3536C20.5488 22.1583 20.5488 21.8417 20.3536 21.6465L17.1716 18.4645C16.9763 18.2692 16.6597 18.2692 16.4645 18.4645C16.2692 18.6597 16.2692 18.9763 16.4645 19.1716L19.2929 22L16.4645 24.8284C16.2692 25.0237 16.2692 25.3403 16.4645 25.5355C16.6597 25.7308 16.9763 25.7308 17.1716 25.5355L20.3536 22.3536ZM-51 22.5L20 22.5L20 21.5L-51 21.5L-51 22.5Z" fill="#EEEEDC"/>
<path d="M20.3536 22.3536C20.5488 22.1583 20.5488 21.8417 20.3536 21.6464L17.1716 18.4645C16.9763 18.2692 16.6597 18.2692 16.4645 18.4645C16.2692 18.6597 16.2692 18.9763 16.4645 19.1716L19.2929 22L16.4645 24.8284C16.2692 25.0237 16.2692 25.3403 16.4645 25.5355C16.6597 25.7308 16.9763 25.7308 17.1716 25.5355L20.3536 22.3536ZM-4.37114e-08 22.5L20 22.5L20 21.5L4.37114e-08 21.5L-4.37114e-08 22.5Z" fill="#EEEEDC"/>
</g>
<defs>
<clipPath id="clip0_0_1">
<rect width="1440" height="8925" fill="white" transform="translate(-409 -587)"/>
</clipPath>
</defs>
</svg>
