<svg width="124" height="60" viewBox="0 0 124 60" fill="none" xmlns="http://www.w3.org/2000/svg">
<g clip-path="url(#clip0_5_88)">
<g clip-path="url(#clip1_5_88)">
<path d="M77.3164 38.1003C88.3071 38.0801 99.6835 38.0801 110.801 38.1844" stroke="#95754A" stroke-width="2.64836" stroke-miterlimit="10" stroke-linecap="round"/>
<path d="M50.4571 6.59409C51.3721 5.75195 52.1142 5.0645 52.8613 4.38249C53.8208 3.50655 54.7677 2.61577 55.7517 1.76819C56.4231 1.19 57.174 0.735622 58.1188 0.78039C58.6672 0.806373 59.1399 0.981844 59.3576 1.52864C59.5758 2.07662 59.4938 2.60263 59.0989 3.05183C58.6917 3.51488 58.157 3.80374 57.6107 4.06504C56.058 4.80761 54.4836 5.50733 52.9543 6.29471C52.2036 6.68121 51.4696 6.61349 50.4571 6.59409Z" fill="#192421"/>
<path d="M29.1016 23.5221C27.275 24.9948 25.3226 25.9007 23.121 26.1492C18.6012 26.6594 14.5395 25.7587 11.6948 21.8826C9.41668 18.7786 9.10603 15.1986 9.71153 11.517C10.2431 8.28499 11.6989 5.52206 14.4612 3.65831C18.2679 1.08986 22.337 0.849981 26.5358 2.66038C27.121 2.91272 27.6776 3.23495 28.2342 3.54834C28.523 3.71091 28.6747 3.67217 28.759 3.34339C28.8507 2.98674 28.9908 2.64125 29.0644 2.28161C29.141 1.90734 29.3598 1.83708 29.6989 1.84275C30.1147 1.84968 30.0962 2.13581 30.1064 2.40017C30.1855 4.44008 30.2586 6.4802 30.3311 8.52035C30.3399 8.76776 30.3657 9.05621 29.9957 9.04164C29.6613 9.02858 29.258 9.22102 29.0947 8.67344C28.7764 7.60667 28.3057 6.60769 27.5698 5.7538C23.9966 1.60828 17.352 2.48336 14.9931 7.41549C13.8372 9.83218 13.5888 12.4128 13.6896 15.0436C13.7482 16.5714 13.9662 18.0751 14.4944 19.5254C15.9349 23.4815 19.0912 24.9298 22.9373 24.5419C26.4412 24.1883 28.3968 22.0213 29.4357 18.8391C29.55 18.4889 29.5984 18.157 30.1242 18.1499C30.7081 18.1418 30.9436 18.2673 30.9311 18.9149C30.8902 21.0296 30.9215 23.1456 30.9088 25.261C30.9071 25.534 31.088 25.9351 30.5423 25.9709C30.0777 26.0015 29.7508 25.9409 29.641 25.3847C29.5228 24.787 29.3053 24.2088 29.1016 23.5221Z" fill="#192421"/>
<path d="M92.6973 16.0588C91.0483 16.0444 89.3992 16.0423 87.7507 16.0051C87.3243 15.9954 87.1253 16.1067 87.0893 16.5547C86.9368 18.4543 87.128 20.2964 88.0737 21.9837C89.6173 24.7389 92.9454 25.5189 95.577 23.7581C96.0237 23.4591 96.4659 23.1231 96.8208 22.7242C97.2234 22.2711 97.4838 22.3453 97.8713 22.7317C98.1777 23.0382 98.235 23.2136 97.9181 23.5622C94.8743 26.9138 89.4919 27.2774 86.1268 24.3041C84.1408 22.5495 83.4549 20.23 83.4895 17.6701C83.5459 13.4959 85.957 10.3288 89.7965 9.33836C91.3008 8.95038 92.8244 8.95126 94.3269 9.33174C97.0362 10.0181 98.8353 12.7429 98.4796 15.5213C98.4098 16.0721 98.0673 16.1099 97.6436 16.1051C95.9945 16.0865 94.3464 16.0733 92.6973 16.0588ZM91.02 14.5852V14.5636C92.0767 14.5733 93.1334 14.5865 94.1892 14.5913C94.7957 14.594 95.0676 14.2973 95.0676 13.678C95.0685 12.2772 94.2775 11.1699 92.9322 10.7522C90.4365 9.97803 88.0319 11.4687 87.5163 14.0915C87.4397 14.4809 87.5849 14.5606 87.9245 14.5604C88.9561 14.5599 89.9881 14.5758 91.02 14.5852Z" fill="#192421"/>
<path d="M53.6769 16.0454C52.0279 16.046 50.3788 16.0592 48.7302 16.037C48.3037 16.0313 48.1057 16.1444 48.0738 16.5928C47.9388 18.4936 48.1469 20.3339 49.108 22.0125C50.6772 24.7534 54.0125 25.5027 56.6275 23.7179C57.0715 23.4148 57.5107 23.0747 57.8614 22.6725C58.2598 22.2158 58.5214 22.2876 58.9119 22.6704C59.2216 22.9741 59.2799 23.1489 58.9666 23.5003C55.9535 26.8799 50.5748 27.2929 47.1826 24.3506C45.1807 22.6144 44.4734 20.3013 44.4845 17.7411C44.5025 13.5666 46.8844 10.3775 50.7147 9.35184C52.2151 8.95009 53.739 8.93685 55.2444 9.30355C57.96 9.96494 59.7841 12.6731 59.4544 15.4547C59.3891 16.006 59.0472 16.0471 58.6236 16.0461C56.9747 16.0427 55.3257 16.0447 53.6769 16.0454ZM51.9864 14.5872V14.5656C53.0428 14.5656 54.0992 14.5691 55.1555 14.5642C55.7616 14.5613 56.0308 14.2621 56.0255 13.6428C56.0135 12.2421 55.2125 11.142 53.8629 10.7368C51.3609 9.98551 48.9696 11.4983 48.4781 14.1258C48.4052 14.5159 48.5511 14.5941 48.8906 14.5908C49.9225 14.5808 50.9545 14.5872 51.9864 14.5872Z" fill="#192421"/>
<path d="M73.0056 22.5797C73.1124 22.4078 73.19 22.3137 73.235 22.206C74.363 19.5107 75.4944 16.8169 76.6073 14.1153C76.8692 13.4796 77.057 12.8144 77.1173 12.1228C77.222 10.9224 76.9889 10.5953 75.8124 10.4841C75.335 10.439 75.1151 10.341 75.1486 9.8059C75.1853 9.21682 75.5889 9.38349 75.8906 9.38102C77.4895 9.36795 79.0886 9.3668 80.6875 9.38278C80.9577 9.38552 81.3732 9.20163 81.391 9.75276C81.4034 10.1376 81.4141 10.4355 80.9023 10.5609C79.9758 10.7878 79.5407 11.5584 79.1952 12.3639C77.956 15.252 76.7324 18.1468 75.4952 21.0356C74.8184 22.6157 74.0791 24.1709 73.4608 25.7732C73.1552 26.565 72.5748 26.2734 72.0614 26.3438C71.5767 26.4104 71.3229 26.2291 71.1322 25.753C69.4059 21.4454 67.6511 17.1492 65.9028 12.8504C65.7919 12.5777 65.6687 12.3097 65.5454 12.0424C65.138 11.1588 64.5317 10.53 63.4882 10.5056C63.0234 10.4948 62.9411 10.2542 62.9414 9.84218C62.9418 9.34138 63.2498 9.37422 63.5784 9.3744C65.9401 9.37563 68.3017 9.37598 70.6632 9.37387C70.9951 9.3736 71.3017 9.34597 71.3038 9.8421C71.3055 10.2558 71.2143 10.441 70.7498 10.493C69.1641 10.6706 68.8295 11.0939 69.3406 12.5839C70.4636 15.8577 71.6825 19.0986 72.8644 22.3521C72.8888 22.4192 72.9405 22.4763 73.0056 22.5797Z" fill="#192421"/>
<path d="M39.3136 11.5389C39.314 14.7349 39.313 17.9309 39.315 21.1269C39.3153 21.5693 39.3173 22.0124 39.3401 22.454C39.4263 24.1302 39.858 24.6102 41.5141 24.8556C41.8407 24.9039 42.1349 24.8842 42.1249 25.371C42.1161 25.8026 42.0085 25.9854 41.5437 25.9824C39.0341 25.9662 36.5244 25.9719 34.0147 25.978C33.6529 25.9789 33.4005 25.9393 33.4156 25.4689C33.4277 25.097 33.4851 24.9243 33.9212 24.8601C35.8837 24.5708 36.3512 24.062 36.3585 22.0524C36.3791 16.398 36.3573 10.7436 36.3516 5.08927C36.3515 4.991 36.3458 4.89268 36.3408 4.79448C36.2298 2.60413 36.0296 2.3886 33.8626 2.18699C33.5934 2.16196 33.3657 2.1517 33.3885 1.79725C33.408 1.4953 33.2817 1.13151 33.7519 1.04049C35.4891 0.704208 37.2262 0.366895 38.9616 0.0210468C39.2412 -0.0346848 39.3124 0.0889827 39.3103 0.328337C39.3082 0.549555 39.3131 0.770829 39.3131 0.992081C39.3133 4.50768 39.3133 8.02336 39.3136 11.5389Z" fill="#192421"/>
<path d="M107.483 13.1668C107.964 12.2178 108.536 11.3369 109.333 10.6295C110.496 9.59865 111.79 8.90628 113.408 9.09846C114.143 9.18568 114.712 9.52935 114.971 10.261C115.338 11.2962 114.798 12.1954 113.714 12.3947C112.943 12.5366 112.266 12.3026 111.597 11.9495C110.76 11.5071 110.234 11.5855 109.54 12.2472C108.583 13.1602 108.074 14.3313 107.741 15.5768C107.072 18.0834 107.178 20.6457 107.318 23.1966C107.38 24.318 107.802 24.611 109.125 24.8265C109.438 24.8775 109.817 24.7917 109.81 25.3517C109.805 25.8294 109.666 25.9865 109.187 25.9829C106.827 25.9651 104.465 25.9743 102.105 25.9757C101.773 25.9759 101.475 25.9959 101.46 25.5042C101.446 25.0338 101.609 24.9009 102.073 24.8456C103.633 24.6597 104.016 24.3466 104.085 22.7644C104.221 19.6485 104.282 16.5252 104.018 13.4113C103.91 12.1315 103.537 11.8454 102.241 11.7214C101.843 11.6833 101.304 11.8317 101.364 11.082C101.392 10.7236 101.497 10.5535 101.843 10.4813C103.358 10.1653 104.876 9.85589 106.381 9.49933C106.865 9.38475 106.923 9.60553 106.962 9.97118C107.07 11.0159 107.192 12.0591 107.31 13.103L107.483 13.1668Z" fill="#192421"/>
<path d="M75.5424 59.8493C74.6961 59.8496 73.8497 59.8559 73.0035 59.8446C72.8128 59.8421 72.5284 59.94 72.4789 59.6449C72.4291 59.3476 72.6875 59.3233 72.9017 59.3155C73.7728 59.2834 74.0121 58.7538 74.0081 57.9822C73.9967 55.8379 73.9998 53.6936 74.0071 51.5493C74.0095 50.8569 73.9088 50.2627 73.039 50.2041C72.8726 50.1929 72.7479 50.0992 72.7503 49.9212C72.754 49.6496 72.9796 49.6761 73.1462 49.6816C74.985 49.7426 76.8373 49.4801 78.6624 49.8334C81.2885 50.3418 83.0645 52.6779 82.8459 55.2695C82.6183 57.9687 80.6304 59.7804 77.8093 59.8465C77.0541 59.8641 76.2981 59.8491 75.5424 59.8493ZM75.4247 54.3635H75.4275C75.4275 55.4812 75.4299 56.599 75.4266 57.7168C75.4247 58.3237 75.6862 58.7551 76.2467 59.0031C77.6017 59.6027 79.7281 59.0152 80.4338 57.7197C81.4614 55.8331 81.4031 53.8709 80.3875 52.0004C79.4574 50.2875 77.7764 50.2709 76.1018 50.3083C75.5995 50.3195 75.4063 50.5046 75.4172 51.0103C75.4413 52.1276 75.4247 53.2457 75.4247 54.3635Z" fill="#192421"/>
<path d="M56.7886 51.2466C56.7763 50.6757 56.5349 50.2516 55.8848 50.2098C55.6621 50.1955 55.4342 50.1594 55.4731 49.8648C55.5076 49.6034 55.7485 49.6811 55.9082 49.6799C57.0575 49.6713 58.2068 49.6691 59.356 49.6815C59.5313 49.6834 59.8245 49.5648 59.8232 49.9213C59.8223 50.1637 59.6282 50.1946 59.4404 50.203C58.7849 50.2323 58.5662 50.6514 58.5254 51.2256C58.3877 53.1564 58.3469 55.0921 58.5223 57.0183C58.6557 58.4835 59.4425 59.109 60.9505 59.143C62.5716 59.1795 63.4806 58.5679 63.6654 57.1038C63.9116 55.1532 63.8633 53.1863 63.6489 51.2293C63.5823 50.6211 63.2758 50.2191 62.6056 50.1951C62.4203 50.1885 62.2182 50.1473 62.2249 49.9081C62.2323 49.644 62.4644 49.6821 62.6317 49.6808C63.5995 49.674 64.5673 49.6736 65.5351 49.6802C65.7011 49.6814 65.93 49.6283 65.971 49.8764C66.0107 50.1153 65.8232 50.1847 65.632 50.1958C64.8746 50.2395 64.7191 50.793 64.6341 51.385C64.5828 51.7423 64.5699 52.1073 64.5666 52.469C64.5563 53.5871 64.5644 54.7053 64.5554 55.8233C64.527 59.3206 61.9484 61.0034 58.6787 59.6683C57.5761 59.2181 57.029 58.353 56.9438 57.2233C56.8712 56.2624 56.8108 52.2723 56.7886 51.2466Z" fill="#192421"/>
<path d="M31.6602 49.4688C31.7338 50.4809 31.7898 51.1923 31.8339 51.9045C31.8445 52.0757 31.8777 52.2935 31.621 52.3253C31.3935 52.3535 31.3282 52.1692 31.2507 52.0001C31.1373 51.7533 31.0229 51.5045 30.881 51.2738C30.5297 50.7031 30.0213 50.3463 29.3532 50.245C28.4237 50.1039 27.6077 50.4691 27.3499 51.1279C27.0486 51.898 27.3404 52.6297 28.2581 53.1563C29.1212 53.6517 30.0481 54.0363 30.9123 54.53C32.347 55.3498 32.8021 56.2246 32.5652 57.5401C32.347 58.7517 31.3451 59.6154 29.8881 59.8978C28.9636 60.0769 28.0722 60.012 27.2439 59.5721C26.7618 59.3162 26.3333 58.9608 25.7634 59.6361C25.7109 58.7794 25.6577 57.9228 25.6063 57.0662C25.5986 56.9364 25.6417 56.8042 25.7759 56.7902C26.1322 56.753 26.1094 57.0792 26.1926 57.2804C26.7782 58.6968 27.7309 59.3457 29.185 59.3029C30.1756 59.2737 30.9052 58.8065 31.1053 58.0733C31.3378 57.2216 31.0181 56.5342 30.0528 55.9973C29.2619 55.5574 28.4153 55.2173 27.6251 54.7761C26.0523 53.8979 25.5593 52.4728 26.2904 51.0481C26.996 49.6731 28.8048 49.1114 30.2972 49.8562C30.7804 50.0973 31.1826 50.3603 31.6602 49.4688Z" fill="#192421"/>
<path d="M44.208 49.674C45.5996 49.6742 46.9919 49.702 48.3823 49.6612C48.9773 49.6437 49.1843 49.8432 49.1603 50.4231C49.1416 50.8733 49.2183 51.3269 49.2424 51.7795C49.2523 51.965 49.2316 52.1551 48.9813 52.1684C48.7854 52.1788 48.7595 52.0154 48.6963 51.8786C47.9918 50.352 47.2487 49.9734 45.5883 50.2546C45.1676 50.3259 44.9428 50.4983 44.9451 50.9581C44.9574 53.3156 44.9448 55.6733 44.9614 58.0308C44.967 58.821 45.4048 59.2513 46.1976 59.3107C46.4195 59.3273 46.6522 59.3563 46.6015 59.6575C46.5594 59.9073 46.3244 59.8448 46.1592 59.8455C44.8283 59.8518 43.4971 59.8537 42.1662 59.8433C41.9851 59.8418 41.6975 59.9398 41.699 59.5924C41.7001 59.3457 41.9032 59.3276 42.087 59.3182C43.1176 59.2652 43.3812 58.6166 43.3765 57.7161C43.3652 55.5399 43.3538 53.3633 43.3874 51.1875C43.3986 50.4652 43.0996 50.1992 42.4216 50.2336C42.0293 50.2536 41.6339 50.2296 41.243 50.2623C40.3933 50.3333 39.8359 50.7559 39.6774 51.6296C39.6374 51.8504 39.6975 52.1866 39.3409 52.1564C39.0447 52.1313 39.1445 51.8329 39.1307 51.6412C39.0362 50.3298 39.6397 49.6741 40.9409 49.6739C42.03 49.6738 43.119 49.6738 44.208 49.674Z" fill="#192421"/>
<path d="M94.4444 54.9809C95.2072 53.6344 95.8931 52.4655 96.534 51.2729C96.7706 50.8329 96.948 50.3251 96.1606 50.187C95.9964 50.1581 95.8984 50.0283 95.9346 49.8557C95.9761 49.6559 96.1588 49.6816 96.3009 49.6804C97.0266 49.6743 97.7531 49.6742 98.4796 49.6802C98.6209 49.6813 98.8019 49.653 98.8486 49.8498C98.9025 50.0801 98.7551 50.1671 98.5591 50.2186C98.0162 50.3618 97.7099 50.787 97.4406 51.2245C96.5861 52.615 95.6636 53.9743 94.9379 55.4304C94.4162 56.4777 94.6254 57.6734 94.8761 58.7944C94.9767 59.2431 95.4243 59.3032 95.8322 59.3354C95.9999 59.3488 96.1191 59.4449 96.1147 59.6223C96.1085 59.8263 95.939 59.8416 95.7898 59.8419C94.5786 59.844 93.3683 59.8423 92.158 59.8372C92.0388 59.8368 91.9108 59.8121 91.887 59.6601C91.8579 59.4779 91.9567 59.3527 92.1245 59.3459C93.3374 59.2966 93.2209 58.4079 93.295 57.5851C93.4027 56.3923 93.1397 55.3438 92.4546 54.3436C91.7899 53.3735 91.2567 52.3136 90.6529 51.3013C90.358 50.8076 90.0587 50.3026 89.4099 50.1998C89.2501 50.1745 89.1142 50.107 89.1133 49.9214C89.1124 49.6414 89.3402 49.6821 89.5052 49.6811C90.6246 49.6746 91.7449 49.6759 92.8651 49.6815C93.0055 49.6822 93.1873 49.6659 93.2129 49.8725C93.2438 50.1204 93.0593 50.1805 92.8713 50.1893C91.8517 50.2375 91.9965 50.7857 92.3531 51.4048C93.0117 52.547 93.6835 53.6813 94.4444 54.9809Z" fill="#192421"/>
<path d="M53.4122 35.8872C53.4589 34.6749 54.8486 33.628 56.6327 33.8131C57.5548 33.9088 58.3767 34.2179 58.9347 34.6703C58.535 34.0802 58.2955 33.2457 58.2714 32.3297C58.2243 30.5366 59.3752 29.2319 60.5875 29.2786C61.3514 29.308 62.0867 29.863 62.4565 30.7206C62.8876 29.8735 63.6744 29.3628 64.4487 29.3927C65.6611 29.4395 66.708 30.8291 66.5228 32.6132C66.4271 33.5353 66.1179 34.3571 65.6656 34.9151C66.2556 34.5156 67.0901 34.276 68.0062 34.252C69.7992 34.2049 71.1041 35.3557 71.0573 36.5681C71.0278 37.3319 70.473 38.0671 69.6153 38.4369C70.4625 38.8682 70.9731 39.6549 70.9432 40.4292C70.8964 41.6415 69.5067 42.6885 67.7226 42.5033C66.8006 42.4076 65.9787 42.0985 65.4207 41.646C65.8203 42.2362 66.0598 43.0707 66.0839 43.9866C66.1311 45.7798 64.9802 47.0846 63.7678 47.0378C63.004 47.0083 62.2687 46.4534 61.8989 45.5959C61.4677 46.4429 60.681 46.9536 59.9066 46.9237C58.6943 46.8769 57.6474 45.4873 57.8326 43.7032C57.9283 42.7811 58.2375 41.9592 58.6898 41.4012C58.0997 41.8008 57.2652 42.0404 56.3492 42.0645C54.5562 42.1116 53.2513 40.9606 53.2981 39.7484C53.3276 38.9845 53.8824 38.2492 54.74 37.8794C53.893 37.4483 53.3823 36.6615 53.4122 35.8872ZM60.7655 39.1662C60.6522 39.3033 60.4314 39.4061 60.2932 39.492C60.1327 39.5916 59.9696 39.6821 59.8046 39.7633C59.4746 39.9256 59.1392 40.0744 58.7986 40.1355C58.1366 40.2542 57.4994 40.2067 57.031 39.8229C56.6407 39.5032 56.4325 39.0167 56.4172 38.503C56.4067 38.1523 56.4945 37.7645 56.7681 37.4744C57.2446 36.9691 58.1885 36.4114 58.7478 36.555C61.9088 37.3668 64.3113 42.0659 67.2496 40.6361C68.7056 39.9277 69.2055 38.2553 68.9539 37.002C68.7122 35.7967 67.6699 35.1601 66.6072 35.2041C65.5685 35.2469 64.4712 35.8534 63.6615 36.8318L63.6579 36.8362C63.7712 36.6991 63.992 36.5962 64.1302 36.5103C64.2906 36.4107 64.4538 36.3202 64.6188 36.2391C64.9488 36.0767 65.2842 35.9279 65.6247 35.8669C66.2869 35.7481 66.9239 35.7955 67.3924 36.1795C67.7827 36.4992 67.9909 36.9857 68.0062 37.4993C68.0167 37.8501 67.9289 38.2379 67.6554 38.5279C67.1788 39.0332 66.1816 39.5285 65.0664 39.1568C61.9055 38.345 60.1121 33.9365 57.1737 35.3662C55.7177 36.0746 55.2179 37.747 55.4694 39.0003C55.7113 40.2057 56.7535 40.8422 57.8161 40.7983C58.8549 40.7554 59.9522 40.1489 60.7619 39.1704L60.7655 39.1662Z" fill="#192421"/>
<path d="M14.2109 38.1237C25.2014 38.1036 36.5777 38.1036 47.6954 38.2078" stroke="#95754A" stroke-width="2.64836" stroke-miterlimit="10" stroke-linecap="round"/>
</g>
</g>
<defs>
<clipPath id="clip0_5_88">
<rect width="124" height="60" fill="white"/>
</clipPath>
<clipPath id="clip1_5_88">
<rect width="124" height="60" fill="white"/>
</clipPath>
</defs>
</svg>
