<svg width="71" height="40" viewBox="0 0 71 40" fill="none" xmlns="http://www.w3.org/2000/svg">
<path d="M45.0273 25.2726C52.3187 25.2592 59.8659 25.2592 67.2416 25.3283" stroke="#95754A" stroke-width="2.64836" stroke-miterlimit="10" stroke-linecap="round"/>
<path d="M27.211 4.37061C27.818 3.81192 28.3103 3.35586 28.806 2.90341C29.4425 2.3223 30.0707 1.73135 30.7235 1.16906C31.1689 0.785477 31.667 0.48404 32.2938 0.51374C32.6576 0.530977 32.9713 0.647386 33.1157 1.01014C33.2604 1.37367 33.206 1.72263 32.944 2.02063C32.6739 2.32783 32.3192 2.51946 31.9567 2.69281C30.9267 3.18544 29.8822 3.64964 28.8676 4.172C28.3696 4.42841 27.8827 4.38348 27.211 4.37061Z" fill="#192421"/>
<path d="M13.0428 15.6005C11.831 16.5775 10.5358 17.1785 9.07516 17.3434C6.07669 17.6818 3.38212 17.0843 1.49492 14.5129C-0.016402 12.4536 -0.222492 10.0786 0.179205 7.6362C0.531824 5.49207 1.49762 3.65911 3.33017 2.42268C5.85561 0.718745 8.5551 0.559605 11.3406 1.76064C11.7289 1.92805 12.0981 2.14182 12.4674 2.34972C12.6589 2.45758 12.7595 2.43187 12.8155 2.21376C12.8763 1.97715 12.9693 1.74795 13.0181 1.50937C13.0689 1.26107 13.2141 1.21446 13.4391 1.21822C13.7149 1.22282 13.7026 1.41264 13.7094 1.58802C13.7618 2.94131 13.8104 4.29475 13.8584 5.64821C13.8643 5.81234 13.8814 6.0037 13.636 5.99404C13.4141 5.98537 13.1465 6.11304 13.0382 5.74977C12.8271 5.04206 12.5148 4.37933 12.0265 3.81285C9.65606 1.06267 5.24794 1.6432 3.68303 4.91523C2.91624 6.51849 2.75144 8.23052 2.81832 9.97581C2.85714 10.9893 3.0018 11.9869 3.35219 12.9491C4.30786 15.5736 6.40179 16.5344 8.95334 16.277C11.2778 16.0425 12.5752 14.6049 13.2644 12.4938C13.3403 12.2615 13.3724 12.0413 13.7212 12.0365C14.1086 12.0312 14.2648 12.1144 14.2565 12.5441C14.2293 13.947 14.2501 15.3508 14.2417 16.7541C14.2406 16.9353 14.3606 17.2013 13.9985 17.2251C13.6903 17.2454 13.4734 17.2052 13.4006 16.8362C13.3222 16.4397 13.1779 16.0561 13.0428 15.6005Z" fill="#192421"/>
<path d="M55.2344 10.6479C54.1404 10.6383 53.0464 10.6369 51.9528 10.6122C51.6698 10.6058 51.5378 10.6796 51.5139 10.9769C51.4128 12.2371 51.5396 13.4591 52.167 14.5785C53.191 16.4064 55.3989 16.9238 57.1448 15.7557C57.4411 15.5573 57.7345 15.3344 57.9699 15.0698C58.237 14.7692 58.4098 14.8184 58.6669 15.0748C58.8701 15.2781 58.9082 15.3945 58.6979 15.6257C56.6786 17.8492 53.1079 18.0904 50.8754 16.1179C49.5579 14.9539 49.1029 13.4151 49.1258 11.7168C49.1632 8.94764 50.7628 6.84651 53.3099 6.18947C54.3079 5.93208 55.3187 5.93266 56.3155 6.18508C58.1128 6.64042 59.3064 8.44809 59.0704 10.2913C59.0241 10.6567 58.7969 10.6818 58.5158 10.6786C57.4218 10.6662 56.3284 10.6575 55.2344 10.6479ZM54.1216 9.67028V9.65593C54.8227 9.66237 55.5237 9.67116 56.2241 9.67432C56.6265 9.67613 56.8068 9.4793 56.8068 9.06841C56.8074 8.13916 56.2827 7.40452 55.3902 7.12745C53.7345 6.61383 52.1393 7.60276 51.7972 9.34278C51.7464 9.60111 51.8427 9.65394 52.068 9.65382C52.7524 9.65347 53.437 9.66401 54.1216 9.67028Z" fill="#192421"/>
<path d="M29.3445 10.6403C28.2506 10.6407 27.1565 10.6494 26.0628 10.6347C25.7799 10.6309 25.6485 10.706 25.6274 11.0034C25.5378 12.2644 25.6759 13.4853 26.3135 14.5989C27.3545 16.4172 29.5672 16.9143 31.302 15.7303C31.5965 15.5292 31.8879 15.3035 32.1205 15.0368C32.3849 14.7338 32.5584 14.7814 32.8174 15.0354C33.0229 15.2368 33.0616 15.3528 32.8538 15.5859C30.8548 17.828 27.2866 18.102 25.0361 16.15C23.708 14.9982 23.2388 13.4637 23.2462 11.7652C23.2581 8.99581 24.8383 6.8801 27.3793 6.19969C28.3748 5.93316 29.3857 5.92438 30.3844 6.16765C32.1859 6.60642 33.3961 8.40308 33.1774 10.2484C33.134 10.6141 32.9072 10.6414 32.6262 10.6407C31.5323 10.6384 30.4384 10.6398 29.3445 10.6403ZM28.223 9.67288V9.65853C28.9239 9.65853 29.6247 9.66088 30.3254 9.6576C30.7275 9.65572 30.9061 9.45719 30.9026 9.04635C30.8946 8.11711 30.3632 7.38733 29.4679 7.11851C27.808 6.62007 26.2216 7.6237 25.8956 9.36676C25.8472 9.62556 25.944 9.67745 26.1692 9.67528C26.8538 9.66867 27.5385 9.67288 28.223 9.67288Z" fill="#192421"/>
<path d="M42.1689 14.9762C42.2397 14.8622 42.2912 14.7998 42.3211 14.7283C43.0694 12.9402 43.82 11.1531 44.5583 9.36085C44.732 8.93913 44.8566 8.49784 44.8966 8.03898C44.9661 7.24262 44.8115 7.02563 44.031 6.9519C43.7142 6.92197 43.5684 6.85691 43.5905 6.50195C43.6149 6.11114 43.8827 6.22171 44.0828 6.22007C45.1436 6.21141 46.2044 6.21064 47.2651 6.22124C47.4444 6.22306 47.72 6.10107 47.7319 6.46669C47.7401 6.72197 47.7471 6.91963 47.4076 7.00279C46.793 7.15336 46.5043 7.66458 46.2751 8.19892C45.453 10.1149 44.6413 12.0354 43.8205 13.9519C43.3715 15.0001 42.881 16.0319 42.4708 17.0948C42.2682 17.6201 41.8831 17.4266 41.5425 17.4734C41.221 17.5175 41.0526 17.3972 40.926 17.0814C39.7808 14.2237 38.6166 11.3736 37.4568 8.52167C37.3833 8.34077 37.3015 8.16302 37.2197 7.98563C36.9495 7.39945 36.5472 6.9823 35.8549 6.96613C35.5466 6.95899 35.492 6.79934 35.4922 6.52602C35.4924 6.19378 35.6968 6.21556 35.9148 6.21568C37.4815 6.2165 39.0483 6.21674 40.6149 6.21533C40.8351 6.21515 41.0385 6.19682 41.0399 6.52596C41.041 6.80039 40.9805 6.92326 40.6724 6.95776C39.6204 7.07559 39.3984 7.35641 39.7375 8.34487C40.4825 10.5167 41.2911 12.6668 42.0752 14.8253C42.0914 14.8698 42.1257 14.9077 42.1689 14.9762Z" fill="#192421"/>
<path d="M19.8187 7.64986C19.8189 9.77009 19.8183 11.8904 19.8196 14.0106C19.8198 14.3041 19.8212 14.5981 19.8363 14.8911C19.8934 16.003 20.1798 16.3215 21.2785 16.4843C21.4952 16.5164 21.6904 16.5032 21.6837 16.8262C21.6779 17.1125 21.6065 17.2338 21.2982 17.2318C19.6333 17.2211 17.9683 17.2249 16.3033 17.2289C16.0633 17.2295 15.8958 17.2032 15.9059 16.8912C15.9139 16.6444 15.952 16.5299 16.2413 16.4872C17.5432 16.2953 17.8534 15.9578 17.8582 14.6246C17.8719 10.8735 17.8574 7.12225 17.8537 3.37109C17.8536 3.3059 17.8498 3.24067 17.8465 3.17552C17.7728 1.72242 17.64 1.57944 16.2024 1.44569C16.0239 1.42908 15.8728 1.42228 15.8879 1.18713C15.9008 0.986817 15.8171 0.745471 16.129 0.685091C17.2815 0.461996 18.4339 0.238219 19.5851 0.00877976C19.7707 -0.0281931 19.8179 0.0538492 19.8165 0.212639C19.8151 0.359397 19.8183 0.506193 19.8183 0.652974C19.8185 2.98526 19.8185 5.3176 19.8187 7.64986Z" fill="#192421"/>
<path d="M65.0427 8.72804C65.3618 8.09847 65.7413 7.51405 66.2702 7.04477C67.0415 6.36091 67.9 5.90158 68.9735 6.02908C69.4614 6.08694 69.8385 6.31493 70.0107 6.80032C70.2543 7.48711 69.8959 8.08365 69.1768 8.21583C68.6649 8.30995 68.2157 8.15475 67.7724 7.92049C67.2172 7.62702 66.8681 7.67903 66.4078 8.11797C65.7724 8.72371 65.435 9.50063 65.2143 10.3269C64.7703 11.9898 64.8406 13.6897 64.9337 15.382C64.9747 16.1259 65.2547 16.3203 66.132 16.4632C66.3399 16.4971 66.5911 16.4402 66.587 16.8116C66.5835 17.1285 66.491 17.2328 66.1735 17.2304C64.6075 17.2186 63.0409 17.2247 61.4749 17.2256C61.2547 17.2258 61.0573 17.239 61.0474 16.9128C61.038 16.6007 61.1463 16.5126 61.4538 16.4759C62.4886 16.3526 62.7428 16.1449 62.7885 15.0952C62.8787 13.0281 62.9191 10.956 62.744 8.89027C62.6725 8.04125 62.4254 7.85144 61.5657 7.76916C61.3015 7.74386 60.9437 7.84231 60.9835 7.34497C61.0023 7.1072 61.072 6.99434 61.3015 6.9465C62.3065 6.73683 63.3132 6.53156 64.3118 6.29502C64.6327 6.219 64.6714 6.36547 64.6971 6.60805C64.7692 7.30111 64.85 7.99323 64.9279 8.68576L65.0427 8.72804Z" fill="#192421"/>
<path d="M43.8529 39.6996C43.2915 39.6998 42.7299 39.704 42.1686 39.6965C42.0421 39.6948 41.8534 39.7598 41.8205 39.5641C41.7875 39.3668 41.9589 39.3507 42.1011 39.3455C42.6789 39.3242 42.8377 38.9729 42.835 38.461C42.8274 37.0384 42.8295 35.6159 42.8344 34.1934C42.8359 33.734 42.7692 33.3398 42.1921 33.3009C42.0817 33.2935 41.999 33.2313 42.0006 33.1132C42.003 32.933 42.1527 32.9506 42.2632 32.9543C43.4831 32.9948 44.712 32.8206 45.9227 33.055C47.6649 33.3923 48.8431 34.9421 48.6981 36.6613C48.5471 38.452 47.2283 39.6539 45.3568 39.6978C44.8558 39.7095 44.3542 39.6995 43.8529 39.6996ZM43.7749 36.0603H43.7767C43.7767 36.8018 43.7783 37.5433 43.7761 38.2849C43.7749 38.6875 43.9483 38.9737 44.3201 39.1383C45.2191 39.5361 46.6298 39.1463 47.0979 38.2869C47.7796 37.0353 47.7409 35.7335 47.0672 34.4926C46.4502 33.3562 45.335 33.3452 44.224 33.3701C43.8908 33.3775 43.7626 33.5002 43.7699 33.8358C43.7859 34.577 43.7749 35.3187 43.7749 36.0603Z" fill="#192421"/>
<path d="M31.4108 33.9913C31.4026 33.6126 31.2425 33.3312 30.8111 33.3034C30.6634 33.294 30.5122 33.27 30.5381 33.0746C30.561 32.9012 30.7208 32.9527 30.8267 32.9519C31.5891 32.9462 32.3516 32.9447 33.114 32.953C33.2303 32.9542 33.4248 32.8756 33.424 33.1121C33.4234 33.2729 33.2946 33.2934 33.17 33.2989C32.7351 33.3184 32.5901 33.5964 32.5629 33.9774C32.4716 35.2583 32.4445 36.5424 32.5609 37.8203C32.6494 38.7923 33.1714 39.2073 34.1718 39.2298C35.2473 39.2541 35.8503 38.8483 35.9729 37.877C36.1362 36.583 36.1042 35.2781 35.962 33.9798C35.9178 33.5763 35.7144 33.3096 35.2698 33.2937C35.1469 33.2893 35.0128 33.262 35.0173 33.1033C35.0221 32.9281 35.1762 32.9533 35.2871 32.9525C35.9292 32.948 36.5712 32.9477 37.2133 32.9521C37.3234 32.9529 37.4752 32.9177 37.5025 33.0822C37.5288 33.2408 37.4044 33.2868 37.2775 33.2942C36.7751 33.3232 36.6719 33.6903 36.6155 34.0831C36.5815 34.3201 36.5729 34.5622 36.5708 34.8022C36.5639 35.544 36.5693 36.2858 36.5633 37.0275C36.5445 39.3476 34.8338 40.4641 32.6647 39.5783C31.9332 39.2796 31.5703 38.7058 31.5137 37.9563C31.4655 37.3188 31.4255 34.6718 31.4108 33.9913Z" fill="#192421"/>
<path d="M14.7394 32.8125C14.7882 33.4839 14.8254 33.9559 14.8546 34.4284C14.8617 34.542 14.8837 34.6865 14.7134 34.7075C14.5625 34.7263 14.5192 34.604 14.4678 34.4918C14.3926 34.3281 14.3167 34.1631 14.2225 34.01C13.9895 33.6314 13.6522 33.3947 13.209 33.3275C12.5923 33.2339 12.051 33.4762 11.8799 33.9132C11.6801 34.4241 11.8736 34.9095 12.4824 35.2589C13.0551 35.5875 13.6699 35.8427 14.2433 36.1702C15.1951 36.714 15.497 37.2944 15.3398 38.1671C15.1951 38.9709 14.5304 39.5439 13.5638 39.7312C12.9505 39.8501 12.3591 39.807 11.8096 39.5152C11.4898 39.3454 11.2055 39.1096 10.8274 39.5576C10.7926 38.9893 10.7573 38.421 10.7232 37.8527C10.7181 37.7666 10.7467 37.6789 10.8357 37.6696C11.0721 37.6449 11.057 37.8613 11.1122 37.9949C11.5007 38.9345 12.1327 39.365 13.0973 39.3366C13.7545 39.3172 14.2385 39.0073 14.3713 38.5208C14.5256 37.9558 14.3134 37.4998 13.6731 37.1436C13.1484 36.8518 12.5867 36.6261 12.0625 36.3334C11.0191 35.7508 10.692 34.8054 11.1771 33.8602C11.6452 32.9481 12.8451 32.5754 13.8352 33.0695C14.1558 33.2295 14.4226 33.4039 14.7394 32.8125Z" fill="#192421"/>
<path d="M23.0661 32.9506C23.9893 32.9507 24.913 32.9692 25.8354 32.9421C26.2301 32.9305 26.3674 33.0629 26.3515 33.4476C26.3391 33.7462 26.39 34.0472 26.406 34.3474C26.4125 34.4705 26.3988 34.5966 26.2328 34.6054C26.1028 34.6123 26.0856 34.5039 26.0437 34.4131C25.5763 33.4004 25.0833 33.1492 23.9818 33.3358C23.7027 33.3831 23.5536 33.4974 23.5551 33.8025C23.5633 35.3665 23.5549 36.9306 23.5659 38.4946C23.5696 39.0188 23.8601 39.3043 24.3861 39.3437C24.5332 39.3547 24.6876 39.3739 24.654 39.5738C24.6261 39.7394 24.4702 39.698 24.3606 39.6985C23.4776 39.7027 22.5945 39.7039 21.7116 39.697C21.5914 39.696 21.4006 39.761 21.4016 39.5305C21.4024 39.3669 21.5371 39.3549 21.659 39.3486C22.3427 39.3135 22.5176 38.8832 22.5145 38.2858C22.507 36.8421 22.4994 35.3981 22.5217 33.9547C22.5291 33.4755 22.3308 33.299 21.881 33.3218C21.6207 33.3351 21.3584 33.3192 21.0991 33.3409C20.5354 33.388 20.1656 33.6684 20.0605 34.248C20.0339 34.3945 20.0738 34.6175 19.8372 34.5974C19.6407 34.5808 19.7069 34.3828 19.6978 34.2557C19.6351 33.3857 20.0355 32.9507 20.8987 32.9505C21.6212 32.9505 22.3437 32.9505 23.0661 32.9506Z" fill="#192421"/>
<path d="M56.3922 36.4687C56.8982 35.5754 57.3533 34.8 57.7784 34.0087C57.9354 33.7169 58.0531 33.38 57.5307 33.2883C57.4218 33.2692 57.3568 33.1831 57.3808 33.0686C57.4083 32.936 57.5295 32.9531 57.6238 32.9523C58.1052 32.9483 58.5872 32.9482 59.0692 32.9521C59.1629 32.9529 59.283 32.9341 59.314 33.0647C59.3497 33.2174 59.2519 33.2752 59.1219 33.3093C58.7617 33.4044 58.5585 33.6864 58.3799 33.9767C57.813 34.8991 57.201 35.8009 56.7196 36.7669C56.3735 37.4617 56.5123 38.2549 56.6786 38.9986C56.7454 39.2963 57.0423 39.3362 57.3128 39.3575C57.4241 39.3664 57.5032 39.4302 57.5003 39.5479C57.4962 39.6832 57.3837 39.6934 57.2847 39.6935C56.4812 39.6949 55.6783 39.6938 54.8754 39.6904C54.7963 39.6901 54.7114 39.6738 54.6956 39.5729C54.6763 39.4521 54.7418 39.369 54.8531 39.3645C55.6578 39.3318 55.5805 38.7422 55.6297 38.1963C55.7011 37.405 55.5266 36.7095 55.0722 36.0459C54.6312 35.4023 54.2774 34.6992 53.8768 34.0276C53.6812 33.7001 53.4827 33.3651 53.0522 33.2969C52.9462 33.2801 52.8561 33.2353 52.8555 33.1122C52.8549 32.9264 53.006 32.9534 53.1155 32.9528C53.8581 32.9484 54.6013 32.9493 55.3445 32.953C55.4376 32.9535 55.5582 32.9426 55.5752 33.0797C55.5957 33.2442 55.4733 33.2841 55.3486 33.2899C54.6722 33.3219 54.7682 33.6855 55.0048 34.0963C55.4417 34.854 55.8874 35.6065 56.3922 36.4687Z" fill="#192421"/>
<path d="M29.1702 23.803C29.2013 22.9987 30.1232 22.3042 31.3068 22.427C31.9185 22.4905 32.4637 22.6956 32.8339 22.9957C32.5688 22.6042 32.4099 22.0506 32.3939 21.443C32.3627 20.2534 33.1262 19.3878 33.9304 19.4188C34.4372 19.4383 34.925 19.8065 35.1703 20.3754C35.4563 19.8134 35.9783 19.4746 36.492 19.4945C37.2963 19.5255 37.9908 20.4474 37.868 21.631C37.8045 22.2428 37.5994 22.788 37.2993 23.1581C37.6907 22.8931 38.2443 22.7341 38.8521 22.7182C40.0416 22.6869 40.9072 23.4504 40.8762 24.2547C40.8566 24.7614 40.4885 25.2492 39.9196 25.4945C40.4816 25.7806 40.8203 26.3026 40.8005 26.8162C40.7695 27.6205 39.8475 28.3151 38.664 28.1922C38.0522 28.1287 37.507 27.9236 37.1368 27.6235C37.4019 28.015 37.5608 28.5686 37.5768 29.1763C37.6081 30.3658 36.8446 31.2315 36.0403 31.2005C35.5335 31.1809 35.0458 30.8128 34.8004 30.2439C34.5144 30.8058 33.9925 31.1446 33.4787 31.1247C32.6745 31.0937 31.9799 30.1718 32.1028 28.9882C32.1663 28.3765 32.3714 27.8313 32.6715 27.4611C32.28 27.7262 31.7264 27.8851 31.1187 27.9011C29.9292 27.9324 29.0635 27.1688 29.0946 26.3646C29.1141 25.8578 29.4822 25.37 30.0512 25.1247C29.4892 24.8387 29.1504 24.3167 29.1702 23.803ZM34.0485 25.9783C33.9734 26.0693 33.8268 26.1375 33.7352 26.1945C33.6287 26.2606 33.5205 26.3206 33.411 26.3745C33.1921 26.4821 32.9696 26.5809 32.7437 26.6214C32.3044 26.7002 31.8818 26.6686 31.571 26.414C31.3121 26.2019 31.174 25.8791 31.1638 25.5384C31.1569 25.3057 31.2151 25.0484 31.3966 24.856C31.7127 24.5208 32.3389 24.1508 32.7099 24.246C34.807 24.7846 36.4008 27.902 38.3502 26.9535C39.3161 26.4835 39.6477 25.3741 39.4808 24.5426C39.3204 23.743 38.629 23.3207 37.924 23.3498C37.2349 23.3782 36.5069 23.7806 35.9697 24.4297L35.9674 24.4326C36.0425 24.3416 36.189 24.2734 36.2807 24.2164C36.3871 24.1503 36.4954 24.0903 36.6048 24.0364C36.8238 23.9287 37.0463 23.83 37.2722 23.7895C37.7114 23.7108 38.1341 23.7422 38.4449 23.9969C38.7038 24.209 38.8419 24.5318 38.8521 24.8725C38.859 25.1052 38.8008 25.3625 38.6193 25.5549C38.3031 25.8901 37.6416 26.2187 36.9018 25.9721C34.8048 25.4336 33.615 22.5089 31.6657 23.4574C30.6998 23.9273 30.3682 25.0368 30.535 25.8683C30.6955 26.6679 31.3869 27.0902 32.0919 27.0611C32.781 27.0326 33.5089 26.6303 34.0461 25.9811L34.0485 25.9783Z" fill="#192421"/>
<path d="M3.16406 25.2882C10.4553 25.2748 18.0024 25.2748 25.378 25.344" stroke="#95754A" stroke-width="2.64836" stroke-miterlimit="10" stroke-linecap="round"/>
</svg>
