<svg width="722" height="424" viewBox="0 0 722 424" fill="none" xmlns="http://www.w3.org/2000/svg">
<path d="M211.52 423.12C150.813 423.12 100.353 403.013 60.14 362.8C20.3133 322.2 0.400001 271.933 0.400001 212C0.400001 152.067 20.3133 101.993 60.14 61.78C100.353 21.18 150.813 0.879973 211.52 0.879973C247.867 0.879973 281.507 9.38665 312.44 26.4C343.373 43.0267 367.733 65.84 385.52 94.84L305.48 141.24C296.587 125.387 283.827 113.207 267.2 104.7C250.573 95.8067 232.013 91.36 211.52 91.36C175.56 91.36 146.753 102.38 125.1 124.42C103.833 146.46 93.2 175.653 93.2 212C93.2 248.347 103.833 277.54 125.1 299.58C146.753 321.62 175.56 332.64 211.52 332.64C232.013 332.64 250.573 328.193 267.2 319.3C284.213 310.407 296.973 298.227 305.48 282.76L385.52 329.16C368.12 358.16 343.953 381.167 313.02 398.18C282.087 414.807 248.253 423.12 211.52 423.12ZM571.111 423.12C529.738 423.12 495.131 414.227 467.291 396.44C439.838 378.267 420.311 353.713 408.711 322.78L488.751 276.38C504.991 313.887 533.411 332.64 574.011 332.64C610.744 332.64 629.111 321.62 629.111 299.58C629.111 287.593 623.118 278.313 611.131 271.74C599.531 264.78 577.491 256.853 545.011 247.96C527.998 243.32 513.111 238.1 500.351 232.3C487.591 226.5 475.024 218.96 462.651 209.68C450.664 200.013 441.384 188.027 434.811 173.72C428.624 159.413 425.531 142.98 425.531 124.42C425.531 86.9133 438.871 56.9466 465.551 34.52C492.618 12.0933 524.711 0.879973 561.831 0.879973C595.084 0.879973 624.471 8.80664 649.991 24.66C675.511 40.1267 695.618 62.7466 710.311 92.52L632.011 138.34C624.664 122.873 615.578 111.273 604.751 103.54C593.924 95.42 579.618 91.36 561.831 91.36C547.911 91.36 537.084 94.4533 529.351 100.64C522.004 106.44 518.331 113.593 518.331 122.1C518.331 132.153 522.971 140.853 532.251 148.2C541.918 155.547 561.638 163.667 591.411 172.56C607.651 177.587 620.218 181.647 629.111 184.74C638.004 187.833 649.218 193.053 662.751 200.4C676.671 207.36 687.111 214.9 694.071 223.02C701.418 230.753 707.798 241.193 713.211 254.34C719.011 267.1 721.911 281.793 721.911 298.42C721.911 337.087 707.991 367.633 680.151 390.06C652.311 412.1 615.964 423.12 571.111 423.12Z" fill="#D5E3AE"/>
</svg>
