<svg width="1165" height="316" viewBox="0 0 1165 316" fill="none" xmlns="http://www.w3.org/2000/svg">
<path d="M130.36 315.4C106.84 315.4 85.28 309.8 65.68 298.6C46.08 287.4 30.26 271.44 18.22 250.72C6.46 230 0.580001 205.22 0.580001 176.38C0.580001 147.82 6.18 122.9 17.38 101.62C28.58 80.06 44.4 63.4 64.84 51.64C85.56 39.6 109.92 33.58 137.92 33.58C148 33.58 158.36 34.56 169 36.52C179.92 38.48 190 41.84 199.24 46.6C208.48 51.08 215.9 57.1 221.5 64.66C227.38 72.22 230.32 81.6 230.32 92.8C230.6 104.84 226.96 115.48 219.4 124.72C211.84 133.68 201.2 138.16 187.48 138.16C179.08 138.16 173.06 136.2 169.42 132.28C166.06 128.08 164.52 125 164.8 123.04C164.8 122.2 166.48 120.8 169.84 118.84C173.48 116.6 176.98 113.38 180.34 109.18C183.98 104.7 185.8 98.82 185.8 91.54C185.8 78.94 181.6 69 173.2 61.72C164.8 54.16 152.9 50.38 137.5 50.38C120.7 50.38 105.58 55.14 92.14 64.66C78.98 74.18 68.62 88.18 61.06 106.66C53.5 124.86 49.72 147.26 49.72 173.86C49.72 196.26 53.64 216.7 61.48 235.18C69.6 253.38 80.8 267.94 95.08 278.86C109.64 289.5 126.44 294.82 145.48 294.82C160.6 294.82 173.48 291.74 184.12 285.58C195.04 279.14 204.84 268.92 213.52 254.92C216.04 250.16 220.52 249.74 226.96 253.66C229.48 255.34 231.44 257.44 232.84 259.96C234.24 262.2 233.96 264.58 232 267.1C221.36 280.54 211.28 290.76 201.76 297.76C192.24 304.48 181.88 309.1 170.68 311.62C159.48 314.14 146.04 315.4 130.36 315.4ZM262.571 308.26C260.611 308.26 258.931 307.42 257.531 305.74C256.411 303.78 255.851 301.82 255.851 299.86C256.131 295.66 257.111 293.42 258.791 293.14C260.751 292.58 262.991 292.3 265.511 292.3C273.351 292.3 278.671 291.04 281.471 288.52C284.551 285.72 286.231 282.08 286.511 277.6C287.071 273.12 287.351 268.5 287.351 263.74V58.78C287.351 53.74 287.071 49.12 286.511 44.92C286.231 40.44 284.691 36.94 281.891 34.42C279.091 31.62 273.771 30.22 265.931 30.22C263.411 30.22 261.031 29.94 258.791 29.38C256.831 28.54 255.851 26.02 255.851 21.82C255.851 17.62 258.091 15.1 262.571 14.26C275.451 12.3 285.251 10.34 291.971 8.37999C298.971 6.41998 304.291 4.73998 307.931 3.33998C311.571 1.93998 314.791 1.09998 317.591 0.819987C319.831 0.53999 321.651 0.959993 323.051 2.08C324.731 3.19998 325.571 5.43998 325.571 8.79998V263.74C325.571 268.5 325.711 273.12 325.991 277.6C326.551 282.08 328.231 285.72 331.031 288.52C334.111 291.04 339.571 292.3 347.411 292.3C349.931 292.3 352.031 292.58 353.711 293.14C355.671 293.42 356.791 295.66 357.071 299.86C357.071 301.82 356.511 303.78 355.391 305.74C354.271 307.42 352.591 308.26 350.351 308.26C342.231 307.7 334.671 307.28 327.671 307C320.951 307 313.811 307 306.251 307C298.691 307 291.551 307 284.831 307C278.111 307.28 270.691 307.7 262.571 308.26ZM478.996 312.04C457.436 312.04 439.236 307.42 424.396 298.18C409.836 288.94 398.916 276.62 391.636 261.22C384.356 245.82 380.716 229.02 380.716 210.82C380.716 198.5 382.816 186.6 387.016 175.12C391.496 163.36 397.796 152.72 405.916 143.2C414.036 133.4 423.836 125.7 435.316 120.1C446.796 114.5 459.816 111.7 474.376 111.7C500.136 111.7 519.456 118.42 532.336 131.86C545.496 145.02 553.056 161.82 555.016 182.26C555.016 192.06 552.216 198.5 546.616 201.58C541.296 204.66 534.296 206.2 525.616 206.2H423.556C423.556 222.44 425.796 237 430.276 249.88C434.756 262.48 441.756 272.56 451.276 280.12C461.076 287.4 473.956 291.04 489.916 291.04C501.676 291.04 511.756 288.52 520.156 283.48C528.556 278.44 536.676 269.62 544.516 257.02C546.756 254.22 549.836 254.08 553.756 256.6C555.996 257.72 557.396 259.54 557.956 262.06C558.516 264.3 558.236 266.26 557.116 267.94C548.436 281.66 537.516 292.44 524.356 300.28C511.196 308.12 496.076 312.04 478.996 312.04ZM423.556 190.24H492.016C498.736 190.24 504.056 188.98 507.976 186.46C512.176 183.66 514.416 179.04 514.696 172.6C514.696 160.56 511.336 149.92 504.616 140.68C498.176 131.16 488.096 126.4 474.376 126.4C460.376 126.4 448.616 132 439.096 143.2C429.856 154.4 424.676 170.08 423.556 190.24ZM669.072 311.2C662.072 295.8 655.072 279 648.072 260.8C641.072 242.6 634.212 224.82 627.492 207.46C620.772 190.1 614.332 174.98 608.172 162.1C603.692 151.74 599.352 144.46 595.152 140.26C590.952 135.78 584.652 132.98 576.252 131.86C572.612 131.3 570.092 130.74 568.692 130.18C567.572 129.62 566.872 127.52 566.592 123.88C566.312 119.12 567.572 116.6 570.372 116.32C573.452 115.76 577.092 115.34 581.292 115.06C598.652 114.22 612.232 116.74 622.032 122.62C631.832 128.5 639.812 138.44 645.972 152.44C649.892 161.12 654.232 171.9 658.992 184.78C664.032 197.66 669.212 210.68 674.532 223.84C679.852 237 685.032 248.9 690.072 259.54H691.332L732.912 149.5C735.712 141.38 735.852 136.34 733.332 134.38C730.812 132.42 725.352 131.44 716.952 131.44C714.432 131.44 712.332 131.3 710.652 131.02C708.972 130.46 707.992 128.08 707.712 123.88C707.712 122.2 708.132 120.38 708.972 118.42C710.092 116.46 711.632 115.48 713.592 115.48C721.712 115.76 728.712 116.04 734.592 116.32C740.472 116.6 747.052 116.74 754.332 116.74C759.372 116.74 763.432 116.74 766.512 116.74C769.592 116.46 772.812 116.32 776.172 116.32C779.532 116.04 783.872 115.76 789.192 115.48C791.432 115.48 792.972 116.46 793.812 118.42C794.932 120.38 795.492 122.2 795.492 123.88C795.212 128.08 794.092 130.46 792.132 131.02C790.452 131.3 788.492 131.44 786.252 131.44C777.012 131.44 769.592 133.12 763.992 136.48C758.672 139.84 754.052 146.42 750.132 156.22C750.132 156.22 748.592 160 745.512 167.56C742.712 174.84 738.932 184.36 734.172 196.12C729.412 207.88 724.372 220.34 719.052 233.5C713.732 246.66 708.552 259.12 703.512 270.88C698.752 282.64 694.832 292.3 691.752 299.86C688.672 307.42 686.992 311.2 686.712 311.2H669.072ZM897.766 312.04C876.206 312.04 858.006 307.42 843.166 298.18C828.606 288.94 817.686 276.62 810.406 261.22C803.126 245.82 799.486 229.02 799.486 210.82C799.486 198.5 801.586 186.6 805.786 175.12C810.266 163.36 816.566 152.72 824.686 143.2C832.806 133.4 842.606 125.7 854.086 120.1C865.566 114.5 878.586 111.7 893.146 111.7C918.906 111.7 938.226 118.42 951.106 131.86C964.266 145.02 971.826 161.82 973.786 182.26C973.786 192.06 970.986 198.5 965.386 201.58C960.066 204.66 953.066 206.2 944.386 206.2H842.326C842.326 222.44 844.566 237 849.046 249.88C853.526 262.48 860.526 272.56 870.046 280.12C879.846 287.4 892.726 291.04 908.686 291.04C920.446 291.04 930.526 288.52 938.926 283.48C947.326 278.44 955.446 269.62 963.286 257.02C965.526 254.22 968.606 254.08 972.526 256.6C974.766 257.72 976.166 259.54 976.726 262.06C977.286 264.3 977.006 266.26 975.886 267.94C967.206 281.66 956.286 292.44 943.126 300.28C929.966 308.12 914.846 312.04 897.766 312.04ZM842.326 190.24H910.786C917.506 190.24 922.826 188.98 926.746 186.46C930.946 183.66 933.186 179.04 933.466 172.6C933.466 160.56 930.106 149.92 923.386 140.68C916.946 131.16 906.866 126.4 893.146 126.4C879.146 126.4 867.386 132 857.866 143.2C848.626 154.4 843.446 170.08 842.326 190.24ZM1013.67 308.26C1011.71 308.26 1010.03 307.42 1008.63 305.74C1007.51 303.78 1006.95 301.82 1006.95 299.86C1007.51 295.66 1008.63 293.42 1010.31 293.14C1011.99 292.58 1014.23 292.3 1017.03 292.3C1024.87 292.3 1030.19 291.04 1032.99 288.52C1035.79 285.72 1037.33 282.08 1037.61 277.6C1038.17 273.12 1038.45 268.5 1038.45 263.74V167.56C1038.45 162.52 1038.17 157.9 1037.61 153.7C1037.33 149.22 1035.79 145.72 1032.99 143.2C1030.19 140.4 1024.87 139 1017.03 139C1014.51 139 1012.13 138.72 1009.89 138.16C1007.93 137.32 1006.95 134.8 1006.95 130.6C1006.95 126.4 1009.19 123.88 1013.67 123.04C1026.55 121.08 1036.35 119.12 1043.07 117.16C1050.07 115.2 1055.25 113.52 1058.61 112.12C1062.25 110.72 1065.47 109.88 1068.27 109.6C1070.51 109.32 1072.33 109.74 1073.73 110.86C1075.41 111.98 1076.25 114.22 1076.25 117.58V143.62H1077.51C1087.03 134.38 1096.83 126.82 1106.91 120.94C1116.99 114.78 1126.23 111.7 1134.63 111.7C1144.43 111.7 1151.85 115.34 1156.89 122.62C1162.21 129.9 1164.87 137.6 1164.87 145.72C1164.87 152.72 1162.63 159.58 1158.15 166.3C1153.67 172.74 1146.95 175.96 1137.99 175.96C1133.51 175.96 1129.87 175.12 1127.07 173.44C1124.55 171.48 1123.15 170.08 1122.87 169.24C1122.87 168.68 1124.13 167 1126.65 164.2C1129.45 161.4 1130.85 157.9 1130.85 153.7C1130.85 148.66 1129.45 144.6 1126.65 141.52C1124.13 138.44 1120.63 136.9 1116.15 136.9C1111.39 136.9 1105.23 139.28 1097.67 144.04C1090.39 148.8 1083.39 154.54 1076.67 161.26V263.74C1076.67 268.5 1076.81 273.12 1077.09 277.6C1077.65 282.08 1079.33 285.72 1082.13 288.52C1085.21 291.04 1090.67 292.3 1098.51 292.3C1101.03 292.3 1103.13 292.58 1104.81 293.14C1106.77 293.42 1107.89 295.66 1108.17 299.86C1108.17 301.82 1107.61 303.78 1106.49 305.74C1105.37 307.42 1103.69 308.26 1101.45 308.26C1093.33 307.7 1085.77 307.28 1078.77 307C1072.05 307 1064.91 307 1057.35 307C1049.79 307 1042.65 307 1035.93 307C1029.21 307.28 1021.79 307.7 1013.67 308.26Z" fill="#EEE1D0" fill-opacity="0.2"/>
</svg>
