<svg width="240" height="215" viewBox="0 0 240 215" fill="none" xmlns="http://www.w3.org/2000/svg">
<g clip-path="url(#clip0_5_510)">
<path d="M202.575 207.07L218.785 206.497L206.919 195.469C200.52 189.523 196.378 181.642 195.032 172.981C220.887 154.722 233.173 129.159 232.242 102.849C230.527 54.3086 184.054 6.56166 114.004 9.03761C39.7931 11.6606 1.60408 58.458 3.30856 106.682C5.02429 155.225 46.8412 199.163 120.632 196.556C133.558 196.098 146.986 193.9 158.917 190.316C170.729 201.577 186.409 207.641 202.575 207.07Z" fill="#F46C48"/>
<path d="M206.356 202.344L222.567 201.77L210.7 190.742C204.301 184.796 200.159 176.915 198.813 168.254C224.668 149.995 236.954 124.432 236.024 98.1222C234.309 49.582 187.836 1.8351 117.785 4.31105C43.5743 6.93404 5.38532 53.7314 7.08981 101.956C8.80553 150.498 50.6224 194.437 124.413 191.829C137.339 191.372 150.767 189.174 162.698 185.59C174.51 196.85 190.19 202.914 206.356 202.344Z" fill="#FFE6C6"/>
</g>
<path d="M49.1745 78V67.6787L49.6889 68.2097H45.3414V66.3844H55.1649V68.2097H50.8173L51.3151 67.6787V78H49.1745ZM57.3023 78V69.1389H59.3766V78H57.3023ZM58.3478 67.6787C57.9606 67.6787 57.6398 67.557 57.3853 67.3136C57.1419 67.0702 57.0203 66.7771 57.0203 66.4342C57.0203 66.0802 57.1419 65.787 57.3853 65.5547C57.6398 65.3113 57.9606 65.1896 58.3478 65.1896C58.7349 65.1896 59.0502 65.3058 59.2936 65.5381C59.548 65.7593 59.6753 66.0414 59.6753 66.3844C59.6753 66.7494 59.5536 67.0592 59.3102 67.3136C59.0668 67.557 58.746 67.6787 58.3478 67.6787ZM61.6057 77.9834L61.7052 76.2411C61.7827 76.2521 61.8546 76.2632 61.921 76.2742C61.9873 76.2853 62.0482 76.2908 62.1035 76.2908C62.4464 76.2908 62.7119 76.1857 62.9 75.9756C63.0881 75.7654 63.2263 75.4833 63.3148 75.1293C63.4144 74.7642 63.4808 74.3604 63.514 73.9179C63.5582 73.4644 63.5914 73.0108 63.6135 72.5572L63.7629 69.1389H70.9314V78H68.8572V70.3337L69.3384 70.8979H65.1236L65.5716 70.3171L65.4554 72.6568C65.4222 73.4422 65.3559 74.1724 65.2563 74.8472C65.1678 75.5109 65.024 76.0917 64.8249 76.5895C64.6368 77.0873 64.3713 77.4745 64.0284 77.7511C63.6965 78.0277 63.2706 78.1659 62.7507 78.1659C62.5847 78.1659 62.4022 78.1493 62.2031 78.1162C62.015 78.083 61.8159 78.0387 61.6057 77.9834ZM78.892 72.0594C80.0314 72.0594 80.8998 72.3139 81.4972 72.8227C82.0945 73.3316 82.3932 74.0507 82.3932 74.9799C82.3932 75.9424 82.0614 76.6946 81.3976 77.2367C80.7339 77.7677 79.7991 78.0277 78.5933 78.0166L74.4448 78V69.1389H76.519V72.0428L78.892 72.0594ZM78.4107 76.49C79.0192 76.501 79.4838 76.3738 79.8046 76.1083C80.1254 75.8428 80.2858 75.4556 80.2858 74.9467C80.2858 74.4379 80.1254 74.0728 79.8046 73.8516C79.4949 73.6192 79.0302 73.4976 78.4107 73.4865L76.519 73.4699V76.4734L78.4107 76.49ZM91.2918 78L88.0892 73.752L89.7817 72.7066L93.731 78H91.2918ZM84.9363 78V69.1389H87.0106V78H84.9363ZM86.3966 74.4489V72.7232H89.4001V74.4489H86.3966ZM89.9808 73.8184L88.0394 73.5861L91.2918 69.1389H93.5153L89.9808 73.8184ZM95.914 78V69.1389H97.9882V74.9799L102.883 69.1389H104.775V78H102.701V72.159L97.8223 78H95.914ZM119.665 77.0376V70.8979H116.263L116.213 72.3249C116.191 72.8338 116.158 73.3261 116.113 73.8018C116.069 74.2664 115.997 74.6978 115.898 75.0961C115.798 75.4833 115.654 75.8041 115.466 76.0585C115.278 76.313 115.029 76.4789 114.72 76.5563L112.662 76.2411C112.994 76.2411 113.259 76.136 113.458 75.9258C113.669 75.7045 113.829 75.4058 113.94 75.0297C114.061 74.6425 114.15 74.2056 114.205 73.7188C114.261 73.221 114.299 72.7066 114.321 72.1756L114.438 69.1389H121.739V77.0376H119.665ZM112.347 79.9747V76.2411H123.05V79.9747H121.108V78H114.272V79.9747H112.347ZM130.999 78V76.2079L130.882 75.8262V72.69C130.882 72.0816 130.7 71.6114 130.335 71.2795C129.97 70.9366 129.417 70.7651 128.675 70.7651C128.178 70.7651 127.685 70.8426 127.199 70.9974C126.723 71.1523 126.319 71.368 125.987 71.6446L125.174 70.1346C125.65 69.7695 126.214 69.4985 126.867 69.3215C127.531 69.1334 128.216 69.0394 128.924 69.0394C130.208 69.0394 131.198 69.3491 131.895 69.9686C132.603 70.5771 132.957 71.5229 132.957 72.8062V78H130.999ZM128.211 78.1162C127.547 78.1162 126.966 78.0055 126.469 77.7843C125.971 77.552 125.584 77.2367 125.307 76.8384C125.041 76.4291 124.909 75.97 124.909 75.4612C124.909 74.9633 125.025 74.5153 125.257 74.1171C125.501 73.7188 125.893 73.4035 126.435 73.1712C126.977 72.9389 127.696 72.8227 128.593 72.8227H131.165V74.2H128.742C128.034 74.2 127.558 74.3162 127.315 74.5485C127.071 74.7697 126.95 75.0463 126.95 75.3782C126.95 75.7543 127.099 76.053 127.398 76.2742C127.696 76.4955 128.111 76.6061 128.642 76.6061C129.151 76.6061 129.605 76.49 130.003 76.2577C130.412 76.0253 130.705 75.6824 130.882 75.2288L131.231 76.4734C131.032 76.9933 130.672 77.3971 130.152 77.6847C129.643 77.9723 128.996 78.1162 128.211 78.1162ZM136.243 78V69.1389H138.318V74.9799L143.213 69.1389H145.104V78H143.03V72.159L138.152 78H136.243ZM140.541 68.0935C139.656 68.0935 138.976 67.8889 138.5 67.4796C138.024 67.0592 137.781 66.4507 137.77 65.6542H139.147C139.158 66.0525 139.28 66.3678 139.512 66.6001C139.756 66.8324 140.093 66.9486 140.525 66.9486C140.945 66.9486 141.277 66.8324 141.52 66.6001C141.775 66.3678 141.907 66.0525 141.918 65.6542H143.329C143.318 66.4507 143.069 67.0592 142.582 67.4796C142.107 67.8889 141.426 68.0935 140.541 68.0935ZM153.921 78V69.1389H156.094L159.662 75.428H158.799L162.549 69.1389H164.491L164.507 78H162.632V71.3625L162.964 71.5782L159.645 77.0707H158.749L155.414 71.4289L155.812 71.3293V78H153.921ZM172.141 78.1162C171.157 78.1162 170.294 77.9226 169.553 77.5354C168.823 77.1371 168.253 76.5951 167.844 75.9092C167.445 75.2233 167.246 74.4434 167.246 73.5695C167.246 72.6845 167.44 71.9046 167.827 71.2297C168.225 70.5439 168.767 70.0073 169.453 69.6202C170.15 69.233 170.941 69.0394 171.826 69.0394C172.689 69.0394 173.458 69.2274 174.133 69.6036C174.808 69.9797 175.339 70.5107 175.726 71.1966C176.113 71.8824 176.306 72.69 176.306 73.6193C176.306 73.7077 176.301 73.8073 176.29 73.9179C176.29 74.0286 176.284 74.1337 176.273 74.2332H168.889V72.8559H175.178L174.365 73.2874C174.376 72.7785 174.271 72.3305 174.05 71.9433C173.828 71.5561 173.524 71.2519 173.137 71.0306C172.761 70.8094 172.324 70.6987 171.826 70.6987C171.317 70.6987 170.869 70.8094 170.482 71.0306C170.106 71.2519 169.807 71.5616 169.586 71.9599C169.376 72.3471 169.271 72.8062 169.271 73.3372V73.669C169.271 74.2 169.392 74.6702 169.636 75.0795C169.879 75.4888 170.222 75.8041 170.665 76.0253C171.107 76.2466 171.616 76.3572 172.191 76.3572C172.689 76.3572 173.137 76.2798 173.535 76.1249C173.934 75.97 174.288 75.7267 174.597 75.3948L175.709 76.6725C175.311 77.1371 174.808 77.4967 174.199 77.7511C173.602 77.9945 172.916 78.1162 172.141 78.1162ZM179.295 78V69.1389H181.369V72.7398H185.833V69.1389H187.907V78H185.833V74.4987H181.369V78H179.295ZM191.407 78V69.1389H193.481V78H191.407ZM192.453 67.6787C192.065 67.6787 191.745 67.557 191.49 67.3136C191.247 67.0702 191.125 66.7771 191.125 66.4342C191.125 66.0802 191.247 65.787 191.49 65.5547C191.745 65.3113 192.065 65.1896 192.453 65.1896C192.84 65.1896 193.155 65.3058 193.398 65.5381C193.653 65.7593 193.78 66.0414 193.78 66.3844C193.78 66.7494 193.658 67.0592 193.415 67.3136C193.172 67.557 192.851 67.6787 192.453 67.6787ZM75.5604 102.149C74.8856 102.149 74.2163 102.072 73.5525 101.917C72.8998 101.751 72.308 101.519 71.777 101.22L72.3578 99.6769C72.7892 99.9202 73.276 100.108 73.818 100.241C74.3601 100.374 74.9022 100.44 75.4442 100.44C75.9088 100.44 76.3071 100.396 76.639 100.307C76.9708 100.208 77.2253 100.064 77.4023 99.876C77.5903 99.6879 77.6844 99.4722 77.6844 99.2288C77.6844 98.8748 77.5295 98.6093 77.2197 98.4323C76.9211 98.2443 76.4896 98.1502 75.9254 98.1502H74.2163V96.7564H75.7595C76.1135 96.7564 76.4122 96.7177 76.6556 96.6402C76.91 96.5628 77.1036 96.4466 77.2363 96.2917C77.3691 96.1369 77.4355 95.9543 77.4355 95.7442C77.4355 95.534 77.3525 95.3514 77.1866 95.1966C77.0317 95.0306 76.8049 94.9089 76.5062 94.8315C76.2075 94.743 75.848 94.6987 75.4276 94.6987C74.9851 94.6987 74.526 94.7541 74.0503 94.8647C73.5857 94.9753 73.11 95.1357 72.6233 95.3459L72.0923 93.8193C72.6565 93.5648 73.2041 93.3712 73.7351 93.2385C74.2771 93.0947 74.8137 93.0172 75.3447 93.0062C76.1522 92.973 76.8713 93.056 77.5018 93.2551C78.1324 93.4542 78.6302 93.7418 78.9953 94.118C79.3603 94.4941 79.5429 94.9366 79.5429 95.4455C79.5429 95.8658 79.4101 96.2475 79.1446 96.5904C78.8902 96.9223 78.5362 97.1823 78.0826 97.3703C77.6401 97.5584 77.1312 97.6524 76.556 97.6524L76.6224 97.2044C77.6069 97.2044 78.3813 97.4035 78.9455 97.8018C79.5097 98.189 79.7918 98.72 79.7918 99.3948C79.7918 99.9368 79.6092 100.418 79.2442 100.838C78.8791 101.248 78.3758 101.569 77.7342 101.801C77.1036 102.033 76.379 102.149 75.5604 102.149ZM82.648 102V93.1389H84.8217L88.3894 99.428H87.5265L91.2767 93.1389H93.2182L93.2348 102H91.3597V95.3625L91.6916 95.5782L88.3728 101.071H87.4767L84.1414 95.4289L84.5397 95.3293V102H82.648ZM100.686 102.116C99.7791 102.116 98.9716 101.923 98.2636 101.535C97.5556 101.137 96.9969 100.595 96.5876 99.9092C96.1783 99.2233 95.9736 98.4434 95.9736 97.5695C95.9736 96.6845 96.1783 95.9046 96.5876 95.2297C96.9969 94.5439 97.5556 94.0073 98.2636 93.6202C98.9716 93.233 99.7791 93.0394 100.686 93.0394C101.604 93.0394 102.418 93.233 103.126 93.6202C103.845 94.0073 104.403 94.5383 104.802 95.2132C105.211 95.888 105.415 96.6734 105.415 97.5695C105.415 98.4434 105.211 99.2233 104.802 99.9092C104.403 100.595 103.845 101.137 103.126 101.535C102.418 101.923 101.604 102.116 100.686 102.116ZM100.686 100.341C101.195 100.341 101.649 100.23 102.047 100.009C102.445 99.7875 102.755 99.4667 102.976 99.0463C103.209 98.6259 103.325 98.1337 103.325 97.5695C103.325 96.9942 103.209 96.5019 102.976 96.0926C102.755 95.6722 102.445 95.3514 102.047 95.1302C101.649 94.9089 101.201 94.7983 100.703 94.7983C100.194 94.7983 99.7404 94.9089 99.3422 95.1302C98.955 95.3514 98.6452 95.6722 98.4129 96.0926C98.1806 96.5019 98.0645 96.9942 98.0645 97.5695C98.0645 98.1337 98.1806 98.6259 98.4129 99.0463C98.6452 99.4667 98.955 99.7875 99.3422 100.009C99.7404 100.23 100.188 100.341 100.686 100.341ZM108.185 102V93.1389H114.988V94.8979H109.778L110.259 94.4332V102H108.185ZM118.03 105.335C117.599 105.335 117.167 105.263 116.736 105.12C116.305 104.976 115.945 104.777 115.657 104.522L116.487 102.996C116.697 103.184 116.935 103.333 117.201 103.444C117.466 103.554 117.737 103.61 118.014 103.61C118.39 103.61 118.694 103.516 118.926 103.328C119.159 103.139 119.374 102.824 119.574 102.382L120.088 101.22L120.254 100.971L123.606 93.1389H125.597L121.449 102.714C121.172 103.377 120.862 103.903 120.519 104.29C120.188 104.677 119.811 104.948 119.391 105.103C118.982 105.258 118.528 105.335 118.03 105.335ZM119.856 102.315L115.857 93.1389H118.014L121.266 100.789L119.856 102.315ZM134.906 102V94.4001L135.387 94.8979H131.786V93.1389H140.083V94.8979H136.499L136.98 94.4001V102H134.906ZM145.868 102.116C144.961 102.116 144.153 101.923 143.445 101.535C142.737 101.137 142.179 100.595 141.769 99.9092C141.36 99.2233 141.155 98.4434 141.155 97.5695C141.155 96.6845 141.36 95.9046 141.769 95.2297C142.179 94.5439 142.737 94.0073 143.445 93.6202C144.153 93.233 144.961 93.0394 145.868 93.0394C146.786 93.0394 147.599 93.233 148.307 93.6202C149.026 94.0073 149.585 94.5383 149.983 95.2132C150.392 95.888 150.597 96.6734 150.597 97.5695C150.597 98.4434 150.392 99.2233 149.983 99.9092C149.585 100.595 149.026 101.137 148.307 101.535C147.599 101.923 146.786 102.116 145.868 102.116ZM145.868 100.341C146.377 100.341 146.83 100.23 147.229 100.009C147.627 99.7875 147.937 99.4667 148.158 99.0463C148.39 98.6259 148.506 98.1337 148.506 97.5695C148.506 96.9942 148.39 96.5019 148.158 96.0926C147.937 95.6722 147.627 95.3514 147.229 95.1302C146.83 94.9089 146.382 94.7983 145.884 94.7983C145.376 94.7983 144.922 94.9089 144.524 95.1302C144.137 95.3514 143.827 95.6722 143.595 96.0926C143.362 96.5019 143.246 96.9942 143.246 97.5695C143.246 98.1337 143.362 98.6259 143.595 99.0463C143.827 99.4667 144.137 99.7875 144.524 100.009C144.922 100.23 145.37 100.341 145.868 100.341ZM157.598 102.166C156.867 102.166 156.215 102.055 155.64 101.834C155.064 101.613 154.566 101.275 154.146 100.822C153.737 100.357 153.421 99.7709 153.2 99.0629C152.979 98.3549 152.868 97.5142 152.868 96.5407C152.868 95.8327 152.929 95.1855 153.051 94.5992C153.173 94.0129 153.355 93.4874 153.598 93.0228C153.842 92.5471 154.146 92.1267 154.511 91.7617C154.887 91.3966 155.324 91.0924 155.822 90.849C156.32 90.6056 156.884 90.4176 157.515 90.2848L161.63 89.4053L161.929 91.2638L158.195 92.0272C157.985 92.0714 157.73 92.1378 157.432 92.2263C157.144 92.3037 156.845 92.4254 156.536 92.5913C156.237 92.7462 155.955 92.973 155.689 93.2717C155.435 93.5593 155.225 93.9354 155.059 94.4001C154.904 94.8536 154.826 95.4233 154.826 96.1092C154.826 96.3194 154.832 96.4798 154.843 96.5904C154.865 96.69 154.882 96.8006 154.893 96.9223C154.915 97.0329 154.926 97.1989 154.926 97.4201L154.146 96.607C154.367 96.0428 154.672 95.5616 155.059 95.1634C155.457 94.7541 155.916 94.4443 156.436 94.2341C156.967 94.0129 157.542 93.9022 158.162 93.9022C158.991 93.9022 159.727 94.0737 160.369 94.4167C161.01 94.7596 161.514 95.2408 161.879 95.8603C162.244 96.4798 162.426 97.1823 162.426 97.9677C162.426 98.7863 162.227 99.5109 161.829 100.141C161.431 100.772 160.867 101.27 160.136 101.635C159.417 101.989 158.571 102.166 157.598 102.166ZM157.764 100.49C158.261 100.49 158.698 100.385 159.074 100.175C159.462 99.9534 159.76 99.6547 159.97 99.2786C160.192 98.9025 160.302 98.4821 160.302 98.0175C160.302 97.5529 160.192 97.1491 159.97 96.8062C159.76 96.4522 159.462 96.1701 159.074 95.9599C158.698 95.7497 158.25 95.6446 157.73 95.6446C157.233 95.6446 156.784 95.7442 156.386 95.9433C155.999 96.1424 155.695 96.419 155.474 96.773C155.263 97.1159 155.158 97.5142 155.158 97.9677C155.158 98.4323 155.269 98.8582 155.49 99.2454C155.711 99.6326 156.016 99.9368 156.403 100.158C156.801 100.379 157.255 100.49 157.764 100.49ZM165.154 102V93.1389H167.228V102H165.154ZM166.199 91.6787C165.812 91.6787 165.491 91.557 165.237 91.3136C164.994 91.0702 164.872 90.7771 164.872 90.4342C164.872 90.0802 164.994 89.787 165.237 89.5547C165.491 89.3113 165.812 89.1896 166.199 89.1896C166.587 89.1896 166.902 89.3058 167.145 89.5381C167.4 89.7593 167.527 90.0414 167.527 90.3844C167.527 90.7494 167.405 91.0592 167.162 91.3136C166.919 91.557 166.598 91.6787 166.199 91.6787Z" fill="black"/>
<path d="M48.8632 135.661V123.836H42.7496L42.6381 126.602C42.5934 127.644 42.5265 128.633 42.4372 129.57C42.3629 130.492 42.2364 131.333 42.0579 132.091C41.8943 132.85 41.6637 133.482 41.3662 133.988C41.0687 134.494 40.7043 134.828 40.2729 134.992L37.1492 134.546C37.7144 134.575 38.1756 134.382 38.5326 133.965C38.9044 133.549 39.1945 132.969 39.4027 132.225C39.611 131.481 39.7672 130.611 39.8713 129.615C39.9754 128.603 40.0498 127.51 40.0944 126.335L40.2729 121.381H51.7192V135.661H48.8632ZM36.6137 140.325L36.636 134.546H53.9728V140.325H51.2953V137H39.3135V140.325H36.6137ZM64.9156 137.223C63.6958 137.223 62.5727 137.022 61.5464 136.621C60.52 136.219 59.6275 135.661 58.8689 134.947C58.1102 134.218 57.5227 133.37 57.1062 132.404C56.6897 131.422 56.4814 130.351 56.4814 129.191C56.4814 128.03 56.6897 126.967 57.1062 126C57.5227 125.018 58.1102 124.17 58.8689 123.456C59.6275 122.727 60.52 122.162 61.5464 121.761C62.5727 121.359 63.6884 121.158 64.8932 121.158C66.113 121.158 67.2286 121.359 68.2401 121.761C69.2665 122.162 70.159 122.727 70.9176 123.456C71.6762 124.17 72.2638 125.018 72.6803 126C73.0968 126.967 73.3051 128.03 73.3051 129.191C73.3051 130.351 73.0968 131.422 72.6803 132.404C72.2638 133.385 71.6762 134.233 70.9176 134.947C70.159 135.661 69.2665 136.219 68.2401 136.621C67.2286 137.022 66.1204 137.223 64.9156 137.223ZM64.8932 134.679C65.6816 134.679 66.4105 134.546 67.0799 134.278C67.7492 134.01 68.3294 133.631 68.8202 133.14C69.3111 132.634 69.6904 132.054 69.9582 131.4C70.2408 130.73 70.3821 129.994 70.3821 129.191C70.3821 128.387 70.2408 127.658 69.9582 127.004C69.6904 126.335 69.3111 125.754 68.8202 125.264C68.3294 124.758 67.7492 124.371 67.0799 124.103C66.4105 123.836 65.6816 123.702 64.8932 123.702C64.1049 123.702 63.376 123.836 62.7066 124.103C62.0521 124.371 61.472 124.758 60.9662 125.264C60.4754 125.754 60.0886 126.335 59.806 127.004C59.5382 127.658 59.4044 128.387 59.4044 129.191C59.4044 129.979 59.5382 130.708 59.806 131.377C60.0886 132.047 60.4754 132.634 60.9662 133.14C61.4571 133.631 62.0372 134.01 62.7066 134.278C63.376 134.546 64.1049 134.679 64.8932 134.679ZM77.4943 137V121.381H91.3057V137H88.4497V123.122L89.1191 123.836H79.6809L80.3503 123.122V137H77.4943ZM103.921 137.223C102.702 137.223 101.579 137.022 100.552 136.621C99.5258 136.219 98.6333 135.661 97.8747 134.947C97.1161 134.218 96.5285 133.37 96.112 132.404C95.6955 131.422 95.4872 130.351 95.4872 129.191C95.4872 128.03 95.6955 126.967 96.112 126C96.5285 125.018 97.1161 124.17 97.8747 123.456C98.6333 122.727 99.5258 122.162 100.552 121.761C101.579 121.359 102.694 121.158 103.899 121.158C105.119 121.158 106.234 121.359 107.246 121.761C108.272 122.162 109.165 122.727 109.923 123.456C110.682 124.17 111.27 125.018 111.686 126C112.103 126.967 112.311 128.03 112.311 129.191C112.311 130.351 112.103 131.422 111.686 132.404C111.27 133.385 110.682 134.233 109.923 134.947C109.165 135.661 108.272 136.219 107.246 136.621C106.234 137.022 105.126 137.223 103.921 137.223ZM103.899 134.679C104.687 134.679 105.416 134.546 106.086 134.278C106.755 134.01 107.335 133.631 107.826 133.14C108.317 132.634 108.696 132.054 108.964 131.4C109.247 130.73 109.388 129.994 109.388 129.191C109.388 128.387 109.247 127.658 108.964 127.004C108.696 126.335 108.317 125.754 107.826 125.264C107.335 124.758 106.755 124.371 106.086 124.103C105.416 123.836 104.687 123.702 103.899 123.702C103.111 123.702 102.382 123.836 101.712 124.103C101.058 124.371 100.478 124.758 99.9721 125.264C99.4812 125.754 99.0944 126.335 98.8118 127.004C98.5441 127.658 98.4102 128.387 98.4102 129.191C98.4102 129.979 98.5441 130.708 98.8118 131.377C99.0944 132.047 99.4812 132.634 99.9721 133.14C100.463 133.631 101.043 134.01 101.712 134.278C102.382 134.546 103.111 134.679 103.899 134.679ZM116.5 137V121.381H118.865L125.715 132.783H124.443L131.182 121.381H133.547L133.591 137H130.825L130.802 125.688H131.383L125.671 135.215H124.376L118.575 125.688H119.245V137H116.5ZM146.174 137.223C144.954 137.223 143.831 137.022 142.805 136.621C141.778 136.219 140.886 135.661 140.127 134.947C139.369 134.218 138.781 133.37 138.364 132.404C137.948 131.422 137.74 130.351 137.74 129.191C137.74 128.03 137.948 126.967 138.364 126C138.781 125.018 139.369 124.17 140.127 123.456C140.886 122.727 141.778 122.162 142.805 121.761C143.831 121.359 144.947 121.158 146.152 121.158C147.371 121.158 148.487 121.359 149.498 121.761C150.525 122.162 151.417 122.727 152.176 123.456C152.935 124.17 153.522 125.018 153.939 126C154.355 126.967 154.563 128.03 154.563 129.191C154.563 130.351 154.355 131.422 153.939 132.404C153.522 133.385 152.935 134.233 152.176 134.947C151.417 135.661 150.525 136.219 149.498 136.621C148.487 137.022 147.379 137.223 146.174 137.223ZM146.152 134.679C146.94 134.679 147.669 134.546 148.338 134.278C149.008 134.01 149.588 133.631 150.079 133.14C150.569 132.634 150.949 132.054 151.216 131.4C151.499 130.73 151.64 129.994 151.64 129.191C151.64 128.387 151.499 127.658 151.216 127.004C150.949 126.335 150.569 125.754 150.079 125.264C149.588 124.758 149.008 124.371 148.338 124.103C147.669 123.836 146.94 123.702 146.152 123.702C145.363 123.702 144.634 123.836 143.965 124.103C143.31 124.371 142.73 124.758 142.225 125.264C141.734 125.754 141.347 126.335 141.064 127.004C140.797 127.658 140.663 128.387 140.663 129.191C140.663 129.979 140.797 130.708 141.064 131.377C141.347 132.047 141.734 132.634 142.225 133.14C142.715 133.631 143.296 134.01 143.965 134.278C144.634 134.546 145.363 134.679 146.152 134.679ZM158.753 137V121.381H169.351L169.329 123.836H160.917L161.586 123.144L161.609 137H158.753ZM176.022 137V123.122L176.714 123.836H170.868V121.381H184.077V123.836H178.231L178.9 123.122V137H176.022ZM187.561 137V121.381H190.417V132.471L198.806 121.381H201.506V137H198.65V125.933L190.261 137H187.561Z" fill="#212529"/>
<defs>
<clipPath id="clip0_5_510">
<rect width="240" height="215" fill="white"/>
</clipPath>
</defs>
</svg>
