<svg width="181" height="187" viewBox="0 0 181 187" fill="none" xmlns="http://www.w3.org/2000/svg">
<path d="M78.6883 98.1679C79.9755 99.0986 81.4935 98.901 82.2944 97.6988C83.0954 96.4959 82.7422 94.9452 81.455 94.0144C80.1678 93.0837 78.6492 93.2814 77.8483 94.4836C77.0473 95.6865 77.4011 97.2372 78.6883 98.1679Z" fill="#EE3811"/>
<path d="M56.8367 82.9887C58.1237 83.9194 59.7592 83.8064 60.5601 82.6036C61.361 81.4013 61.0802 79.7407 59.7932 78.81C58.5061 77.8793 56.9876 78.0769 56.0697 79.1952C55.2689 80.3974 55.5496 82.058 56.8367 82.9887Z" fill="#EE3811"/>
<path d="M35.0943 67.8867C36.3813 68.8175 37.8998 68.6198 38.7006 67.4176C39.5015 66.2148 39.148 64.6634 37.8609 63.7333C36.5739 62.8024 35.0554 63.0001 34.2545 64.2024C33.4537 65.4053 33.8072 66.956 35.0943 67.8867Z" fill="#EE3811"/>
<path d="M143.435 120.772C142.148 119.842 140.63 120.039 139.829 121.242C139.028 122.444 139.382 123.995 140.669 124.926C141.955 125.856 143.474 125.658 144.275 124.456C145.193 123.338 144.839 121.787 143.435 120.772Z" fill="#EE3811"/>
<path d="M121.802 105.755C120.515 104.825 118.996 105.022 118.078 106.14C117.277 107.342 117.631 108.894 118.845 109.934C120.133 110.864 121.651 110.667 122.569 109.549C123.37 108.346 123.088 106.686 121.802 105.755Z" fill="#EE3811"/>
<path d="M97.1058 94.8399C98.393 95.7706 99.9116 95.573 100.713 94.3702C101.513 93.1679 101.16 91.6165 99.8725 90.6858C98.5854 89.7557 97.0667 89.9534 96.2664 91.1556C95.4655 92.3578 95.8186 93.9092 97.1058 94.8399Z" fill="#EE3811"/>
<path d="M75.2464 79.6531C76.533 80.5832 78.0945 80.5794 78.8948 79.3778C79.6951 78.1762 79.4145 76.5168 78.1285 75.5868C76.842 74.6567 75.2079 74.7697 74.4076 75.9713C73.6799 77.0636 74.033 78.6138 75.2464 79.6531Z" fill="#EE3811"/>
<path d="M53.5086 64.5511C54.7956 65.4818 56.3141 65.2841 57.232 64.1659C58.0329 62.9637 57.6793 61.4124 56.465 60.3725C55.178 59.4418 53.6595 59.6395 52.7416 60.7573C51.9407 61.9598 52.2215 63.6204 53.5086 64.5511Z" fill="#EE3811"/>
<path d="M140.103 102.335C138.816 101.404 137.297 101.602 136.497 102.804C135.696 104.007 136.049 105.558 137.336 106.488C138.623 107.419 140.142 107.221 140.943 106.019C141.743 104.816 141.39 103.265 140.103 102.335Z" fill="#EE3811"/>
<path d="M119.056 91.1447C119.973 90.0271 119.692 88.3664 118.478 87.3271C117.264 86.2872 115.629 86.4002 114.711 87.5178C113.793 88.6354 114.074 90.2961 115.288 91.336C116.692 92.3513 118.255 92.3475 119.056 91.1447Z" fill="#EE3811"/>
<path d="M93.6584 76.3137C94.9449 77.2444 96.5077 77.2406 97.3087 76.0384C98.1096 74.8355 97.9456 73.2601 96.6584 72.3294C95.3719 71.3987 93.736 71.5117 92.9356 72.7139C92.0906 73.7223 92.4437 75.2737 93.6584 76.3137Z" fill="#EE3811"/>
<path d="M72.0329 61.2994C73.3201 62.23 74.8388 62.0323 75.7122 60.7206C76.5132 59.5181 76.1594 57.9669 74.7555 56.9517C73.4683 56.0211 71.9497 56.2187 71.0762 57.5304C70.3926 58.8175 70.7458 60.3687 72.0329 61.2994Z" fill="#EE3811"/>
<path d="M136.771 83.8973C135.484 82.9665 133.966 83.1642 133.165 84.3664C132.364 85.5693 132.718 87.12 134.005 88.0507C135.292 88.9814 136.81 88.7838 137.611 87.5816C138.412 86.3794 138.059 84.828 136.771 83.8973Z" fill="#EE3811"/>
<path d="M112.27 72.956C113.557 73.8867 115.076 73.689 115.949 72.3769C116.75 71.1747 116.28 69.5387 114.992 68.608C113.705 67.6773 112.187 67.8749 111.313 69.187C110.556 70.5831 110.909 72.1345 112.27 72.956Z" fill="#EE3811"/>
<path d="M90.4077 57.7697C91.6948 58.7003 93.2128 58.5026 94.1311 57.3848C94.932 56.1824 94.5782 54.6311 93.3642 53.5912C92.077 52.6606 90.5584 52.8582 89.6408 53.9761C88.7673 55.2878 89.1205 56.8391 90.4077 57.7697Z" fill="#EE3811"/>
<path d="M133.558 65.5486C132.27 64.6172 130.633 64.7303 129.832 65.9337C129.031 67.1366 129.194 68.7139 130.482 69.6452C131.77 70.5766 133.334 70.5728 134.135 69.3693C135.127 68.1412 134.846 66.4799 133.558 65.5486Z" fill="#EE3811"/>
<path d="M108.822 54.4338C110.109 55.3644 111.744 55.2513 112.545 54.0489C113.346 52.8465 113.065 51.1859 111.778 50.2553C110.491 49.3246 108.973 49.5223 108.055 50.6401C107.181 51.9519 107.535 53.5032 108.822 54.4338Z" fill="#EE3811"/>
<path d="M127.353 51.19C128.64 52.1206 130.159 51.9229 131.033 50.6112C131.833 49.4088 131.48 47.8575 130.076 46.8423C128.789 45.9117 127.27 46.1094 126.397 47.4211C125.713 48.7081 126.066 50.2594 127.353 51.19Z" fill="#EE3811"/>
<path d="M91.4472 149.319C90.1601 148.388 88.6414 148.586 87.8405 149.788C87.0395 150.991 87.3933 152.543 88.6799 153.473C89.9671 154.404 91.4857 154.206 92.2866 153.003C93.0876 151.801 92.8069 150.141 91.4472 149.319Z" fill="#EE3811"/>
<path d="M66.2465 134.469C65.3283 135.586 65.6089 137.247 66.8236 138.286C68.0376 139.326 69.6729 139.213 70.5905 138.095C71.5087 136.978 71.2281 135.317 70.0134 134.277C68.6096 133.262 66.9743 133.376 66.2465 134.469Z" fill="#EE3811"/>
<path d="M45.0835 123.192C46.3706 124.122 47.8891 123.924 48.807 122.807C49.6078 121.604 49.2542 120.053 48.04 119.013C46.753 118.082 45.2344 118.28 44.3166 119.398C43.4429 120.71 43.7965 122.261 45.0835 123.192Z" fill="#EE3811"/>
<path d="M109.932 145.873C108.646 144.943 107.127 145.141 106.253 146.452C105.453 147.654 105.806 149.206 107.21 150.221C108.497 151.152 110.015 150.954 110.889 149.642C111.573 148.355 111.219 146.804 109.932 145.873Z" fill="#EE3811"/>
<path d="M85.3528 135.036C86.64 135.966 88.1586 135.769 89.0762 134.65C89.8772 133.448 89.524 131.897 88.3093 130.857C87.0228 129.926 85.5042 130.124 84.5859 131.242C83.7124 132.553 84.0663 134.105 85.3528 135.036Z" fill="#EE3811"/>
<path d="M63.61 119.941C64.8972 120.872 66.4152 120.675 67.2161 119.472C68.0171 118.269 67.6633 116.718 66.3767 115.787C65.0895 114.857 63.5709 115.055 62.7702 116.257C61.9693 117.459 62.3228 119.011 63.61 119.941Z" fill="#EE3811"/>
<path d="M41.8687 104.84C43.1556 105.771 44.674 105.573 45.4749 104.371C46.2757 103.168 45.9221 101.617 44.6351 100.686C43.3482 99.7556 41.8298 99.9532 41.0289 101.155C40.1111 102.274 40.5817 103.909 41.8687 104.84Z" fill="#EE3811"/>
<path d="M128.463 142.616C127.175 141.685 125.657 141.883 124.856 143.086C124.055 144.288 124.409 145.839 125.696 146.77C126.983 147.7 128.502 147.503 129.302 146.3C130.03 145.207 129.75 143.547 128.463 142.616Z" fill="#EE3811"/>
<path d="M106.607 127.436C105.32 126.506 103.802 126.703 103.001 127.905C102.2 129.108 102.553 130.659 103.84 131.59C105.127 132.52 106.646 132.322 107.447 131.12C108.291 130.112 107.894 128.366 106.607 127.436Z" fill="#EE3811"/>
<path d="M81.9088 116.517C83.1947 117.447 84.7569 117.443 85.5572 116.242C86.3575 115.04 86.0769 113.381 84.7903 112.451C83.5044 111.521 81.9429 111.525 81.0694 112.835C80.3422 113.928 80.6229 115.587 81.9088 116.517Z" fill="#EE3811"/>
<path d="M71.1408 154.635C72.3958 155.608 72.6934 157.169 71.9619 158.428C71.1168 159.6 69.5893 159.744 68.2574 158.877C67.0024 157.903 66.7047 156.343 67.4362 155.083C68.3583 153.805 69.8857 153.661 71.1408 154.635Z" fill="#EE3811"/>
<path d="M49.9544 138.769C51.2093 139.742 51.5071 141.303 50.6616 142.474C49.8161 143.645 48.2886 143.789 47.0337 142.816C45.7787 141.842 45.481 140.282 46.3265 139.11C47.1719 137.939 48.6995 137.795 49.9544 138.769Z" fill="#EE3811"/>
<path d="M52.5169 157.226C53.771 158.2 54.2593 159.74 53.4144 160.911C52.5695 162.081 50.9662 162.332 49.7121 161.359C48.4581 160.385 47.9697 158.845 48.8914 157.567C49.6595 156.504 51.2628 156.253 52.5169 157.226Z" fill="#EE3811"/>
<path d="M60.2779 101.504C61.5649 102.435 63.0834 102.237 63.8843 101.035C64.6852 99.8325 64.3314 98.2811 63.0445 97.3503C61.7575 96.4196 60.239 96.6173 59.4381 97.8201C58.6373 99.0223 58.9908 100.574 60.2779 101.504Z" fill="#EE3811"/>
<path d="M38.4263 86.3243C39.7133 87.255 41.2318 87.0574 42.0327 85.8545C42.8336 84.6523 42.48 83.1009 41.193 82.1702C39.9059 81.2401 38.3874 81.4377 37.5866 82.64C36.7857 83.8422 37.1393 85.3936 38.4263 86.3243Z" fill="#EE3811"/>
<path d="M146.876 139.28C145.589 138.349 144.071 138.547 143.27 139.75C142.469 140.952 142.823 142.503 144.11 143.434C145.397 144.365 146.915 144.167 147.716 142.964C148.444 141.871 148.163 140.211 146.876 139.28Z" fill="#EE3811"/>
<path d="M125.136 124.187C123.848 123.255 122.284 123.259 121.41 124.572C120.609 125.775 120.773 127.352 122.06 128.283C123.348 129.214 124.912 129.21 125.713 128.007C126.705 126.779 126.351 125.227 125.136 124.187Z" fill="#EE3811"/>
<path d="M100.434 113.262C101.721 114.192 103.24 113.995 104.158 112.877C104.959 111.674 104.605 110.123 103.391 109.083C102.104 108.153 100.586 108.35 99.6673 109.468C98.8664 110.671 99.1476 112.331 100.434 113.262Z" fill="#EE3811"/>
</svg>
