<svg width="124" height="124" viewBox="0 0 124 124" fill="none" xmlns="http://www.w3.org/2000/svg">
<g clip-path="url(#clip0_5_340)">
<path d="M8.11719 31.2093L31.3498 7.97656C27.2911 10.3559 23.3723 13.155 20.0134 16.374L16.5145 19.7329C13.2955 23.2318 10.4965 27.0106 8.11719 31.2093Z" fill="#1B2421"/>
<path d="M1.25781 49.5413L49.8222 0.976562C48.4226 1.25647 47.1631 1.53639 45.9034 1.95626L2.37744 45.4826C1.81761 46.8821 1.53772 48.2817 1.25781 49.5413Z" fill="#1B2421"/>
<path d="M0 62.0005C0 62.1404 0 62.2804 0 62.4204L62.4199 0C62.28 0 62.1401 0 62.0001 0C61.1603 0 60.1806 0 59.3409 0L0 59.2014C0 60.1811 0 61.0208 0 62.0005Z" fill="#1B2421"/>
<path d="M0.978445 72.9191L73.0553 0.841743C72.2156 0.701787 71.3758 0.561831 70.3961 0.421875L0.558594 70.2599C0.698549 71.0997 0.838489 71.9394 0.978445 72.9191Z" fill="#1B2421"/>
<path d="M3.35993 82.0109L82.1549 3.2154C81.455 2.93549 80.6154 2.65558 79.9155 2.51562L2.66016 79.7714C2.80011 80.4713 3.08002 81.311 3.35993 82.0109Z" fill="#1B2421"/>
<path d="M6.71728 90.1354L90.1307 6.72188C89.4307 6.44197 88.7308 6.0221 88.0309 5.74219L5.59766 88.176C6.01752 88.7363 6.43737 89.4362 6.71728 90.1354Z" fill="#1B2421"/>
<path d="M11.0564 97.2686L97.4088 10.9158C96.8485 10.496 96.1494 10.0761 95.5891 9.65625L9.79688 95.4489C10.2168 96.1489 10.6366 96.7091 11.0564 97.2686Z" fill="#1B2421"/>
<path d="M16.0942 103.707L103.706 16.0949C103.147 15.675 102.586 15.1151 102.027 14.6953L14.5547 102.168C15.2545 102.588 15.6743 103.148 16.0942 103.707Z" fill="#1B2421"/>
<path d="M21.9731 109.308L109.445 21.8357C109.025 21.2758 108.465 20.716 108.045 20.1562L20.4336 107.768C20.8534 108.468 21.4133 108.888 21.9731 109.308Z" fill="#1B2421"/>
<path d="M28.5499 114.206L114.343 28.4132C113.923 27.8534 113.503 27.1536 113.083 26.5938L26.7305 112.947C27.4302 113.367 27.99 113.786 28.5499 114.206Z" fill="#1B2421"/>
<path d="M36.1078 118.26L118.542 35.8259C118.261 35.1261 117.842 34.4263 117.562 33.7266L34.1484 117.14C34.7082 117.7 35.408 117.98 36.1078 118.26Z" fill="#1B2421"/>
<path d="M44.3642 121.48L121.48 44.3642C121.199 43.5246 121.06 42.8248 120.78 42.125L42.125 120.78C42.8248 120.92 43.6645 121.2 44.3642 121.48Z" fill="#1B2421"/>
<path d="M53.8819 123.443L123.58 53.7451C123.439 52.9054 123.299 51.9257 123.16 51.0859L51.2227 123.023C52.0624 123.163 53.0421 123.304 53.8819 123.443Z" fill="#1B2421"/>
<path d="M61.9986 123.999C62.9783 123.999 63.958 123.999 64.7978 123.999L123.999 64.7978C123.999 63.8181 123.999 62.8384 123.999 61.9986C123.999 61.8587 123.999 61.8587 123.999 61.7188L61.7188 123.999C61.8587 123.999 61.9986 123.999 61.9986 123.999Z" fill="#1B2421"/>
<path d="M78.5159 121.758L121.762 78.5117C122.182 77.2523 122.462 75.8525 122.741 74.4531L74.457 122.738C75.9963 122.458 77.2564 122.178 78.5159 121.758Z" fill="#1B2421"/>
<path d="M115.744 93.0703L93.2109 115.603C102.588 110.145 110.286 102.447 115.744 93.0703Z" fill="#1B2421"/>
</g>
<defs>
<clipPath id="clip0_5_340">
<rect width="124" height="124" fill="white"/>
</clipPath>
</defs>
</svg>
