<svg width="100" height="96" viewBox="0 0 100 96" fill="none" xmlns="http://www.w3.org/2000/svg">
<g clip-path="url(#clip0_5_46)">
<g clip-path="url(#clip1_5_46)">
<g clip-path="url(#clip2_5_46)">
<mask id="mask0_5_46" style="mask-type:luminance" maskUnits="userSpaceOnUse" x="0" y="0" width="100" height="96">
<path d="M100 0H0V96H100V0Z" fill="white"/>
</mask>
<g mask="url(#mask0_5_46)">
<path d="M99.9006 48.5034L62.0872 95.7452L1.00391 77.691V19.3159L62.0872 1.26172L99.9006 48.5034Z" fill="#D5E3AE"/>
<path fill-rule="evenodd" clip-rule="evenodd" d="M44.7573 15.6363H39.6419C39.2407 15.536 39.0401 15.3353 39.0401 15.0344C39.0401 14.7335 39.341 14.4326 39.6419 14.4326H44.7573C45.0582 14.4326 45.3591 14.7335 45.3591 15.0344C45.3591 15.3353 45.0582 15.6363 44.7573 15.6363ZM34.6269 78.9261H49.672C50.0732 78.9261 50.2738 79.227 50.1735 79.5279C50.1735 79.8288 49.8726 80.1297 49.5717 80.1297H34.6269C34.326 80.1297 34.0251 79.8288 34.0251 79.5279C34.0251 79.227 34.326 78.9261 34.6269 78.9261ZM14.9679 31.1829C14.9679 31.4838 14.667 31.7847 14.3661 31.7847C14.0652 31.7847 13.8646 31.4838 13.7643 31.1829V20.8519C13.7643 20.551 14.0652 20.3504 14.3661 20.3504C14.667 20.3504 14.9679 20.6513 14.9679 20.9522V31.1829ZM14.9679 37.8027C14.9679 38.1037 14.667 38.4046 14.3661 38.4046C14.0652 38.4046 13.7643 38.1037 13.7643 37.8027V34.3925C13.7643 34.0916 14.0652 33.891 14.3661 33.891C14.667 33.891 14.9679 34.1919 14.9679 34.4928V37.8027ZM30.8155 2.49683C30.6148 2.69743 30.2136 2.69743 30.013 2.49683L28.6088 1.19292C28.4082 0.892015 28.3079 0.490818 28.6088 0.290216C28.9097 0.0896141 29.3109 0.0896141 29.5115 0.290216L30.8155 1.59413C31.0161 1.89503 31.0161 2.29623 30.8155 2.49683ZM34.2257 6.7095L32.8215 5.50586C32.6209 5.20496 32.6209 4.80376 32.8215 4.60316C33.1224 4.40256 33.5236 4.40256 33.7242 4.60316L35.0281 5.90707C35.2287 6.10768 35.2287 6.50887 35.0281 6.70947C34.9278 6.80977 34.7272 6.91008 34.6269 6.91008C34.4263 6.91008 34.326 6.80979 34.2257 6.7095ZM29.5115 6.70947C29.4112 6.80977 29.2106 6.91008 29.1103 6.91008C29.054 6.85376 28.966 6.82906 28.8642 6.80046C28.7847 6.77814 28.6968 6.75344 28.6088 6.70947C28.4082 6.40857 28.4082 6.00737 28.6088 5.80677L29.9127 4.50285C30.2136 4.30225 30.6148 4.20195 30.8155 4.50285C31.0161 4.80375 31.0161 5.20497 30.8155 5.40557L29.5115 6.70947ZM33.8245 2.39654C33.7242 2.49684 33.5236 2.59714 33.4233 2.59714C33.2226 2.59714 33.022 2.49684 32.9217 2.39654C32.7211 2.09564 32.7211 1.69443 32.9217 1.49382L34.2257 0.189909C34.5266 -0.010693 34.9278 -0.110994 35.1284 0.189909C35.329 0.490812 35.329 0.892024 35.1284 1.09263L33.8245 2.39654ZM72.7412 75.8168C73.0421 75.6162 73.4433 75.6162 73.6439 75.8168L74.8475 77.221C75.0481 77.4216 75.0481 77.8228 74.8475 78.0234C74.7472 78.1237 74.5466 78.224 74.4464 78.224C74.2457 78.224 74.1454 78.1237 74.0451 78.0234L72.7412 76.7195C72.5406 76.4186 72.5406 76.0174 72.7412 75.8168ZM76.9539 80.0294C77.2548 79.8288 77.656 79.8288 77.8566 80.0294L79.0602 81.4336C79.2608 81.6342 79.2608 82.0355 79.0602 82.2361C78.8596 82.4367 78.4584 82.4367 78.2578 82.2361L76.9539 80.9321C76.7533 80.6312 76.653 80.23 76.9539 80.0294ZM72.7412 81.3333L74.0451 80.0294C74.346 79.8288 74.6469 79.8288 74.8475 79.9291C75.0481 80.23 75.0481 80.6312 74.8475 80.8318L73.5436 82.1358C73.4433 82.2361 73.2427 82.3363 73.1424 82.3363C72.9418 82.3363 72.8415 82.2361 72.7412 82.1358C72.5406 81.9352 72.5406 81.5339 72.7412 81.3333ZM77.0541 77.1207L78.3581 75.8168C78.5587 75.6162 78.9599 75.6162 79.1605 75.8168C79.3611 76.1177 79.3611 76.5189 79.1605 76.7195L77.8566 78.0234C77.656 78.224 77.2547 78.224 77.0541 78.0234C76.8535 77.7225 76.8535 77.3213 77.0541 77.1207ZM9.15045 81.1328C9.45135 80.9322 9.85255 80.9322 10.0532 81.1328L11.2568 82.4367C11.4574 82.7376 11.4574 83.1388 11.2568 83.3394C11.0562 83.54 10.655 83.54 10.4544 83.3394L9.15045 82.0355C8.94985 81.7346 8.94985 81.3334 9.15045 81.1328ZM13.4634 85.2451C13.7643 85.0445 14.1655 85.0445 14.3661 85.2451L15.5697 86.549C15.7703 86.8499 15.7703 87.2511 15.5697 87.4517C15.3691 87.6523 14.9679 87.6523 14.7673 87.4517L13.4634 86.1478C13.2628 85.8469 13.2628 85.4457 13.4634 85.2451ZM9.25076 86.549L10.5547 85.2451C10.7553 85.1448 11.0562 85.1448 11.3571 85.1448C11.5577 85.4457 11.5577 85.8469 11.3571 86.0475L10.0532 87.3514C9.85255 87.552 9.45136 87.552 9.25076 87.3514C9.05016 87.1508 9.05016 86.7496 9.25076 86.549ZM13.4634 82.4367L14.7673 81.1328C15.0682 80.8318 15.3691 80.8318 15.5697 81.0324C15.7703 81.3334 15.7703 81.7346 15.5697 81.9352L14.2658 83.2391C14.1655 83.3394 13.9649 83.4397 13.8646 83.4397C13.664 83.4397 13.5637 83.3394 13.4634 83.2391C13.2628 83.0385 13.2628 82.6373 13.4634 82.4367ZM79.3611 16.2381C79.3611 17.9432 77.9569 19.2471 76.3521 19.2471C74.7472 19.2471 73.343 17.8429 73.343 16.2381C73.343 14.5329 74.7472 13.229 76.3521 13.229C78.0572 13.229 79.3611 14.6332 79.3611 16.2381ZM78.1575 16.3384C78.1575 15.3354 77.3551 14.5329 76.3521 14.5329C75.349 14.5329 74.5466 15.3354 74.5466 16.3384C74.5466 17.3414 75.349 18.1438 76.3521 18.1438C77.3551 18.1438 78.1575 17.3414 78.1575 16.3384ZM93.6038 88.7556C93.6038 87.0505 95.008 85.7466 96.6128 85.7466C98.2176 85.7466 99.6219 87.0505 99.6219 88.7556C99.6219 90.4607 98.3179 91.7647 96.6128 91.7647C94.9077 91.7647 93.6038 90.4607 93.6038 88.7556ZM94.8074 88.6553C94.8074 89.6583 95.6098 90.4607 96.6128 90.4607C97.6158 90.4607 98.4183 89.6583 98.4183 88.6553C98.4183 87.6523 97.6158 86.8499 96.6128 86.8499C95.6098 86.8499 94.8074 87.6523 94.8074 88.6553ZM94.8074 6.00736H83.674C83.3731 6.00736 83.0722 5.70647 83.0722 5.40557C83.0722 5.10467 83.3731 4.80376 83.674 4.80376H94.8074C95.1083 4.80376 95.4092 5.10467 95.4092 5.40557C95.4092 5.70647 95.1083 6.00736 94.8074 6.00736ZM102.029 6.00736H98.4183C98.0171 6.00736 97.7161 5.70647 97.8165 5.40557C97.8165 5.10467 98.1174 4.80376 98.4183 4.80376H102.029C102.33 4.80376 102.631 5.10467 102.631 5.40557C102.631 5.70647 102.33 6.00736 102.029 6.00736ZM94.2056 8.61519H101.929C102.33 8.61519 102.531 8.91609 102.531 9.21699C102.531 9.51789 102.23 9.8188 101.929 9.8188H94.2056C93.9047 9.8188 93.6038 9.51789 93.6038 9.21699C93.6038 8.91609 93.9047 8.61519 94.2056 8.61519ZM87.7864 9.21699C87.7864 8.91609 88.0873 8.61519 88.3882 8.61519H90.8957C91.1966 8.61519 91.4975 8.91609 91.4975 9.21699C91.4975 9.51789 91.1966 9.8188 90.8957 9.8188H88.3882C88.0873 9.8188 87.7864 9.51789 87.7864 9.21699ZM33.6239 94.3725H44.7573C45.0582 94.3725 45.3591 94.5731 45.3591 94.9743C45.3591 95.2752 45.0582 95.5761 44.7573 95.5761H33.6239C33.323 95.5761 33.0221 95.2752 33.0221 94.9743C33.0221 94.6734 33.323 94.3725 33.6239 94.3725ZM26.4022 94.3725H30.013C30.3139 94.2721 30.6148 94.5731 30.6148 94.9743C30.6148 95.2752 30.4142 95.5761 30.013 95.5761H26.4022C26.1013 95.5761 25.8004 95.2752 25.8004 94.9743C25.8004 94.6734 26.1013 94.3725 26.4022 94.3725ZM34.1254 91.6644H26.4022C26.001 91.6644 25.8004 91.3634 25.8004 91.0625C25.8004 90.7616 26.1013 90.4607 26.4022 90.4607H34.1254C34.4263 90.4607 34.7272 90.7616 34.7272 91.0625C34.7272 91.3634 34.4263 91.6644 34.1254 91.6644ZM40.5446 91.0625C40.5446 91.3634 40.2437 91.6644 39.9428 91.6644H37.4353C37.1344 91.6644 36.8335 91.3634 36.8335 91.0625C36.8335 90.7616 37.1344 90.4607 37.4353 90.4607H39.9428C40.2437 90.4607 40.5446 90.7616 40.5446 91.0625ZM64.8175 70V80.5309C64.8175 82.9382 62.9117 84.8439 60.5045 84.8439H23.2929C20.8857 84.8439 18.9799 82.9382 18.9799 80.5309V14.1317C18.9799 11.7245 20.8857 9.8188 23.2929 9.8188H60.5045C62.9117 9.8188 64.8175 11.7245 64.8175 14.1317V35H63.9148V20.4507H20.3841V74.4126H63.9148V70H64.8175ZM60.7051 11.1227H23.4935C21.7884 11.1227 20.3842 12.5269 20.2839 14.232V19.1468H63.8144V14.232C63.8144 12.5269 62.4102 11.1227 60.7051 11.1227ZM23.5938 83.6403H60.8054C62.5105 83.6403 63.9147 82.2361 64.015 80.5309V75.6162H20.4844V80.5309C20.4844 82.2361 21.8887 83.6403 23.5938 83.6403Z" fill="#333333"/>
<path d="M62.8817 56.9725L61.9646 56.5738L61.961 56.5822L61.9574 56.5907L62.8817 56.9725ZM65.2467 53.5755L64.5635 52.8452L64.5607 52.8479L65.2467 53.5755ZM69.7187 48.5875L68.8408 48.1086L68.8351 48.119L68.8297 48.1295L69.7187 48.5875ZM69.6757 41.9655L68.809 42.4645L68.8158 42.476L69.6757 41.9655ZM67.3537 39.7295L66.8658 40.6025L66.8766 40.6084L67.3537 39.7295ZM58.8397 40.8475L59.5549 41.5465L59.5627 41.5384L58.8397 40.8475ZM54.1527 46.9965L53.4456 47.7036L53.4624 47.7204L53.48 47.7364L54.1527 46.9965ZM54.9697 40.5895L55.8359 41.0892L55.84 41.0821L54.9697 40.5895ZM58.5387 37.0205L58.053 36.1463L58.0461 36.1502L58.5387 37.0205ZM68.9877 36.9775L68.5006 37.8509L68.5071 37.8545L68.5136 37.858L68.9877 36.9775ZM72.5137 40.3315L71.6562 40.846L71.6608 40.8537L72.5137 40.3315ZM67.6117 55.2955L68.282 56.0376L68.29 56.0303L67.6117 55.2955ZM61.9357 69.2705L61.2075 69.9559L61.2179 69.9669L61.2286 69.9776L61.9357 69.2705ZM65.5047 65.7015L64.7976 66.4086L64.8077 66.4187L64.8181 66.4285L65.5047 65.7015ZM65.5047 69.2705L64.8181 68.5435L64.8077 68.5533L64.7976 68.5634L65.5047 69.2705ZM63.7417 61.3905C63.4925 61.3905 63.3543 61.3199 63.2448 61.2104L61.8306 62.6246C62.3518 63.1458 63.0162 63.3905 63.7417 63.3905V61.3905ZM63.2448 61.2104C63.1467 61.1122 63.0647 60.9664 63.0647 60.6705H61.0647C61.0647 61.4066 61.2981 62.0921 61.8306 62.6246L63.2448 61.2104ZM63.0647 60.6705C63.0647 59.6826 63.2995 58.5805 63.806 57.3543L61.9574 56.5907C61.3746 58.0019 61.0647 59.3651 61.0647 60.6705H63.0647ZM63.7988 57.3712C64.3205 56.1713 65.0321 55.1523 65.9327 54.3031L64.5607 52.8479C63.4547 53.8907 62.5896 55.1364 61.9646 56.5738L63.7988 57.3712ZM65.9299 54.3058C66.8219 53.4713 67.6712 52.6651 68.4778 51.8873L67.0896 50.4477C66.2908 51.2179 65.4489 52.017 64.5635 52.8452L65.9299 54.3058ZM68.4778 51.8873C69.3555 51.041 70.0678 50.0934 70.6077 49.0455L68.8297 48.1295C68.3949 48.9736 67.8172 49.746 67.0896 50.4477L68.4778 51.8873ZM70.5966 49.0664C71.2148 47.9329 71.4927 46.566 71.4927 45.0185H69.4927C69.4927 46.3377 69.2546 47.3501 68.8408 48.1086L70.5966 49.0664ZM71.4927 45.0185C71.4927 43.7298 71.1764 42.5343 70.5356 41.455L68.8158 42.476C69.2643 43.2313 69.4927 44.0712 69.4927 45.0185H71.4927ZM70.5423 41.4665C69.9011 40.3528 68.9888 39.4793 67.8308 38.8506L66.8766 40.6084C67.7253 41.0691 68.3609 41.6862 68.809 42.4645L70.5423 41.4665ZM67.8415 38.8566C66.6928 38.2146 65.3721 37.9125 63.9137 37.9125V39.9125C65.0926 39.9125 66.0651 40.1551 66.8658 40.6025L67.8415 38.8566ZM63.9137 37.9125C61.5509 37.9125 59.576 38.6295 58.1167 40.1566L59.5627 41.5384C60.5687 40.4855 61.9765 39.9125 63.9137 39.9125V37.9125ZM58.1245 40.1486C56.681 41.6257 55.9907 43.5394 55.9907 45.7925H57.9907C57.9907 43.975 58.5331 42.5921 59.5549 41.5465L58.1245 40.1486ZM55.9907 45.7925C55.9907 46.0417 55.9201 46.1799 55.8106 46.2894L57.2248 47.7036C57.746 47.1824 57.9907 46.518 57.9907 45.7925H55.9907ZM55.8106 46.2894C55.7484 46.3515 55.6362 46.4265 55.3567 46.4265V48.4265C56.0519 48.4265 56.7136 48.2148 57.2248 47.7036L55.8106 46.2894ZM55.3567 46.4265C55.0799 46.4265 54.9302 46.3518 54.8254 46.2566L53.48 47.7364C54.0059 48.2145 54.6588 48.4265 55.3567 48.4265V46.4265ZM54.8598 46.2894C54.7503 46.1799 54.6797 46.0417 54.6797 45.7925H52.6797C52.6797 46.518 52.9244 47.1824 53.4456 47.7036L54.8598 46.2894ZM54.6797 45.7925C54.6797 43.9634 55.0759 42.4065 55.8359 41.0892L54.1035 40.0898C53.1435 41.7539 52.6797 43.6656 52.6797 45.7925H54.6797ZM55.84 41.0821C56.6106 39.7206 57.6698 38.6614 59.0313 37.8908L58.0461 36.1502C56.369 37.0996 55.0488 38.4198 54.0994 40.0969L55.84 41.0821ZM59.0243 37.8947C60.4029 37.1288 62.0227 36.7305 63.9137 36.7305V34.7305C61.7341 34.7305 59.7704 35.1922 58.053 36.1463L59.0243 37.8947ZM63.9137 36.7305C65.6541 36.7305 67.1746 37.1113 68.5006 37.8509L69.4748 36.1041C67.8195 35.181 65.9573 34.7305 63.9137 34.7305V36.7305ZM68.5136 37.858C69.848 38.5765 70.89 39.569 71.6562 40.846L73.3712 39.817C72.4174 38.2273 71.1087 36.9838 69.4618 36.097L68.5136 37.858ZM71.6608 40.8537C72.4139 42.0837 72.8037 43.5185 72.8037 45.1905H74.8037C74.8037 43.1932 74.3335 41.3886 73.3666 39.8093L71.6608 40.8537ZM72.8037 45.1905C72.8037 46.68 72.5375 47.8761 72.0539 48.8192L73.8335 49.7318C74.4966 48.4389 74.8037 46.9117 74.8037 45.1905H72.8037ZM72.0539 48.8192C71.531 49.8388 70.8348 50.7872 69.9576 51.6644L71.3718 53.0786C72.3866 52.0638 73.2097 50.9482 73.8335 49.7318L72.0539 48.8192ZM69.9576 51.6644C69.0511 52.5709 68.0432 53.5362 66.9334 54.5607L68.29 56.0303C69.4162 54.9908 70.4436 54.0068 71.3718 53.0786L69.9576 51.6644ZM66.9414 54.5534C65.9348 55.4626 65.2325 56.5211 64.8872 57.7298L66.8102 58.2792C67.0382 57.4812 67.5113 56.7337 68.282 56.0376L66.9414 54.5534ZM64.8872 57.7298C64.5832 58.7936 64.4187 59.7777 64.4187 60.6705H66.4187C66.4187 60.0153 66.5408 59.2221 66.8102 58.2792L64.8872 57.7298ZM64.4187 60.6705C64.4187 60.9664 64.3367 61.1122 64.2386 61.2104L65.6528 62.6246C66.1853 62.0921 66.4187 61.4066 66.4187 60.6705H64.4187ZM64.2386 61.2104C64.1291 61.3199 63.9909 61.3905 63.7417 61.3905V63.3905C64.4672 63.3905 65.1316 63.1458 65.6528 62.6246L64.2386 61.2104ZM63.7417 69.0015C63.2785 69.0015 62.9344 68.855 62.6428 68.5634L61.2286 69.9776C61.9116 70.6607 62.7716 71.0015 63.7417 71.0015V69.0015ZM62.6639 68.5851C62.3852 68.289 62.2477 67.9487 62.2477 67.5075H60.2477C60.2477 68.4423 60.5689 69.2773 61.2075 69.9559L62.6639 68.5851ZM62.2477 67.5075C62.2477 67.0443 62.3942 66.7002 62.6858 66.4086L61.2716 64.9944C60.5885 65.6774 60.2477 66.5374 60.2477 67.5075H62.2477ZM62.6858 66.4086C62.986 66.1084 63.3194 65.9705 63.7417 65.9705V63.9705C62.788 63.9705 61.9461 64.3199 61.2716 64.9944L62.6858 66.4086ZM63.7417 65.9705C64.164 65.9705 64.4974 66.1084 64.7976 66.4086L66.2118 64.9944C65.5373 64.3199 64.6954 63.9705 63.7417 63.9705V65.9705ZM64.8181 66.4285C65.1319 66.7249 65.2787 67.0629 65.2787 67.5075H67.2787C67.2787 66.5187 66.9095 65.6528 66.1913 64.9745L64.8181 66.4285ZM65.2787 67.5075C65.2787 67.9107 65.1412 68.2383 64.8181 68.5435L66.1913 69.9975C66.9002 69.328 67.2787 68.4803 67.2787 67.5075H65.2787ZM64.7976 68.5634C64.4974 68.8636 64.164 69.0015 63.7417 69.0015V71.0015C64.6954 71.0015 65.5373 70.6521 66.2118 69.9776L64.7976 68.5634Z" fill="#333333"/>
<path d="M49.25 27H23.75C23.3358 27 23 27.3358 23 27.75C23 28.1642 23.3358 28.5 23.75 28.5H49.25C49.6642 28.5 50 28.1642 50 27.75C50 27.3358 49.6642 27 49.25 27Z" fill="#1B2421"/>
<path d="M49.25 34H23.75C23.3358 34 23 34.3358 23 34.75C23 35.1642 23.3358 35.5 23.75 35.5H49.25C49.6642 35.5 50 35.1642 50 34.75C50 34.3358 49.6642 34 49.25 34Z" fill="#1B2421"/>
<path d="M49.25 41H23.75C23.3358 41 23 41.3358 23 41.75C23 42.1642 23.3358 42.5 23.75 42.5H49.25C49.6642 42.5 50 42.1642 50 41.75C50 41.3358 49.6642 41 49.25 41Z" fill="#1B2421"/>
<path d="M49.25 48H23.75C23.3358 48 23 48.3358 23 48.75C23 49.1642 23.3358 49.5 23.75 49.5H49.25C49.6642 49.5 50 49.1642 50 48.75C50 48.3358 49.6642 48 49.25 48Z" fill="#1B2421"/>
<path d="M49.25 58H33.75C33.3358 58 33 58.3358 33 58.75C33 59.1642 33.3358 59.5 33.75 59.5H49.25C49.6642 59.5 50 59.1642 50 58.75C50 58.3358 49.6642 58 49.25 58Z" fill="#1B2421"/>
</g>
</g>
</g>
</g>
<defs>
<clipPath id="clip0_5_46">
<rect width="100" height="96" fill="white"/>
</clipPath>
<clipPath id="clip1_5_46">
<rect width="100" height="96" fill="white"/>
</clipPath>
<clipPath id="clip2_5_46">
<rect width="100" height="96" fill="white"/>
</clipPath>
</defs>
</svg>
