<svg width="96" height="100" viewBox="0 0 96 100" fill="none" xmlns="http://www.w3.org/2000/svg">
<g clip-path="url(#clip0_5_26)">
<g clip-path="url(#clip1_5_26)">
<mask id="mask0_5_26" style="mask-type:luminance" maskUnits="userSpaceOnUse" x="0" y="0" width="96" height="100">
<path d="M96 0H0V100H96V0Z" fill="white"/>
</mask>
<g mask="url(#mask0_5_26)">
<path d="M47.8984 98.1523C74.4081 98.1523 95.8984 76.662 95.8984 50.1523C95.8984 23.6427 74.4081 2.15234 47.8984 2.15234C21.3887 2.15234 -0.101562 23.6427 -0.101562 50.1523C-0.101562 76.662 21.3887 98.1523 47.8984 98.1523Z" fill="#D5E3AE"/>
<path d="M35.4977 12.6508H34.0977V11.2508C34.0977 10.9508 33.8977 10.6508 33.4977 10.6508C33.1977 10.6508 32.9977 10.8508 32.9977 11.2508V12.6508H31.5977C31.2977 12.6508 31.0977 12.8508 31.0977 13.1508C31.0977 13.4508 31.2977 13.6508 31.5977 13.7508H32.9977V15.1508C32.9977 15.4508 33.1977 15.7508 33.4977 15.7508C33.7977 15.7508 34.0977 15.5508 34.0977 15.1508V13.8508H35.4977C35.7977 13.8508 35.9977 13.6508 35.9977 13.3508C36.0977 12.9508 35.8977 12.7508 35.4977 12.6508ZM35.2977 19.7508C35.0977 19.5508 34.7977 19.5508 34.5977 19.6508L34.4977 19.7508L33.4977 20.7508L32.4977 19.7508C32.2977 19.5508 31.9977 19.5508 31.7977 19.6508L31.6977 19.7508C31.4977 19.9508 31.4977 20.2508 31.6977 20.4508L32.6977 21.4508L31.6977 22.4508C31.4977 22.6508 31.4977 22.9508 31.6977 23.1508C31.8977 23.3508 32.2977 23.3508 32.4977 23.1508L33.4977 22.1508L34.4977 23.1508C34.6977 23.3508 35.0977 23.3508 35.2977 23.1508C35.4977 22.9508 35.4977 22.6508 35.2977 22.4508L34.2977 21.4508L35.2977 20.4508C35.5977 20.3508 35.5977 20.0508 35.2977 19.7508ZM44.3977 12.6508H40.3977C40.0977 12.6508 39.8977 12.8508 39.8977 13.1508C39.8977 13.4508 40.0977 13.6508 40.3977 13.7508H44.3977C44.6977 13.7508 44.8977 13.5508 44.8977 13.2508C44.9977 12.9508 44.6977 12.6508 44.3977 12.6508ZM42.8977 23.0508C42.6977 22.8508 42.4977 22.8508 42.2977 22.8508C42.1977 22.8508 42.0977 22.9508 42.0977 23.0508L41.8977 23.2508C41.8977 23.3508 41.7977 23.4508 41.7977 23.4508C41.7977 23.5508 41.8977 23.7508 41.9977 23.8508L42.1977 24.0508H42.3977C42.4977 24.0508 42.6977 23.9508 42.7977 23.8508C42.8977 23.7508 42.9977 23.5508 42.9977 23.4508C42.9977 23.3508 42.9977 23.2508 42.8977 23.2508V23.0508ZM44.3977 21.0508H40.3977C40.0977 21.0508 39.8977 21.2508 39.8977 21.5508C39.8977 21.8508 40.0977 22.0508 40.3977 22.1508H44.3977C44.6977 22.1508 44.8977 21.9508 44.8977 21.6508C44.9977 21.2508 44.7977 21.0508 44.3977 21.0508ZM42.4977 20.2508C42.5977 20.2508 42.7977 20.1508 42.8977 20.0508C42.9977 19.9508 43.0977 19.7508 43.0977 19.6508C43.0977 19.5508 42.9977 19.3508 42.8977 19.2508C42.6977 19.0508 42.4977 19.0508 42.2977 19.0508C42.1977 19.0508 42.0977 19.1508 42.0977 19.2508C41.9977 19.3508 41.8977 19.4508 41.8977 19.6508C41.8977 19.7508 41.9977 19.9508 42.0977 20.0508C42.1977 20.0508 42.1977 20.1508 42.2977 20.2508H42.4977ZM29.7977 8.35079H46.5977C46.8977 8.35079 47.0977 8.15079 47.0977 7.85079V3.45079C47.0977 3.15079 46.8977 2.95079 46.5977 2.85079H29.7977C29.4977 2.85079 29.2977 3.05079 29.2977 3.35079V7.75078C29.1977 8.15078 29.3977 8.35079 29.7977 8.35079C29.7977 8.45079 29.6977 8.45079 29.7977 8.35079ZM30.3977 3.95079H45.9977V7.15079H30.3977V3.95079ZM93.0977 44.3508H82.5977V40.4508C82.5977 39.6508 81.9977 39.0508 81.1977 39.0508H79.3977V14.3508C79.3977 11.7508 77.2977 9.55078 74.5977 9.55078H49.8977V2.25078C49.8977 1.05078 48.8977 0.0507812 47.6977 0.0507812H28.5977C27.3977 0.0507812 26.3977 1.05078 26.3977 2.25078V9.55078H19.9977C17.3977 9.55078 15.1977 11.7508 15.1977 14.3508V52.6508L13.1977 50.5508L11.0977 48.4508L8.49765 45.8508C7.79765 45.1508 6.79764 44.7508 5.79764 44.7508C4.79764 44.7508 3.79766 45.1508 3.09766 45.8508C1.59766 47.3508 1.59766 49.7508 3.09766 51.2508L5.69766 53.8508L15.2977 63.5508V86.6508C15.2977 89.2508 17.3977 91.4508 20.0977 91.4508H65.2977C65.3977 91.4508 65.4977 91.3508 65.4977 91.2508L79.1977 77.4508C79.2977 77.4508 79.2977 77.3508 79.2977 77.2508V72.2508H92.9977C94.4977 72.2508 95.6977 71.0508 95.6977 69.4508V47.0508C95.7977 45.6508 94.6977 44.3508 93.1977 44.3508H93.0977ZM81.3977 40.4508V44.3508H68.6977V40.4508C68.6977 40.2508 68.7977 40.1508 68.9977 40.1508H81.0977C81.2977 40.1508 81.3977 40.3508 81.3977 40.4508ZM27.5977 2.25078C27.5977 1.65078 28.0977 1.15079 28.5977 1.15079H47.7977C48.3977 1.25079 48.7977 1.65078 48.8977 2.25078V25.5508C48.8977 26.1508 48.3977 26.6508 47.7977 26.6508H28.6977C28.0977 26.6508 27.5977 26.1508 27.5977 25.6508V2.25078ZM34.9977 74.6508L37.1977 80.3508L31.5977 78.1508L34.9977 74.6508ZM30.5977 77.3508L8.99765 55.6508L12.7977 51.8508L34.3977 73.5508L30.5977 77.3508ZM6.79764 53.6508L10.5977 49.8508L11.8977 51.1508L8.09766 54.9508L6.79764 53.6508ZM3.79764 46.6508C4.29764 46.1508 4.99766 45.8508 5.69766 45.8508C6.39766 45.8508 7.09766 46.1508 7.59766 46.6508L9.79764 48.8508L5.99765 52.6508L3.79764 50.4508C2.79764 49.4508 2.79764 47.8508 3.79764 46.6508ZM65.5977 89.6508V80.9508C65.5977 79.2508 66.9977 77.8508 68.6977 77.7508H77.2977L65.5977 89.6508ZM78.1977 72.6508V76.6508H68.7977C66.3977 76.6508 64.4977 78.6508 64.4977 80.9508V90.4508H19.9977C17.9977 90.4508 16.3977 88.8508 16.3977 86.8508V64.9508L30.0977 78.7508L30.1977 78.8508L30.3977 79.0508L37.8977 81.8508H38.0977C38.1977 81.8508 38.3977 81.7508 38.4977 81.6508C38.6977 81.4508 38.6977 81.2508 38.6977 81.0508L35.8977 73.5508C35.7977 73.4508 35.7977 73.3508 35.6977 73.2508C35.6977 73.2508 35.6977 73.1508 35.5977 73.1508L16.4977 53.9508V14.3508C16.4977 12.3508 18.0977 10.7508 20.0977 10.7508H26.4977V25.5508C26.4977 26.7508 27.4977 27.7508 28.6977 27.7508H47.7977C48.9977 27.7508 49.9977 26.7508 49.9977 25.5508V10.7508H74.5977C76.5977 10.7508 78.1977 12.3508 78.1977 14.3508V38.9508H68.9977C68.1977 38.9508 67.5977 39.5508 67.5977 40.3508V44.2508H57.0977C55.5977 44.2508 54.3977 45.4508 54.3977 47.0508V69.6508C54.3977 71.1508 55.5977 72.3508 57.0977 72.4508H78.3977C78.1977 72.4508 78.0977 72.4508 78.1977 72.6508ZM94.5977 69.6508C94.5977 70.5508 93.8977 71.2508 92.9977 71.2508H56.8977C55.9977 71.2508 55.2977 70.5508 55.2977 69.6508V47.0508C55.2977 46.1508 55.9977 45.4508 56.8977 45.4508H92.8977C93.7977 45.4508 94.4977 46.1508 94.4977 47.0508L94.5977 69.6508ZM64.2977 54.1508C63.9977 54.1508 63.7977 54.3508 63.7977 54.6508V61.9508C63.7977 62.2508 63.9977 62.5508 64.3977 62.5508C64.6977 62.5508 64.8977 62.3508 64.8977 61.9508V54.6508C64.9977 54.4508 64.7977 54.1508 64.4977 54.0508C64.4977 54.1508 64.3977 54.1508 64.2977 54.1508ZM71.4977 51.6508C71.1977 51.6508 70.9977 51.8508 70.9977 52.1508V64.3508C70.9977 64.6508 71.1977 64.9508 71.4977 64.9508C71.7977 64.9508 72.0977 64.7508 72.0977 64.3508V52.2508C71.9977 51.9508 71.7977 51.6508 71.4977 51.6508ZM78.4977 51.6508C78.1977 51.6508 77.9977 51.8508 77.9977 52.1508V64.3508C77.9977 64.6508 78.1977 64.9508 78.4977 64.9508C78.7977 64.9508 79.0977 64.7508 79.0977 64.3508V52.2508C79.0977 51.9508 78.8977 51.6508 78.4977 51.6508ZM85.5977 54.1508C85.2977 54.1508 85.0977 54.3508 85.0977 54.6508V61.9508C85.0977 62.2508 85.2977 62.5508 85.5977 62.5508C85.8977 62.5508 86.1977 62.3508 86.1977 61.9508V54.6508C86.1977 54.3508 85.9977 54.1508 85.7977 54.0508C85.6977 54.1508 85.5977 54.1508 85.5977 54.1508ZM20.5977 64.3508C20.7977 64.5508 21.1977 64.5508 21.3977 64.3508C21.5977 64.1508 21.5977 63.8508 21.3977 63.6508L19.7977 61.9508C19.5977 61.7508 19.2977 61.7508 19.0977 61.8508L18.9977 61.9508C18.7977 62.1508 18.7977 62.4508 18.9977 62.6508L20.5977 64.3508ZM14.5977 58.3508L16.1977 60.0508C16.3977 60.2508 16.7977 60.2508 16.9977 60.0508C17.1977 59.8508 17.1977 59.5508 16.9977 59.3508L15.3977 57.6508C15.1977 57.4508 14.7977 57.4508 14.5977 57.6508C14.3977 57.8508 14.3977 58.1508 14.5977 58.3508ZM29.0977 72.9508C29.2977 73.1508 29.6977 73.1508 29.8977 72.9508C30.0977 72.7508 30.0977 72.4508 29.8977 72.2508L28.4977 70.8508C28.2977 70.6508 27.9977 70.6508 27.7977 70.8508C27.5977 71.0508 27.5977 71.4508 27.7977 71.6508L29.0977 72.9508ZM24.9977 68.8508C25.1977 69.0508 25.5977 69.0508 25.7977 68.8508C25.9977 68.6508 25.9977 68.3508 25.7977 68.1508L24.1977 66.4508C23.9977 66.2508 23.5977 66.2508 23.3977 66.4508C23.1977 66.6508 23.1977 67.0508 23.3977 67.2508L24.9977 68.8508ZM22.7977 34.4508H65.2977C65.5977 34.4508 65.8977 34.1508 65.8977 33.8508C65.8977 33.5508 65.6977 33.2508 65.2977 33.2508H22.7977C22.4977 33.2508 22.1977 33.5508 22.1977 33.8508C22.1977 34.3508 22.4977 34.4508 22.7977 34.4508ZM22.7977 40.6508H58.8977C59.1977 40.6508 59.3977 40.4508 59.3977 40.1508C59.3977 39.8508 59.1977 39.6508 58.8977 39.5508H22.7977C22.4977 39.5508 22.2977 39.7508 22.2977 40.0508C22.1977 40.3508 22.4977 40.6508 22.7977 40.6508ZM49.5977 45.6508H22.7977C22.4977 45.6508 22.2977 45.8508 22.2977 46.1508C22.2977 46.4508 22.4977 46.6508 22.7977 46.7508H49.5977C49.8977 46.7508 50.0977 46.5508 50.0977 46.2508C50.1977 45.8508 49.8977 45.6508 49.5977 45.6508ZM47.0977 51.6508H22.7977C22.4977 51.6508 22.2977 51.8508 22.2977 52.1508C22.2977 52.4508 22.4977 52.6508 22.7977 52.7508H47.0977C47.3977 52.7508 47.5977 52.5508 47.5977 52.2508C47.6977 51.8508 47.3977 51.6508 47.0977 51.6508ZM10.4977 27.1508C10.7977 27.1508 10.9977 26.9508 10.9977 26.6508V19.3508C10.9977 19.0508 10.7977 18.7508 10.3977 18.7508C10.0977 18.7508 9.89765 18.9508 9.89765 19.3508V26.6508C9.89765 26.9508 10.1977 27.1508 10.4977 27.1508ZM10.4977 31.8508C10.7977 31.8508 10.9977 31.6508 10.9977 31.3508V28.9508C10.9977 28.6508 10.7977 28.3508 10.4977 28.3508C10.1977 28.3508 9.89765 28.5508 9.89765 28.9508V31.3508C9.89765 31.6508 10.1977 31.8508 10.4977 31.8508ZM91.9977 26.1508C91.9977 25.8508 91.7977 25.5508 91.4977 25.5508C91.1977 25.5508 90.8977 25.7508 90.8977 26.1508V33.4508C90.8977 33.7508 91.0977 34.0508 91.4977 34.0508C91.7977 34.0508 91.9977 33.8508 91.9977 33.4508V26.1508ZM91.4977 35.1508C91.1977 35.1508 90.9977 35.3508 90.9977 35.6508V38.0508C90.9977 38.3508 91.1977 38.6508 91.4977 38.6508C91.7977 38.6508 92.0977 38.4508 92.0977 38.0508V35.6508C91.9977 35.4508 91.7977 35.3508 91.4977 35.1508ZM6.39765 73.8508C6.19765 73.6508 5.79766 73.6508 5.59766 73.8508C5.39766 74.0508 5.39766 74.4508 5.59766 74.6508L6.69766 75.7508C6.89766 75.9508 7.29765 75.9508 7.49765 75.7508C7.69765 75.5508 7.69765 75.2508 7.49765 75.0508L6.39765 73.8508ZM9.89765 77.4508C9.69765 77.2508 9.29766 77.2508 9.09766 77.4508C8.89766 77.6508 8.89766 78.0508 9.09766 78.2508L10.1977 79.3508C10.3977 79.5508 10.7977 79.5508 10.9977 79.3508C11.1977 79.1508 11.1977 78.8508 10.9977 78.6508L9.89765 77.4508ZM6.69766 77.4508L5.59766 78.5508C5.39766 78.7508 5.39765 79.0508 5.49765 79.2508L5.59766 79.3508C5.79766 79.5508 6.19765 79.5508 6.39765 79.3508L7.49765 78.2508C7.69765 78.0508 7.79766 77.6508 7.59766 77.4508C7.39766 77.3508 6.99766 77.1508 6.69766 77.4508ZM10.1977 73.8508L9.09766 74.9508C8.89766 75.1508 8.89766 75.4508 9.09766 75.6508C9.29766 75.8508 9.69765 75.8508 9.89765 75.6508L10.9977 74.5508C11.1977 74.3508 11.1977 73.9508 10.8977 73.7508C10.7977 73.8508 10.3977 73.8508 10.1977 73.8508ZM55.1977 94.4508C54.9977 94.2508 54.6977 94.2508 54.4977 94.4508C54.2977 94.6508 54.2977 95.0508 54.4977 95.2508L55.5977 96.3508C55.7977 96.5508 56.1977 96.5508 56.3977 96.3508C56.5977 96.1508 56.5977 95.8508 56.3977 95.6508L55.1977 94.4508ZM58.7977 97.9508C58.5977 97.7508 58.2977 97.7508 58.0977 97.8508L57.9977 97.9508C57.7977 98.1508 57.7977 98.4508 57.9977 98.6508L59.0977 99.7508C59.2977 99.9508 59.6977 99.9508 59.8977 99.7508C60.0977 99.5508 60.0977 99.2508 59.8977 99.0508L58.7977 97.9508ZM55.4977 97.9508L54.3977 99.0508C54.1977 99.2508 54.1977 99.5508 54.3977 99.7508C54.5977 99.9508 54.9977 99.9508 55.1977 99.7508L56.2977 98.6508C56.4977 98.4508 56.4977 98.1508 56.2977 97.9508C55.9977 97.8508 55.6977 97.8508 55.4977 97.9508ZM58.9977 94.4508L57.8977 95.5508C57.6977 95.7508 57.6977 96.0508 57.7977 96.2508L57.8977 96.3508C58.0977 96.5508 58.4977 96.5508 58.6977 96.3508L59.7977 95.2508C59.9977 95.0508 59.9977 94.6508 59.6977 94.4508C59.4977 94.3508 59.1977 94.3508 58.9977 94.4508ZM15.7977 6.55078C17.1977 6.55078 18.2977 5.45078 18.2977 4.05078C18.2977 2.65078 17.1977 1.55078 15.7977 1.55078C14.3977 1.55078 13.2977 2.65078 13.2977 4.05078C13.2977 5.35078 14.3977 6.55078 15.7977 6.55078ZM15.7977 2.55078C16.4977 2.55078 17.0977 3.15079 17.0977 3.85079C17.0977 4.55079 16.4977 5.15079 15.7977 5.15079C15.0977 5.15079 14.4977 4.55079 14.4977 3.85079C14.4977 3.15079 15.0977 2.55078 15.7977 2.55078ZM22.7977 94.6508C21.3977 94.6508 20.2977 95.7508 20.2977 97.1508C20.2977 98.5508 21.3977 99.6508 22.7977 99.6508C24.1977 99.6508 25.2977 98.5508 25.2977 97.1508C25.2977 95.8508 24.2977 94.6508 22.9977 94.6508H22.7977ZM22.7977 98.6508C22.0977 98.6508 21.4977 98.0508 21.4977 97.3508C21.4977 96.6508 22.0977 96.0508 22.7977 96.0508C23.4977 96.0508 24.0977 96.6508 24.0977 97.3508C24.1977 98.0508 23.6977 98.6508 22.9977 98.6508H22.7977ZM88.2977 79.8508C86.6977 79.8508 85.4977 81.1508 85.4977 82.6508C85.4977 84.2508 86.7977 85.4508 88.2977 85.4508C89.8977 85.4508 91.0977 84.1508 91.0977 82.6508C91.0977 81.1508 89.7977 79.8508 88.2977 79.8508ZM88.2977 84.3508C87.3977 84.3508 86.5977 83.6508 86.5977 82.7508C86.5977 81.8508 87.2977 81.0508 88.1977 81.0508C89.0977 81.0508 89.8977 81.7508 89.8977 82.6508C89.8977 83.6508 89.1977 84.3508 88.2977 84.3508ZM82.7977 5.45079C82.7977 5.75079 82.9977 5.95078 83.2977 6.05078H91.8977C92.1977 6.05078 92.3977 5.85078 92.3977 5.55078C92.3977 5.25078 92.1977 5.05079 91.8977 4.95079H83.2977C82.9977 4.95079 82.7977 5.15079 82.7977 5.35079V5.45079ZM77.6977 6.05078H80.4977C80.7977 6.05078 80.9977 5.85078 80.9977 5.55078C80.9977 5.25078 80.7977 5.05079 80.4977 4.95079H77.6977C77.3977 4.95079 77.1977 5.15079 77.1977 5.45079C77.0977 5.75079 77.3977 6.05078 77.6977 6.05078ZM77.6977 3.05078H83.6977C83.9977 3.05078 84.1977 2.85078 84.1977 2.55078C84.1977 2.25078 83.9977 2.05079 83.6977 1.95079H77.6977C77.3977 1.95079 77.1977 2.15079 77.1977 2.45079C77.0977 2.75079 77.2977 3.05078 77.6977 3.05078ZM86.2977 3.05078H88.2977C88.5977 3.05078 88.7977 2.85078 88.7977 2.55078C88.7977 2.25078 88.5977 2.05079 88.2977 1.95079H86.2977C85.9977 1.95079 85.7977 2.15079 85.7977 2.45079C85.6977 2.75079 85.9977 3.05078 86.2977 3.05078ZM93.8977 96.8508H85.2977C84.9977 96.8508 84.7977 97.0508 84.7977 97.3508C84.7977 97.6508 84.9977 97.8508 85.2977 97.9508H93.8977C94.1977 97.9508 94.3977 97.7508 94.3977 97.4508C94.3977 97.1508 94.1977 96.9508 93.9977 96.9508C93.9977 96.8508 93.8977 96.8508 93.8977 96.8508ZM82.4977 96.8508H79.6977C79.3977 96.8508 79.1977 97.0508 79.1977 97.3508C79.1977 97.6508 79.3977 97.8508 79.6977 97.9508H82.4977C82.7977 97.9508 82.9977 97.7508 82.9977 97.4508C82.9977 97.1508 82.7977 96.9508 82.4977 96.8508ZM79.0977 94.6508C79.0977 94.9508 79.2977 95.1508 79.5977 95.2508H85.5977C85.8977 95.2508 86.0977 95.0508 86.0977 94.7508C86.0977 94.4508 85.8977 94.2508 85.5977 94.1508H79.5977C79.2977 94.1508 79.0977 94.2508 79.0977 94.5508V94.6508ZM88.2977 93.8508C87.9977 93.8508 87.6977 94.1508 87.6977 94.4508C87.6977 94.7508 87.8977 95.0508 88.2977 95.0508H90.2977C90.5977 95.0508 90.8977 94.7508 90.8977 94.4508C90.8977 94.1508 90.6977 93.8508 90.2977 93.8508H88.2977Z" fill="#333333"/>
</g>
</g>
</g>
<defs>
<clipPath id="clip0_5_26">
<rect width="96" height="100" fill="white"/>
</clipPath>
<clipPath id="clip1_5_26">
<rect width="96" height="100" fill="white"/>
</clipPath>
</defs>
</svg>
