<svg width="102" height="102" viewBox="0 0 102 102" fill="none" xmlns="http://www.w3.org/2000/svg">
<g clip-path="url(#clip0_5_35)">
<g clip-path="url(#clip1_5_35)">
<g clip-path="url(#clip2_5_35)">
<mask id="mask0_5_35" style="mask-type:luminance" maskUnits="userSpaceOnUse" x="0" y="0" width="102" height="102">
<path d="M102 0H0V102H102V0Z" fill="white"/>
</mask>
<g mask="url(#mask0_5_35)">
<path d="M101.746 102L-0.253906 68L67.7461 0L101.746 102Z" fill="#D5E3AE"/>
<path d="M93.6515 24.386C93.9551 24.386 94.1574 24.1836 94.1574 23.88V14.9752C94.1574 14.6717 93.9551 14.3681 93.6515 14.3681C93.3479 14.3681 93.0444 14.5705 93.0444 14.8741V23.7788C93.0444 24.1836 93.3479 24.386 93.6515 24.386ZM93.6515 30.1538C93.9551 30.1538 94.1574 29.9514 94.1574 29.6479V26.8145C94.1574 26.511 93.9551 26.2074 93.6515 26.2074C93.3479 26.2074 93.0444 26.4098 93.0444 26.7133V29.5467C93.0444 29.8502 93.3479 30.1538 93.6515 30.1538ZM6.7289 58.1836C6.42533 58.1836 6.22295 58.386 6.22295 58.6895V67.5943C6.22295 67.8979 6.42533 68.2014 6.7289 68.2014C7.03247 68.2014 7.33605 67.9991 7.33605 67.6955V58.7907C7.33605 58.386 7.13366 58.1836 6.7289 58.1836C6.83009 58.1836 6.83009 58.1836 6.7289 58.1836ZM6.7289 69.8205C6.42533 69.8205 6.22295 70.0229 6.22295 70.3264V73.1598C6.22295 73.4633 6.42533 73.7669 6.7289 73.7669C7.03247 73.7669 7.33605 73.5645 7.33605 73.261V70.4276C7.33605 70.2253 7.13366 69.8205 6.7289 69.8205C6.83009 69.8205 6.83009 69.8205 6.7289 69.8205ZM81.2051 5.15978C81.4075 5.36216 81.8122 5.36216 82.0146 5.15978C82.217 4.9574 82.217 4.65383 82.0146 4.45145L80.6991 3.13597C80.4968 2.93359 80.1932 2.93359 79.8896 3.13597C79.6872 3.33836 79.6872 3.64193 79.8896 3.9455L81.2051 5.15978ZM85.4551 9.51098C85.6575 9.71336 86.0622 9.71336 86.2646 9.51098C86.467 9.3086 86.467 9.00503 86.2646 8.80265L84.9491 7.48717C84.7468 7.28479 84.342 7.28479 84.1396 7.48717C83.9372 7.68955 83.9372 8.09431 84.1396 8.29669L85.4551 9.51098ZM80.1932 9.71335C80.2944 9.71335 80.4967 9.61217 80.5979 9.51098L81.9134 8.1955C82.1158 7.99312 82.1158 7.58835 81.9134 7.38597C81.711 7.18359 81.3063 7.18359 81.1039 7.38597L79.7884 8.70145C79.586 8.90383 79.586 9.2074 79.7884 9.40978C79.9908 9.61216 80.092 9.61216 80.1932 9.71335ZM84.5444 5.36216C84.6455 5.36216 84.8479 5.26097 84.9491 5.15978L86.2646 3.8443C86.467 3.64192 86.467 3.23717 86.2646 3.03479C86.0622 2.83241 85.6575 2.83241 85.4551 3.03479L84.1396 4.35026C83.9372 4.55264 83.9372 4.85622 84.1396 5.0586C84.342 5.36217 84.4432 5.36216 84.5444 5.36216ZM4.90748 92.8919C4.7051 92.6895 4.40152 92.6895 4.19914 92.7907L4.09794 92.8919C3.89556 93.0943 3.89556 93.3979 4.09794 93.6002L5.41343 94.9157C5.61581 95.1181 6.02056 95.1181 6.22295 94.9157C6.42533 94.7133 6.42533 94.4098 6.22295 94.2074L4.90748 92.8919ZM9.25866 97.1419C9.05628 96.9395 8.65153 96.9395 8.44915 97.1419C8.24677 97.3443 8.24677 97.749 8.44915 97.9514L9.76461 99.2669C9.96699 99.4693 10.3718 99.4693 10.5741 99.2669C10.7765 99.0645 10.7765 98.7609 10.5741 98.5586L9.25866 97.1419ZM5.41343 97.1419L4.09794 98.4574C3.89556 98.6598 3.89556 98.9633 4.09794 99.1657C4.30032 99.3681 4.7051 99.3681 4.90748 99.1657L6.22295 97.8502C6.42533 97.6478 6.42533 97.2431 6.22295 97.0407C6.02056 97.0407 5.61581 97.0407 5.41343 97.1419ZM9.76461 92.8919L8.44915 94.2074C8.24677 94.4098 8.24677 94.7133 8.44915 94.9157C8.65153 95.1181 9.05628 95.1181 9.25866 94.9157L10.5741 93.6002C10.7765 93.3979 10.7765 93.0943 10.5741 92.8919C10.3718 92.5883 10.0682 92.5883 9.76461 92.8919ZM7.13365 30.255C7.13365 28.7371 5.81819 27.5228 4.30033 27.5228C2.78248 27.5228 1.56818 28.8383 1.56818 30.3562C1.56818 31.8741 2.78248 33.0883 4.30033 33.0883C5.81819 33.0883 7.03249 31.8741 7.03249 30.3562L7.13365 30.255ZM2.68128 30.255C2.68128 29.3443 3.49081 28.6359 4.40153 28.6359C5.31224 28.6359 6.02058 29.4455 6.02058 30.3562C6.02058 31.2669 5.21105 31.9753 4.40153 31.9753C3.38962 31.8741 2.58009 31.2669 2.68128 30.255ZM70.4789 95.6241C68.961 95.6241 67.6456 96.8383 67.6456 98.3562C67.6456 99.874 68.8598 101.19 70.3777 101.19C71.8955 101.19 73.211 99.9752 73.211 98.4574C73.211 96.8383 71.9967 95.6241 70.4789 95.6241ZM70.4789 100.076C69.5682 100.076 68.7587 99.3681 68.7587 98.4574C68.7587 97.5467 69.467 96.7372 70.3777 96.7372C71.2884 96.7372 72.0979 97.4455 72.0979 98.3562C72.0979 99.3681 71.3896 100.076 70.4789 100.076ZM18.8717 5.0586C18.8717 4.75503 18.6694 4.55264 18.3658 4.45145H7.7408C7.43723 4.45145 7.23485 4.65384 7.23485 5.0586C7.23485 5.36217 7.43723 5.56456 7.7408 5.56456H18.2646C18.5682 5.56456 18.7705 5.36216 18.7705 5.15978C18.8717 5.15978 18.8717 5.0586 18.8717 5.0586ZM4.90748 5.0586C4.90748 4.75503 4.7051 4.55264 4.40153 4.45145H0.859864C0.556293 4.45145 0.353912 4.65384 0.353912 5.0586C0.353912 5.36217 0.556293 5.56456 0.859864 5.56456H4.30033C4.50271 5.66575 4.80629 5.46336 4.90748 5.0586ZM0.859864 2.02289H8.24675C8.55033 2.02289 8.8539 1.71931 8.8539 1.41574C8.8539 1.11217 8.65152 0.808594 8.24675 0.808594H0.859864C0.556293 0.808594 0.353912 1.01098 0.353912 1.21336V1.31454C0.252722 1.7193 0.455103 2.02289 0.859864 2.02289C0.758674 2.02289 0.758674 2.02289 0.859864 2.02289ZM11.3837 2.02289H13.8122C14.1158 2.02289 14.4194 1.71931 14.4194 1.41574C14.4194 1.11217 14.217 0.808594 13.8122 0.808594H11.3837C11.0801 0.808594 10.7765 1.01098 10.7765 1.41574C10.7765 1.71931 11.0801 2.02289 11.3837 2.02289ZM94.2586 83.886C94.2586 83.5824 94.0563 83.38 93.7527 83.2788H83.1277C82.8241 83.2788 82.5205 83.5824 82.5205 83.886C82.5205 84.1895 82.7229 84.4931 83.1277 84.4931H93.6515C93.9551 84.4931 94.1575 84.2907 94.2586 83.9872V83.886ZM96.586 83.886C96.586 84.1895 96.7884 84.3919 97.092 84.4931H100.533C100.837 84.4931 101.14 84.1895 101.14 83.886C101.14 83.5824 100.938 83.2788 100.533 83.2788H97.092C96.8896 83.38 96.586 83.4812 96.586 83.886ZM100.634 87.0229H93.2467C92.9432 87.0229 92.6396 87.3264 92.6396 87.63C92.6396 87.9336 92.842 88.2371 93.2467 88.2371H100.634C100.938 88.2371 101.241 88.0348 101.241 87.63C101.241 87.2252 100.938 87.0229 100.634 87.0229ZM90.1098 87.0229H87.6813C87.3777 87.0229 87.0741 87.3264 87.0741 87.63C87.0741 87.9336 87.2765 88.2371 87.6813 88.2371H90.1098C90.4134 88.2371 90.6158 88.0348 90.6158 87.7312C90.6158 87.4276 90.4134 87.2252 90.211 87.1241L90.1098 87.0229ZM19.6813 76.2967V81.1538C19.6813 81.4574 19.8837 81.6598 20.1872 81.7609H70.3777C70.6813 81.7609 70.8836 81.5586 70.9848 81.255V76.3979C70.9848 76.0943 70.7825 75.8919 70.4789 75.7907H20.3896C20.086 75.6895 19.7825 75.8919 19.6813 76.2967ZM27.4729 76.9038L25.0444 80.6478H22.6158L25.0444 76.9038H27.4729ZM31.217 76.9038L28.7884 80.6478H26.3598L28.7884 76.9038H31.217ZM34.961 76.9038L32.5325 80.6478H30.1039L32.5325 76.9038H34.961ZM38.8063 76.9038L36.3777 80.6478H33.9491L36.3777 76.9038H38.8063ZM42.6515 76.9038L40.2229 80.6478H37.7944L40.2229 76.9038H42.6515ZM46.3956 76.9038L43.967 80.6478H41.5384L43.967 76.9038H46.3956ZM69.9729 80.4455H45.2825L47.711 76.7014H69.7706L69.9729 80.4455ZM20.8956 76.9038H23.6277L21.1991 80.6478H20.9968V76.9038H20.8956ZM21.7051 22.7669H48.217C48.5205 22.7669 48.8241 22.4633 48.8241 22.1598C48.8241 21.8562 48.6217 21.5526 48.217 21.5526H21.7051C21.4015 21.5526 21.098 21.8562 21.1991 22.1598C21.1991 22.5645 21.4015 22.7669 21.7051 22.7669ZM21.7051 55.1479H48.217C48.5205 55.1479 48.8241 54.9455 48.8241 54.6419C48.8241 54.3383 48.6217 54.0348 48.3182 54.0348H21.8063C21.5027 54.0348 21.3003 54.2371 21.3003 54.5407C21.1991 54.9455 21.4015 55.1479 21.7051 55.1479ZM21.7051 47.0526H55.5027C55.8063 47.0526 56.1099 46.749 56.1099 46.4455C56.1099 46.1419 55.9075 45.8383 55.5027 45.8383H21.7051C21.4015 45.8383 21.1991 46.0407 21.0979 46.3443C21.1991 46.8502 21.4015 47.0526 21.7051 47.0526ZM21.7051 38.9574H65.0146C65.3182 38.9574 65.6218 38.6538 65.6218 38.3502C65.6218 38.0467 65.4194 37.7431 65.0146 37.7431H21.7051C21.4015 37.7431 21.098 38.0467 21.1991 38.3502C21.1991 38.755 21.4015 38.9574 21.7051 38.9574ZM21.7051 30.761H56.0087C56.3122 30.761 56.5146 30.5586 56.5146 30.1538C56.5146 29.8502 56.3122 29.6479 56.0087 29.6479H21.7051C21.4015 29.6479 21.1991 29.9514 21.1991 30.255C21.1991 30.6598 21.4015 30.761 21.7051 30.761ZM83.1277 38.4514C83.2289 38.5526 83.2289 38.6538 83.3301 38.6538L85.4551 41.4872C85.5563 41.5883 85.7587 41.6895 85.961 41.6895C86.0622 41.6895 86.2646 41.6895 86.2646 41.4872C86.467 41.2848 86.5682 40.9812 86.3658 40.7788V40.6776L85.1515 39.0586C92.9432 40.9812 97.6991 48.7729 95.7765 56.4633C95.5741 57.1717 95.3718 57.88 95.0682 58.5883C94.967 58.8919 95.0682 59.1955 95.3717 59.3978C95.4729 59.3978 95.5741 59.499 95.5741 59.499C95.7765 59.499 96.0801 59.2967 96.0801 59.0943C96.8896 57.1717 97.2944 55.1479 97.2944 53.1241C97.2944 45.9395 92.4372 39.7669 85.5563 37.9455L87.0741 37.2371C87.3777 37.0348 87.4789 36.7312 87.2765 36.4276C87.0741 36.1241 86.7706 36.0229 86.467 36.2252L83.3301 37.7431C83.2289 37.7431 83.2289 37.8443 83.1277 37.8443V37.9455C83.1277 38.0467 83.0265 38.0467 83.0265 38.1478V38.249C83.2289 38.3502 83.1277 38.4514 83.1277 38.4514ZM92.9432 64.255L92.7408 65.9752C92.7408 66.2788 92.9432 66.5824 93.2467 66.5824H93.3479C93.6515 66.5824 93.8539 66.38 93.8539 66.0764L94.0563 62.5348V62.2312C94.0563 62.13 93.9551 62.13 93.9551 62.0288V61.9276L93.7527 61.7252H93.5503L90.1098 62.2312C89.8063 62.2312 89.6039 62.5348 89.6039 62.8383C89.6039 63.1419 89.9075 63.3443 90.211 63.3443L92.2348 63.1419C87.6813 67.999 80.3956 69.1121 74.6277 65.6717C73.0086 64.761 71.592 63.4455 70.3777 61.9276C70.1753 61.7252 69.8717 61.6241 69.5682 61.8264C69.2646 62.0288 69.2646 62.3324 69.467 62.636C70.6813 64.255 72.3003 65.5705 74.0205 66.6836C74.5265 66.8859 74.9313 67.1895 75.4372 67.3919V89.3502C75.4372 90.1598 74.7289 90.8681 73.9194 90.8681H17.0503C16.2408 90.8681 15.5325 90.1598 15.5325 89.3502V12.749C15.5325 11.8383 16.2408 11.13 17.1515 11.13H64.6099V18.9217C64.6099 20.6419 66.0265 22.0586 67.7468 22.1598H75.336V38.755C75.336 38.8562 75.336 38.9574 75.4372 38.9574C74.9313 39.1598 74.4253 39.4633 73.9194 39.6657C67.7467 43.3086 64.8122 50.5943 66.7349 57.4752L65.3182 56.5645C65.0146 56.3621 64.711 56.4634 64.5087 56.7669C64.3063 57.0705 64.4075 57.374 64.711 57.5764L67.5444 59.499C67.6456 59.6002 67.7467 59.7014 67.9491 59.7014H68.1515L68.3539 59.499L68.4551 59.3978L68.5563 59.2967L69.8717 56.0586C70.0741 55.755 69.8717 55.3502 69.5682 55.2491C69.2646 55.0467 68.8599 55.2491 68.7587 55.5526V55.6538L67.9491 57.4752C66.0265 51.1002 68.7586 44.2193 74.5265 40.88C76.1455 39.8681 77.967 39.261 79.8896 39.0586C80.1932 38.9574 80.3956 38.755 80.3956 38.3502C80.2944 38.0467 80.092 37.8443 79.7884 37.8443C78.6753 37.9455 77.6634 38.249 76.6515 38.6538V21.6538C76.6515 21.5526 76.5503 21.5526 76.5503 21.4514L65.6218 10.4217C65.6218 10.3205 65.5205 10.3205 65.4194 10.3205H17.0503C15.5325 10.3205 14.3182 11.5348 14.3182 12.9514V89.6538C14.3182 91.1717 15.5325 92.3859 16.9491 92.3859H73.9194C75.4372 92.3859 76.6515 91.1717 76.6515 89.755V68.2014C78.2706 68.8086 80.092 69.1121 81.8122 69.1121C85.961 69.0109 90.0087 67.2907 92.9432 64.255ZM67.6456 21.1479C66.5325 21.1479 65.6218 20.2372 65.6218 19.2252V12.2431L74.5265 21.1479H67.6456Z" fill="#333333"/>
</g>
</g>
</g>
</g>
<defs>
<clipPath id="clip0_5_35">
<rect width="102" height="102" fill="white"/>
</clipPath>
<clipPath id="clip1_5_35">
<rect width="102" height="102" fill="white"/>
</clipPath>
<clipPath id="clip2_5_35">
<rect width="102" height="102" fill="white"/>
</clipPath>
</defs>
</svg>
