<svg width="98" height="100" viewBox="0 0 98 100" fill="none" xmlns="http://www.w3.org/2000/svg">
<g clip-path="url(#clip0_5_62)">
<g clip-path="url(#clip1_5_62)">
<g clip-path="url(#clip2_5_62)">
<mask id="mask0_5_62" style="mask-type:luminance" maskUnits="userSpaceOnUse" x="0" y="0" width="98" height="100">
<path d="M98 0H0V100H98V0Z" fill="white"/>
</mask>
<g mask="url(#mask0_5_62)">
<path d="M1.30078 36.8383L63.4629 0.902344L99.3988 63.0645L37.2367 99.0005L1.30078 36.8383Z" fill="#D5E3AE"/>
<path d="M90.6912 40.7424C90.6912 39.341 89.6902 38.24 88.2888 38.1398C87.5881 38.1398 86.8874 38.4401 86.3869 38.9406L75.3759 49.9516V16.1178C75.3759 14.7164 74.2748 13.6153 72.9735 13.6153H55.9564L57.2577 8.41012C57.3578 8.20992 57.2577 8.10982 57.1576 7.90961C57.0575 7.80952 56.8573 7.70942 56.6571 7.70942H50.0505C50.2507 7.20892 50.3508 6.70841 50.3508 6.10781C50.4509 4.20591 49.0495 2.70441 47.1476 2.60431C45.2457 2.50421 43.7442 3.90561 43.6441 5.80751V6.10781C43.6441 6.60831 43.7442 7.10881 43.9444 7.60931H37.3378C37.1376 7.60931 37.0375 7.70941 36.8373 7.80951C36.7372 7.90961 36.7372 8.10981 36.7372 8.31001L38.0385 13.5152H21.6221C20.2207 13.5152 19.1196 14.6163 19.1196 16.0177V87.1889C19.1196 88.5903 20.2207 89.6914 21.522 89.6914H72.5731C73.9745 89.6914 75.0756 88.5903 75.0756 87.289V57.2589L89.6902 42.6444C90.491 42.0438 90.7913 41.4431 90.6912 40.7424ZM47.1476 3.70541C48.4489 3.80551 49.4499 4.80651 49.4499 6.10781C49.4499 6.60831 49.2497 7.20891 48.9494 7.60931H45.4459C45.0455 7.20891 44.8453 6.60832 44.9454 6.00772C44.8453 4.80652 45.8463 3.80551 47.1476 3.70541ZM38.2387 8.81051H56.1566L54.8553 13.6153H39.4399L38.2387 8.81051ZM20.521 16.1178C20.521 15.317 21.1216 14.7164 21.9224 14.7164H72.8734C73.6742 14.7164 74.2747 15.317 74.2747 16.1178V32.5342H20.521V16.1178ZM74.2747 87.1889C74.2747 87.9897 73.6742 88.5903 72.8734 88.5903H21.9224C21.1216 88.5903 20.521 87.9897 20.521 87.1889V33.6353H74.1746V51.2529L57.9584 67.5693L49.1496 58.7604C48.1486 57.8595 46.547 57.8595 45.546 58.7604C45.0455 59.2609 44.7452 59.8616 44.7452 60.5623C44.7452 61.263 45.0455 61.9637 45.546 62.3641L57.5581 74.3761C57.7583 74.5763 58.1586 74.5763 58.3588 74.3761L74.1746 58.4602L74.2747 87.1889ZM89.1897 41.7434L74.475 56.4582C74.3749 56.4582 74.3748 56.5583 74.2747 56.6584L57.8583 73.0748L46.3468 61.4632C46.1466 61.1629 45.9464 60.8626 45.9464 60.5623C45.9464 60.1619 46.0465 59.8616 46.3468 59.6614C46.6471 59.4612 46.9474 59.2609 47.2477 59.2609C47.6481 59.2609 47.9484 59.3611 48.1486 59.6614L57.4579 68.9707C57.6581 69.1709 57.9584 69.1709 58.1586 69.0708L58.2587 68.9707L87.0876 39.9416C87.5881 39.4411 88.489 39.341 89.0896 39.9416C89.2898 40.2419 89.49 40.5422 89.49 40.8425C89.5901 41.0427 89.3899 41.4431 89.1897 41.7434ZM83.0836 20.7224C83.3839 20.7224 83.5841 20.5222 83.6842 20.2219V11.1128C83.6842 10.8125 83.484 10.6123 83.1837 10.5122C82.8834 10.5122 82.6832 10.7124 82.5831 11.0127V20.1218C82.483 20.4221 82.6832 20.7224 82.9835 20.7224C82.9835 20.8225 83.0836 20.8225 83.0836 20.7224ZM83.0836 26.6283C83.3839 26.6283 83.5841 26.4281 83.6842 26.1278V23.2249C83.6842 22.9246 83.484 22.7244 83.1837 22.6243C82.8834 22.6243 82.6832 22.8245 82.5831 23.1248V26.0277C82.5831 26.328 82.7833 26.5282 82.9835 26.6283C83.0836 26.7284 83.0836 26.7284 83.0836 26.6283ZM9.71018 68.3701C9.40988 68.3701 9.20968 68.5703 9.10958 68.8706V77.9797C9.10958 78.28 9.30978 78.4802 9.61008 78.5803C9.91038 78.5803 10.1106 78.3801 10.2107 78.0798V69.0708C10.3108 68.6704 10.0105 68.4702 9.71018 68.3701ZM9.71018 80.4822C9.40988 80.4822 9.20968 80.6824 9.10958 80.9827V83.8856C9.10958 84.1859 9.30978 84.3861 9.61008 84.4862C9.91038 84.4862 10.1106 84.286 10.2107 83.9857V80.9827C10.3108 80.6824 10.0105 80.4822 9.71018 80.4822ZM67.9685 2.20391C68.1687 2.40411 68.569 2.40411 68.7692 2.20391C68.9694 2.00371 68.9694 1.70341 68.7692 1.40311L67.468 0.101804C67.2678 -0.0983967 66.8673 -0.0983967 66.6671 0.101804C66.4669 0.302004 66.4669 0.702407 66.6671 0.902607L67.9685 2.20391ZM71.9725 6.20792C72.1727 6.40812 72.573 6.40812 72.7732 6.20792C72.9734 6.00772 72.9734 5.70742 72.7732 5.50722L71.472 4.20592C71.2718 4.00571 70.8713 4.00571 70.6711 4.20592C70.4709 4.40612 70.4709 4.80652 70.6711 5.00672L71.9725 6.20792ZM67.1676 6.30801C67.2677 6.30801 67.468 6.20791 67.5681 6.10781L68.8693 4.80651C69.0695 4.60631 69.0695 4.20592 68.8693 4.00572C68.6692 3.80552 68.2688 3.80552 68.0686 4.00572L66.7672 5.30701C66.567 5.50721 66.567 5.80752 66.6671 6.00772L66.7672 6.10781C66.8673 6.30801 67.0675 6.30801 67.1676 6.30801ZM71.0716 2.304C71.1717 2.304 71.3719 2.20391 71.472 2.10381L72.7732 0.802501C72.9734 0.602301 72.9734 0.201913 72.7732 0.00171299C72.573 -0.198488 72.2728 -0.198488 71.9725 0.00171299L70.6711 1.303C70.4709 1.5032 70.471 1.80352 70.5711 2.00372L70.6711 2.10381C70.7712 2.30401 70.9715 2.4041 71.0716 2.304ZM17.4179 93.7955C17.2177 93.5953 16.8173 93.5953 16.6171 93.7955C16.4169 93.9957 16.4169 94.296 16.6171 94.5963L17.9184 95.8976C18.1186 96.0978 18.519 96.0978 18.7192 95.8976C18.9194 95.6974 18.9194 95.3971 18.8193 95.1969L18.7192 95.0968L17.4179 93.7955ZM21.3218 97.7995C21.1216 97.5993 20.7212 97.5993 20.521 97.7995C20.3208 97.9997 20.3208 98.4001 20.521 98.6003L21.8223 99.9016C22.0225 100.102 22.4229 100.102 22.6231 99.9016C22.8233 99.7014 22.8233 99.4011 22.7232 99.2009L22.6231 99.1008L21.3218 97.7995ZM17.8183 97.7995L16.517 99.1008C16.3168 99.301 16.3168 99.6013 16.517 99.8015C16.7172 100.002 17.1176 100.002 17.3178 99.8015L18.6191 98.5002C18.8193 98.3 18.8193 97.8996 18.6191 97.6994C18.3188 97.5993 18.0185 97.5993 17.8183 97.7995ZM21.7222 93.7955L20.4209 95.0968C20.2207 95.297 20.2207 95.5973 20.3208 95.7975L20.4209 95.8976C20.521 95.9977 20.6211 96.0978 20.8213 96.0978C20.9214 96.0978 21.1216 95.9977 21.2217 95.8976L22.523 94.5963C22.7232 94.3961 22.7232 93.9957 22.523 93.7955C22.3228 93.5953 21.9224 93.5953 21.7222 93.7955ZM85.7863 66.3681C85.9865 66.5683 86.3869 66.5683 86.5871 66.3681C86.7873 66.1679 86.7873 65.8676 86.5871 65.6674L85.2858 64.3661C85.0856 64.1659 84.6852 64.1659 84.485 64.3661C84.2848 64.5663 84.2848 64.9667 84.485 65.1669L85.7863 66.3681ZM88.5891 69.1709L89.8904 70.4722C90.0906 70.6724 90.491 70.6724 90.6912 70.4722C90.8914 70.272 90.8914 69.9717 90.6912 69.6714L89.3899 68.3701C89.1897 68.1699 88.8894 68.1699 88.6892 68.27L88.5891 68.3701C88.2888 68.5703 88.2888 68.8706 88.5891 69.1709C88.489 69.0708 88.489 69.0708 88.5891 69.1709ZM84.5851 70.3721C84.7853 70.5723 85.1857 70.5723 85.3859 70.3721L86.6872 69.0708C86.8874 68.8706 86.8874 68.5703 86.6872 68.27C86.487 68.0698 86.1867 68.0698 85.9865 68.1699L85.8864 68.27L84.5851 69.5713C84.3849 69.8716 84.3849 70.1719 84.5851 70.3721ZM88.8894 66.5683C88.9895 66.5683 89.1897 66.4682 89.2898 66.3681L90.5911 65.0668C90.7913 64.8666 90.7913 64.4662 90.5911 64.266C90.3909 64.0657 89.9905 64.0657 89.7903 64.266L88.489 65.5673C88.2888 65.7675 88.2888 66.0678 88.3889 66.268L88.489 66.3681C88.6892 66.4682 88.7893 66.4682 88.8894 66.5683ZM92.6932 14.0157C94.2948 14.0157 95.5961 12.7144 95.5961 11.1128C95.5961 9.51121 94.2948 8.20992 92.6932 8.20992C91.0916 8.20992 89.7903 9.51121 89.7903 11.1128C89.7903 12.7144 91.0916 14.0157 92.6932 14.0157ZM92.6932 9.31101C93.6942 9.31101 94.3949 10.1118 94.3949 11.0127C94.3949 11.9136 93.5941 12.7144 92.6932 12.7144C91.6922 12.7144 90.9915 11.9136 90.9915 11.0127C90.9915 10.1118 91.7923 9.41111 92.6932 9.31101ZM52.4529 93.295C50.8513 93.295 49.55 94.5963 49.55 96.1979C49.55 97.7995 50.8513 99.1008 52.4529 99.1008C54.0545 99.1008 55.3558 97.7995 55.3558 96.1979C55.3558 94.5963 54.0545 93.295 52.4529 93.295ZM52.4529 97.8996C51.4519 97.8996 50.7512 97.0988 50.7512 96.1979C50.7512 95.297 51.552 94.4962 52.4529 94.4962C53.3538 94.4962 54.1546 95.297 54.1546 96.1979C54.1546 97.1989 53.3538 97.8996 52.4529 97.8996ZM6.507 54.5563C4.9054 54.5563 3.60407 55.8576 3.60407 57.4592C3.60407 59.0608 4.9054 60.3621 6.507 60.3621C8.1086 60.3621 9.4099 59.0608 9.4099 57.4592C9.4099 55.8576 8.1086 54.5563 6.507 54.5563ZM6.507 59.1609C5.506 59.1609 4.80529 58.3601 4.80529 57.4592C4.80529 56.5583 5.6061 55.7574 6.507 55.7574C7.508 55.7574 8.20868 56.5583 8.20868 57.4592C8.20868 58.4602 7.4079 59.1609 6.507 59.1609ZM18.6191 3.40511H7.90839C7.60809 3.40511 7.40789 3.60531 7.30779 3.90561C7.30779 4.20591 7.50799 4.40612 7.80829 4.50622H18.519C18.8193 4.50622 19.0195 4.30602 19.1196 4.00572C19.1196 3.70542 18.9194 3.50521 18.7192 3.40511H18.6191ZM0.901388 4.50622H4.30479C4.60509 4.50622 4.80529 4.30602 4.90539 4.00572C4.90539 3.70542 4.70519 3.50521 4.40489 3.40511H1.00149C0.701194 3.40511 0.500988 3.60531 0.400887 3.90561C0.400887 4.20591 0.601082 4.40612 0.801282 4.50622H0.901388ZM8.9094 7.60931C8.9094 7.30901 8.7092 7.10882 8.4089 7.00872H0.901388C0.601088 7.00872 0.400881 7.20892 0.300781 7.50922C0.300781 7.80952 0.500981 8.00971 0.801282 8.10981H8.30879C8.60909 8.10981 8.8093 7.90962 8.9094 7.70942V7.60931ZM14.0145 7.10881H11.6121C11.3118 7.10881 11.1116 7.30901 11.0115 7.60931C11.0115 7.90961 11.2117 8.10982 11.512 8.20992H13.9144C14.2147 8.20992 14.4149 8.00972 14.515 7.70942C14.6151 7.40912 14.4149 7.20892 14.1146 7.20892C14.1146 7.00872 14.0145 7.00871 14.0145 7.10881ZM90.0906 95.5973H79.3799C79.0796 95.5973 78.8794 95.7975 78.7793 96.0978C78.7793 96.3981 78.9795 96.5983 79.2798 96.6984H90.0906C90.3909 96.6984 90.5911 96.4982 90.6912 96.1979C90.5911 95.7975 90.3909 95.5973 90.0906 95.5973ZM97.0976 95.5973H93.6942C93.3939 95.5973 93.1937 95.7975 93.0936 96.0978C93.0936 96.3981 93.2938 96.5983 93.5941 96.6984H96.9975C97.2978 96.6984 97.498 96.4982 97.5981 96.1979C97.6982 95.7975 97.3979 95.5973 97.0976 95.5973ZM88.9895 92.4942C88.9895 92.7945 89.1897 92.9947 89.49 93.0948H96.9975C97.2978 93.0948 97.5981 92.7945 97.5981 92.4942C97.5981 92.1939 97.3979 91.8936 96.9975 91.8936H89.49C89.1897 91.8936 88.9895 92.0938 88.8894 92.294L88.9895 92.4942ZM83.3839 92.4942C83.3839 92.7945 83.5841 92.9947 83.8844 93.0948H86.2868C86.5871 93.0948 86.8874 92.7945 86.8874 92.4942C86.8874 92.1939 86.6872 91.8936 86.2868 91.8936H83.8844C83.5841 91.8936 83.3839 92.0938 83.2838 92.3941L83.3839 92.4942ZM42.2427 11.7134H52.0525C52.3528 11.7134 52.553 11.5132 52.6531 11.2129C52.6531 10.9126 52.4529 10.7124 52.2527 10.6123H42.3428C42.0425 10.6123 41.8423 10.8125 41.7422 11.1128C41.6421 11.4131 41.9424 11.7134 42.2427 11.7134ZM34.3348 42.1439H64.6651C64.9654 42.1439 65.1656 41.9437 65.1656 41.6434C65.1656 41.3431 64.9654 41.1429 64.6651 41.1429H34.3348C34.0345 41.1429 33.8343 41.3431 33.7342 41.6434C33.7342 41.9437 33.9344 42.1438 34.1346 42.2439C34.3348 42.2439 34.3348 42.244 34.3348 42.1439ZM27.8283 38.9406C26.3268 38.9406 25.1256 40.1419 25.1256 41.6434C25.1256 43.1449 26.3268 44.346 27.8283 44.346C29.3298 44.346 30.531 43.1449 30.531 41.6434C30.531 40.1419 29.3298 38.9406 27.8283 38.9406ZM27.8283 43.1449C27.0275 43.1449 26.3268 42.4442 26.3268 41.6434C26.3268 40.8426 27.0275 40.1419 27.8283 40.1419C28.6291 40.1419 29.3298 40.8426 29.3298 41.6434C29.3298 42.4442 28.6291 43.1449 27.8283 43.1449ZM34.3348 51.7534H61.1616C61.4619 51.7534 61.6621 51.5532 61.7622 51.2529C61.7622 50.9526 61.562 50.7525 61.2617 50.6524H34.3348C34.0345 50.6524 33.8343 50.8526 33.7342 51.1529C33.8343 51.4532 34.0345 51.7534 34.3348 51.7534ZM27.8283 48.4501C26.3268 48.4501 25.1256 49.6514 25.1256 51.1529C25.1256 52.6544 26.3268 53.8555 27.8283 53.8555C29.3298 53.8555 30.531 52.6544 30.531 51.1529C30.531 49.7515 29.3298 48.5502 27.8283 48.4501ZM27.8283 52.6544C27.0275 52.6544 26.3268 51.9537 26.3268 51.1529C26.3268 50.3521 27.0275 49.6514 27.8283 49.6514C28.6291 49.6514 29.3298 50.3521 29.3298 51.1529C29.3298 51.9537 28.6291 52.6544 27.8283 52.6544ZM34.3348 61.2629H41.542C41.8423 61.2629 42.0425 61.0627 42.1426 60.7624C42.1426 60.4621 41.9424 60.262 41.6421 60.1619H34.4349C34.1346 60.1619 33.9344 60.3621 33.8343 60.6624C33.8343 60.9627 34.0345 61.1628 34.2347 61.2629H34.3348ZM27.8283 58.0598C26.3268 58.0598 25.1256 59.2609 25.1256 60.7624C25.1256 62.2639 26.3268 63.4652 27.8283 63.4652C29.3298 63.4652 30.531 62.2639 30.531 60.7624C30.531 59.2609 29.3298 58.0598 27.8283 58.0598ZM27.8283 62.1639C27.0275 62.1639 26.3268 61.4632 26.3268 60.6624C26.3268 59.8616 27.0275 59.1609 27.8283 59.1609C28.6291 59.1609 29.3298 59.8616 29.3298 60.6624C29.3298 61.5633 28.6291 62.1639 27.8283 62.1639ZM34.3348 70.7725H45.8463C46.1466 70.7725 46.3468 70.5723 46.4469 70.272C46.4469 69.9717 46.2467 69.7715 45.9464 69.6714H34.3348C34.0345 69.6714 33.8343 69.8716 33.7342 70.1719C33.7342 70.4722 33.9344 70.6724 34.1346 70.7725H34.3348ZM27.8283 67.5693C26.3268 67.5693 25.1256 68.7705 25.1256 70.272C25.1256 71.7735 26.3268 72.9747 27.8283 72.9747C29.3298 72.9747 30.531 71.7735 30.531 70.272C30.531 68.7705 29.3298 67.5693 27.8283 67.5693ZM27.8283 71.6734C27.0275 71.6734 26.3268 70.9727 26.3268 70.1719C26.3268 69.3711 27.0275 68.6704 27.8283 68.6704C28.6291 68.6704 29.3298 69.3711 29.3298 70.1719C29.3298 71.0728 28.6291 71.6734 27.8283 71.6734ZM33.7342 79.7815C33.7342 80.0818 33.9344 80.282 34.2347 80.3821H64.5651C64.8654 80.3821 65.0655 80.1819 65.1656 79.8816C65.1656 79.5813 64.9654 79.3811 64.6651 79.281H34.3348C34.0345 79.1809 33.7342 79.4812 33.7342 79.7815ZM27.8283 77.0788C26.3268 77.0788 25.1256 78.28 25.1256 79.7815C25.1256 81.283 26.3268 82.4842 27.8283 82.4842C29.3298 82.4842 30.531 81.283 30.531 79.7815C30.531 78.28 29.3298 77.0788 27.8283 77.0788ZM27.8283 81.283C27.0275 81.283 26.3268 80.5823 26.3268 79.7815C26.3268 78.9807 27.0275 78.28 27.8283 78.28C28.6291 78.28 29.3298 78.9807 29.3298 79.7815C29.3298 80.5823 28.6291 81.1829 27.8283 81.283ZM69.6701 21.1228H49.9504C49.6501 21.1228 49.4499 21.323 49.3498 21.6233C49.3498 21.9236 49.55 22.1238 49.8503 22.2239H69.6701C69.9704 22.2239 70.1706 22.0237 70.1706 21.7234C70.2707 21.323 69.9704 21.1228 69.6701 21.1228ZM69.6701 26.1278H42.7432C42.4429 26.1278 42.2427 26.328 42.1426 26.6283C42.1426 26.9286 42.3428 27.1288 42.6431 27.2289H69.6701C69.9704 27.2289 70.1706 27.0287 70.1706 26.7284C70.3708 26.328 70.0705 26.1278 69.6701 26.1278C69.7702 26.1278 69.7702 26.1278 69.6701 26.1278ZM36.537 22.1238H32.6331L31.4319 18.4201C31.3318 18.2199 31.1316 18.0197 30.8313 18.0197C30.6311 18.0197 30.3308 18.2199 30.2307 18.4201L29.0295 22.1238H25.1256C24.9254 22.1238 24.6251 22.324 24.525 22.5242C24.4249 22.7244 24.525 23.0247 24.7252 23.1248L27.8283 25.4271L26.6271 29.1308C26.527 29.331 26.6271 29.6313 26.8273 29.7314C27.0275 29.9316 27.3278 29.9316 27.528 29.7314L30.6311 27.4291L33.7342 29.7314C33.8343 29.8315 33.9344 29.8315 34.0345 29.8315C34.1346 29.8315 34.2347 29.8315 34.3348 29.7314C34.535 29.6313 34.6351 29.331 34.535 29.1308L33.3338 25.4271L36.4369 23.1248C36.6371 23.0247 36.7372 22.7244 36.6371 22.5242C37.0375 22.324 36.8373 22.1238 36.537 22.1238ZM32.7332 24.8265C32.533 24.9266 32.4329 25.2269 32.533 25.4271L33.3338 27.8295L31.3318 26.328C31.1316 26.1278 30.8313 26.1278 30.6311 26.328L28.6291 27.8295L29.4299 25.4271C29.53 25.2269 29.4299 24.9266 29.2297 24.8265L27.2277 23.325H29.7302C30.0305 23.325 30.2307 23.1248 30.3308 22.9246L31.1316 20.5222L31.9324 22.9246C32.0325 23.1248 32.2327 23.325 32.533 23.325H35.0355L32.7332 24.8265Z" fill="#333333"/>
</g>
</g>
</g>
</g>
<defs>
<clipPath id="clip0_5_62">
<rect width="98" height="100" fill="white"/>
</clipPath>
<clipPath id="clip1_5_62">
<rect width="98" height="100" fill="white"/>
</clipPath>
<clipPath id="clip2_5_62">
<rect width="98" height="100" fill="white"/>
</clipPath>
</defs>
</svg>
